<svg xmlns="http://www.w3.org/2000/svg" width="19.917" height="19.917" viewBox="0 0 19.917 19.917">
  <g id="_-Product-Icons" data-name="ðŸ”-Product-Icons" transform="translate(-2 -2)">
    <g id="ic_fluent_select_all_24_regular" transform="translate(2 2)">
      <path id="_-Color" data-name="ðŸŽ¨-Color" d="M20.42,5.612a2.242,2.242,0,0,1,1.5,2.115v9.959a4.232,4.232,0,0,1-4.232,4.232H7.726a2.242,2.242,0,0,1-2.115-1.5l2.089,0h9.985a2.739,2.739,0,0,0,2.739-2.739V7.726l0-.051ZM17.184,2a2.241,2.241,0,0,1,2.241,2.241V17.184a2.241,2.241,0,0,1-2.241,2.241H4.241A2.241,2.241,0,0,1,2,17.184V4.241A2.241,2.241,0,0,1,4.241,2Zm0,1.494H4.241a.747.747,0,0,0-.747.747V17.184a.747.747,0,0,0,.747.747H17.184a.747.747,0,0,0,.747-.747V4.241A.747.747,0,0,0,17.184,3.494ZM9.55,11.32l3.873-3.872a.747.747,0,0,1,1.129.973l-.072.084L10,12.985a.747.747,0,0,1-1.052,0L8.872,12.9,7.378,10.913A.747.747,0,0,1,8.5,9.933l.073.083.977,1.3,3.873-3.872Z" transform="translate(-2 -2)" fill="#0e5f02"/>
    </g>
  </g>
</svg>
