<svg xmlns="http://www.w3.org/2000/svg" width="34" height="34" viewBox="0 0 34 34">
  <g id="Group_56476" data-name="Group 56476" transform="translate(-32 -529)">
    <g id="Group_56439" data-name="Group 56439" transform="translate(2.68 367.68)">
      <circle id="Ellipse_814" data-name="Ellipse 814" cx="17" cy="17" r="17" transform="translate(29.32 161.32)" fill="#0e5f02"/>
    </g>
    <g id="animal-welfare.svg" transform="translate(-501.392 -107.619)">
      <path id="Path_40546" data-name="Path 40546" d="M2725.775,1000.557a1.165,1.165,0,0,0-1.247-1.081,1.244,1.244,0,0,0-1.085,1.159,1.024,1.024,0,0,0-.794.975c-.034.68-.056,1.921-.068,3.687a3.448,3.448,0,0,0-.315.307c-.37.4-2.434,2.455-2.869,2.8a4.251,4.251,0,0,0-1.623,1.835,3.374,3.374,0,0,0-.3,1.318c-.012.227.016.64.018.665.017.155.087.559.12.754l.013.078c-.039.709-.071,2.432-.072,2.449a.178.178,0,0,0,.174.181h0a.178.178,0,0,0,.178-.174c0-.016.027-1.442.061-2.224,0-.084.007-.161.011-.228a.564.564,0,0,0-.019-.142c-.031-.176-.1-.589-.117-.725,0,0-.028-.409-.017-.614a3.021,3.021,0,0,1,.269-1.2,3.9,3.9,0,0,1,1.516-1.694c.468-.369,2.593-2.492,2.911-2.836a2.677,2.677,0,0,1,.408-.375.638.638,0,0,1,.182-.1.616.616,0,0,1,.725.193.9.9,0,0,1,.128.854,1.1,1.1,0,0,1-.19.337,43.761,43.761,0,0,1-2.86,3.418.178.178,0,0,0,.245.257,42.894,42.894,0,0,0,2.9-3.457,1.443,1.443,0,0,0,.248-.443,1.244,1.244,0,0,0-.2-1.2,1.058,1.058,0,0,0-.337-.268l.018-4.336a.02.02,0,0,1,0,0,.9.9,0,0,1,.773-.89.814.814,0,0,1,.858.774s0,.009,0,.014a29.461,29.461,0,0,1-.049,7.988,2.818,2.818,0,0,1-.745,1.428c-.4.415-1.01.949-1.6,1.465-.4.354-.781.687-1.1.989a1.877,1.877,0,0,0-.386,1.074c-.007.047-.014.093-.021.135a.214.214,0,0,0,0,.022l-.066,1.651-.008.193a.177.177,0,0,0,.17.185h.007a.178.178,0,0,0,.178-.17l.073-1.833c.006-.04.013-.083.02-.129a1.717,1.717,0,0,1,.278-.867c.318-.3.7-.63,1.1-.981.592-.521,1.205-1.059,1.617-1.485a3.177,3.177,0,0,0,.84-1.616A29.85,29.85,0,0,0,2725.775,1000.557Z" transform="translate(-2165.661 -352.99)" fill="none" stroke="#fff" stroke-width="0.4"/>
      <path id="Path_40547" data-name="Path 40547" d="M540.716,1016.677a3.178,3.178,0,0,0,.839,1.616c.412.425,1.025.964,1.617,1.485.4.352.777.683,1.1.981a1.717,1.717,0,0,1,.278.867c.007.045.013.088.02.129l.073,1.833a.178.178,0,0,0,.178.17h.007a.178.178,0,0,0,.17-.184l-.008-.193-.066-1.651a.158.158,0,0,0,0-.022c-.007-.042-.014-.087-.021-.135a1.878,1.878,0,0,0-.386-1.074c-.322-.3-.7-.635-1.1-.989-.587-.516-1.195-1.05-1.6-1.465a2.817,2.817,0,0,1-.745-1.428,29.451,29.451,0,0,1-.049-7.988s0-.009,0-.014a.814.814,0,0,1,.858-.774.9.9,0,0,1,.773.89s0,0,0,0l.018,4.336a1.057,1.057,0,0,0-.338.268,1.243,1.243,0,0,0-.2,1.2,1.443,1.443,0,0,0,.248.443,42.868,42.868,0,0,0,2.9,3.457.178.178,0,0,0,.245-.257,43.737,43.737,0,0,1-2.86-3.418,1.1,1.1,0,0,1-.191-.337.9.9,0,0,1,.128-.854.617.617,0,0,1,.725-.193.631.631,0,0,1,.182.1,2.672,2.672,0,0,1,.408.375c.317.344,2.443,2.468,2.911,2.836a3.9,3.9,0,0,1,1.516,1.694,3.021,3.021,0,0,1,.269,1.2c.011.206-.017.61-.017.615-.015.136-.086.549-.117.725a.536.536,0,0,0-.019.142c0,.067.007.144.011.228.034.783.061,2.208.061,2.224a.178.178,0,0,0,.178.174h0a.178.178,0,0,0,.174-.181c0-.018-.033-1.74-.072-2.45l.013-.078c.033-.195.1-.6.12-.754,0-.025.03-.438.018-.665a3.376,3.376,0,0,0-.3-1.318,4.249,4.249,0,0,0-1.623-1.835c-.436-.343-2.5-2.4-2.87-2.8a3.433,3.433,0,0,0-.315-.307c-.011-1.766-.034-3.007-.068-3.687a1.025,1.025,0,0,0-.794-.975,1.244,1.244,0,0,0-1.085-1.159,1.165,1.165,0,0,0-1.247,1.081A29.84,29.84,0,0,0,540.716,1016.677Z" transform="translate(0 -360.958)" fill="none" stroke="#fff" stroke-width="0.4"/>
      <g id="Group_56471" data-name="Group 56471" transform="translate(545.87 644.62)">
        <g id="Group_56448" data-name="Group 56448" transform="translate(3.456 9.477)">
          <g id="Group_56440" data-name="Group 56440" transform="translate(0.451 2.225)">
            <path id="Path_40548" data-name="Path 40548" d="M2329.256,2875.3a.235.235,0,0,0,.123-.037.058.058,0,1,0-.062-.1.114.114,0,0,1-.069.019.046.046,0,0,1-.035-.018.045.045,0,0,1,0-.039.115.115,0,0,1,.047-.054.058.058,0,1,0-.062-.1.229.229,0,0,0-.093.112.151.151,0,0,0,.133.211Z" transform="translate(-2329.094 -2874.971)" fill="#fff" stroke="#fff" stroke-width="0.1"/>
          </g>
          <g id="Group_56447" data-name="Group 56447">
            <g id="Group_56441" data-name="Group 56441" transform="translate(0 0.321)">
              <path id="Path_40549" data-name="Path 40549" d="M2243.22,2513.7a1.21,1.21,0,0,1,.061-.38.057.057,0,0,1,.029-.034.058.058,0,0,1,.044,0,1.163,1.163,0,0,0,.382.063,1.044,1.044,0,0,0,.784-.324.885.885,0,0,0,.137-.276.586.586,0,0,1,.338-.5h0a.616.616,0,0,1,.214-.05.39.39,0,0,1,.39.25l.184.126a.058.058,0,0,1,.024.058.057.057,0,0,1-.043.045l-.257.063a.435.435,0,0,1-.222.1.906.906,0,0,0,0,.345l.008.016a1.2,1.2,0,0,1,.107.5,1.094,1.094,0,1,1-2.184,0Zm1.973-.947a.059.059,0,0,1,.043-.024.32.32,0,0,0,.2-.084.057.057,0,0,1,.027-.015l.147-.036-.1-.066a.056.056,0,0,1-.024-.037.273.273,0,0,0-.282-.18.513.513,0,0,0-.167.039h0a.459.459,0,0,0-.27.409.969.969,0,0,1-.164.337,1.159,1.159,0,0,1-.872.365,1.3,1.3,0,0,1-.363-.051,1.089,1.089,0,0,0-.039.29.979.979,0,1,0,1.954,0,1.085,1.085,0,0,0-.1-.452l-.008-.016a.064.064,0,0,1-.007-.02.934.934,0,0,1,.006-.427A.057.057,0,0,1,2245.193,2512.758Z" transform="translate(-2243.22 -2512.2)" fill="#fff" stroke="#fff" stroke-width="0.1"/>
            </g>
            <g id="Group_56442" data-name="Group 56442" transform="translate(1.514)">
              <path id="Path_40550" data-name="Path 40550" d="M2531.845,2451.495l.017,0a.058.058,0,0,0,.038-.072c-.066-.214-.054-.334-.014-.358.105-.061.244.064.246.065a.058.058,0,0,0,.077,0,.165.165,0,0,1,.1-.04.062.062,0,0,1,.044.027.285.285,0,0,1,.03.226.058.058,0,0,0,.111.033.4.4,0,0,0-.051-.331.177.177,0,0,0-.124-.07.244.244,0,0,0-.146.04.321.321,0,0,0-.345-.051c-.133.077-.094.31-.039.491A.058.058,0,0,0,2531.845,2451.495Z" transform="translate(-2531.739 -2450.93)" fill="#fff" stroke="#fff" stroke-width="0.1"/>
            </g>
            <g id="Group_56443" data-name="Group 56443" transform="translate(0.68 2.054)">
              <path id="Path_40551" data-name="Path 40551" d="M2373.212,2842.88a.353.353,0,0,0,.373-.328.058.058,0,0,0-.115,0,.263.263,0,0,1-.515,0,.183.183,0,0,1,.036-.108.058.058,0,0,0-.094-.067.3.3,0,0,0-.058.176A.353.353,0,0,0,2373.212,2842.88Z" transform="translate(-2372.84 -2842.352)" fill="#fff" stroke="#fff" stroke-width="0.1"/>
            </g>
            <g id="Group_56444" data-name="Group 56444" transform="translate(1.066 2.937)">
              <path id="Path_40552" data-name="Path 40552" d="M2446.548,3011.06a.058.058,0,0,0,.057-.058v-.265a.058.058,0,1,0-.115,0V3011A.058.058,0,0,0,2446.548,3011.06Z" transform="translate(-2446.49 -3010.68)" fill="#fff" stroke="#fff" stroke-width="0.1"/>
            </g>
            <g id="Group_56445" data-name="Group 56445" transform="translate(0.825 3.219)">
              <path id="Path_40553" data-name="Path 40553" d="M2401.2,3064.774a.058.058,0,0,0,.024-.11,1.207,1.207,0,0,0-.409-.12,1.228,1.228,0,0,0-.242.043.058.058,0,0,0,.033.111,1.1,1.1,0,0,1,.217-.039,1.078,1.078,0,0,1,.352.11A.062.062,0,0,0,2401.2,3064.774Z" transform="translate(-2400.535 -3064.543)" fill="#fff" stroke="#fff" stroke-width="0.1"/>
            </g>
            <g id="Group_56446" data-name="Group 56446" transform="translate(2.022 0.539)">
              <path id="Path_40554" data-name="Path 40554" d="M2628.62,2553.709a.07.07,0,1,0,.07-.07A.07.07,0,0,0,2628.62,2553.709Z" transform="translate(-2628.62 -2553.64)" fill="#fff" stroke="#fff" stroke-width="0.1"/>
            </g>
          </g>
        </g>
        <g id="Group_56469" data-name="Group 56469" transform="translate(0 5.211)">
          <g id="Group_56458" data-name="Group 56458" transform="translate(4.994 0.699)">
            <g id="Group_56449" data-name="Group 56449" transform="translate(2.286 2.672)">
              <path id="Path_40555" data-name="Path 40555" d="M2972.694,2280.813a4.885,4.885,0,0,1-.56-.03.091.091,0,1,1,.021-.181,5.42,5.42,0,0,0,.922.017c.051,0,.1-.007.149-.011a.091.091,0,1,1,.017.181c-.05,0-.1.009-.156.012C2972.95,2280.81,2972.819,2280.813,2972.694,2280.813Z" transform="translate(-2972.053 -2280.602)" fill="#fff" stroke="#fff" stroke-width="0.1"/>
            </g>
            <g id="Group_56457" data-name="Group 56457">
              <g id="Group_56450" data-name="Group 56450" transform="translate(1.425 0.021)">
                <path id="Path_40556" data-name="Path 40556" d="M2810.445,1777.95a.091.091,0,0,1-.03-.177,1.083,1.083,0,0,0,.71-1.263,1.183,1.183,0,0,0-.567-.831,2.909,2.909,0,0,0-2.367.117.091.091,0,1,1-.062-.172,3.067,3.067,0,0,1,2.521-.1,1.364,1.364,0,0,1,.655.957,1.254,1.254,0,0,1-.831,1.467A.089.089,0,0,1,2810.445,1777.95Z" transform="translate(-2808.069 -1775.297)" fill="#fff" stroke="#fff" stroke-width="0.1"/>
              </g>
              <g id="Group_56451" data-name="Group 56451" transform="translate(0 0.603)">
                <path id="Path_40557" data-name="Path 40557" d="M2537.952,1888a.091.091,0,0,1-.037-.008,3.473,3.473,0,0,1-.46-.26c-.051-.033-.1-.064-.149-.094-.2-.118-.317-.2-.415-.274a1.352,1.352,0,0,0-.322-.188c-.309-.12-.178-.628-.162-.685a.091.091,0,0,1,.088-.067.884.884,0,0,0,.628-.225.166.166,0,0,1,.109-.056.091.091,0,0,1,.032.177l-.022.019a1.05,1.05,0,0,1-.674.267c-.028.144-.038.361.067.4a1.524,1.524,0,0,1,.361.209c.1.068.214.152.4.267.052.031.1.064.153.1a3.335,3.335,0,0,0,.436.248.091.091,0,0,1-.037.174Z" transform="translate(-2536.366 -1886.14)" fill="#fff" stroke="#fff" stroke-width="0.1"/>
              </g>
              <g id="Group_56452" data-name="Group 56452" transform="translate(0.735)">
                <path id="Path_40558" data-name="Path 40558" d="M2676.608,1772.2a.091.091,0,0,1-.086-.06,3.83,3.83,0,0,1-.153-.8.091.091,0,0,1,.107-.1,1.116,1.116,0,0,1,.862.748.091.091,0,0,1-.175.05.934.934,0,0,0-.6-.589,3.158,3.158,0,0,0,.129.626.091.091,0,0,1-.054.117A.088.088,0,0,1,2676.608,1772.2Z" transform="translate(-2676.37 -1771.237)" fill="#fff" stroke="#fff" stroke-width="0.1"/>
              </g>
              <g id="Group_56453" data-name="Group 56453" transform="translate(1.492 1.996)">
                <path id="Path_40559" data-name="Path 40559" d="M2821,2153.258a2.152,2.152,0,0,1-.246-.016.089.089,0,0,1-.062-.037.09.09,0,0,1-.016-.07,2.251,2.251,0,0,0-.011-.973.091.091,0,0,1,.175-.051,2.367,2.367,0,0,1,.032.96,1.041,1.041,0,0,0,.261-.005.744.744,0,0,0-.01-.087.7.7,0,0,1,.005-.327.73.73,0,0,1,.126-.239.294.294,0,0,0,.072-.15.269.269,0,0,0-.027-.149.416.416,0,0,1-.025-.291.091.091,0,1,1,.175.05.243.243,0,0,0,.02.175.442.442,0,0,1,.037.242.465.465,0,0,1-.105.23.555.555,0,0,0-.1.185.537.537,0,0,0,0,.244c.015.1.038.24-.1.286A.708.708,0,0,1,2821,2153.258Z" transform="translate(-2820.664 -2151.756)" fill="#fff" stroke="#fff" stroke-width="0.1"/>
              </g>
              <g id="Group_56454" data-name="Group 56454" transform="translate(3.103 2.039)">
                <path id="Path_40560" data-name="Path 40560" d="M3128.228,2161.267a1.371,1.371,0,0,1-.287-.035.09.09,0,0,1-.065-.056.091.091,0,0,1,.01-.085.862.862,0,0,0,.118-.408,2.33,2.33,0,0,0-.207-.757.091.091,0,1,1,.167-.074,2.553,2.553,0,0,1,.222.839,1.109,1.109,0,0,1-.087.383.5.5,0,0,0,.253-.01c.056-.056.024-.187-.023-.353a.513.513,0,0,1,.094-.431.091.091,0,0,1,.142.115.335.335,0,0,0-.06.267c.053.185.113.4-.023.532A.361.361,0,0,1,3128.228,2161.267Z" transform="translate(-3127.79 -2159.799)" fill="#fff" stroke="#fff" stroke-width="0.1"/>
              </g>
              <g id="Group_56455" data-name="Group 56455" transform="translate(4.425 0.722)">
                <path id="Path_40561" data-name="Path 40561" d="M3380.343,1909.615a.214.214,0,0,1-.127-.043.285.285,0,0,1-.1-.289.316.316,0,0,1,.036-.092.256.256,0,0,0-.208-.022.091.091,0,1,1-.1-.152.431.431,0,0,1,.44.035.877.877,0,0,1,.329-.128.091.091,0,0,1,.037.178.867.867,0,0,0-.194.062.3.3,0,0,1,.131.22.23.23,0,0,1-.138.2A.211.211,0,0,1,3380.343,1909.615Zm-.035-.334a.156.156,0,0,0-.016.041.1.1,0,0,0,.032.1c.017.012.027.007.032,0,.034-.02.046-.036.046-.042S3380.382,1909.335,3380.308,1909.281Z" transform="translate(-3379.8 -1908.922)" fill="#fff" stroke="#fff" stroke-width="0.1"/>
              </g>
              <g id="Group_56456" data-name="Group 56456" transform="translate(0.679 1.012)">
                <path id="Path_40562" data-name="Path 40562" d="M2666.03,1964.24a.11.11,0,1,1-.11-.11A.11.11,0,0,1,2666.03,1964.24Z" transform="translate(-2665.81 -1964.13)" fill="#fff" stroke="#fff" stroke-width="0.1"/>
              </g>
            </g>
          </g>
          <g id="Group_56468" data-name="Group 56468">
            <g id="Group_56459" data-name="Group 56459" transform="translate(1.631 3.052)">
              <path id="Path_40563" data-name="Path 40563" d="M1895.609,2219.956l.021,0,.146-.035a1,1,0,0,1,.714-.013.1.1,0,1,0,.087-.169,1.175,1.175,0,0,0-.847,0l-.142.034a.1.1,0,0,0,.021.188Z" transform="translate(-1895.514 -2219.653)" fill="#fff" stroke="#fff" stroke-width="0.1"/>
            </g>
            <g id="Group_56467" data-name="Group 56467">
              <g id="Group_56460" data-name="Group 56460" transform="translate(3.028 0.064)">
                <path id="Path_40564" data-name="Path 40564" d="M2163.037,1651.544a.6.6,0,0,0,.078-.006.4.4,0,0,0,.338-.244.375.375,0,0,0-.1-.382,3.115,3.115,0,0,0-.887-.639.553.553,0,0,0-.7.167.086.086,0,0,0,.141.1.379.379,0,0,1,.486-.111,2.947,2.947,0,0,1,.836.6.2.2,0,0,1,.064.207.229.229,0,0,1-.2.131.2.2,0,0,1-.174-.036.485.485,0,0,0-.37-.076c-.352.036-.385.014-.479-.175a.086.086,0,0,0-.154.077c.147.294.287.307.651.27a.318.318,0,0,1,.258.048A.345.345,0,0,0,2163.037,1651.544Z" transform="translate(-2161.748 -1650.211)" fill="#fff" stroke="#fff" stroke-width="0.1"/>
              </g>
              <g id="Group_56461" data-name="Group 56461" transform="translate(3.723)">
                <path id="Path_40565" data-name="Path 40565" d="M2294.606,1638.408h.006a.369.369,0,0,0,.335-.2.2.2,0,0,0-.047-.216c-.138-.139-.49,0-.634.066a.086.086,0,0,0,.071.156.765.765,0,0,1,.441-.1.027.027,0,0,1,.008.034.207.207,0,0,1-.185.092.086.086,0,0,0,.005.172Z" transform="translate(-2294.216 -1637.93)" fill="#fff" stroke="#fff" stroke-width="0.1"/>
              </g>
              <g id="Group_56462" data-name="Group 56462" transform="translate(2.559 0.293)">
                <path id="Path_40566" data-name="Path 40566" d="M2072.74,1694.3a.5.5,0,0,0,.229-.057.086.086,0,0,0-.079-.153.271.271,0,0,1-.29-.007.1.1,0,0,1-.041-.1c.01-.036.216-.044.442.015a.086.086,0,1,0,.043-.167c-.137-.035-.588-.133-.651.108a.263.263,0,0,0,.1.276A.394.394,0,0,0,2072.74,1694.3Z" transform="translate(-2072.383 -1693.783)" fill="#fff" stroke="#fff" stroke-width="0.1"/>
              </g>
              <g id="Group_56463" data-name="Group 56463" transform="translate(3.098 1.165)">
                <path id="Path_40567" data-name="Path 40567" d="M2175.11,1862.068a.084.084,0,0,0,.038-.009,1.947,1.947,0,0,0,1.052-1.187,1.072,1.072,0,0,0-.259-.938.086.086,0,0,0-.132.11.909.909,0,0,1,.223.793,1.772,1.772,0,0,1-.959,1.069.086.086,0,0,0,.038.163Z" transform="translate(-2175.024 -1859.903)" fill="#fff" stroke="#fff" stroke-width="0.1"/>
              </g>
              <g id="Group_56464" data-name="Group 56464" transform="translate(2.263 3.062)">
                <path id="Path_40568" data-name="Path 40568" d="M2016.548,2223.337a.086.086,0,0,0,.064-.029.087.087,0,0,0,.021-.07,2.48,2.48,0,0,1,.165-1.365.086.086,0,1,0-.147-.09,2.435,2.435,0,0,0-.2,1.379l-.1,0a3.111,3.111,0,0,0-.059-.348,2.4,2.4,0,0,0-.3-1.146.086.086,0,0,0-.155.076,2.275,2.275,0,0,1,.285,1.066.086.086,0,0,0,0,.03,2.531,2.531,0,0,1,.063.407.086.086,0,0,0,.083.086l.278.009Z" transform="translate(-2015.826 -2221.616)" fill="#fff" stroke="#fff" stroke-width="0.1"/>
              </g>
              <g id="Group_56465" data-name="Group 56465" transform="translate(0 0.646)">
                <path id="Path_40569" data-name="Path 40569" d="M1585.665,1765.114h.369a.086.086,0,0,0,.083-.108,1.748,1.748,0,0,1-.022-.786,5.457,5.457,0,0,0,.164-.823.086.086,0,1,0-.171-.02,5.383,5.383,0,0,1-.158.793,1.731,1.731,0,0,0,0,.773h-.181a5.74,5.74,0,0,0-.072-.646,1.153,1.153,0,0,0-.21-.411,1.888,1.888,0,0,1-.272-.509l-.073-.393a.086.086,0,0,0-.055-.068.08.08,0,0,0-.081.015.255.255,0,0,1-.19,0,.421.421,0,0,1-.04-.265,1.062,1.062,0,0,1,.464-.84,3.611,3.611,0,0,1,1.361-.194,3.685,3.685,0,0,0,.474-.028c.342-.066.418-.506.421-.525a.086.086,0,1,0-.17-.028s-.059.34-.284.383a3.7,3.7,0,0,1-.445.025,3.616,3.616,0,0,0-1.444.217,1.254,1.254,0,0,0-.545,1.153c.022.186.1.246.156.264a.517.517,0,0,0,.227.021l.056.3,0,.01a2.021,2.021,0,0,0,.3.56,1.017,1.017,0,0,1,.183.347,6.323,6.323,0,0,1,.074.7A.086.086,0,0,0,1585.665,1765.114Z" transform="translate(-1584.579 -1760.976)" fill="#fff" stroke="#fff" stroke-width="0.1"/>
              </g>
              <g id="Group_56466" data-name="Group 56466" transform="translate(3.677 0.542)">
                <path id="Path_40570" data-name="Path 40570" d="M2285.36,1741.324a.1.1,0,1,0,.1-.1A.1.1,0,0,0,2285.36,1741.324Z" transform="translate(-2285.36 -1741.22)" fill="#fff" stroke="#fff" stroke-width="0.1"/>
              </g>
            </g>
          </g>
        </g>
        <g id="Group_56470" data-name="Group 56470" transform="translate(0.495)">
          <path id="Path_40571" data-name="Path 40571" d="M1678.971,647.2l.033.083a.627.627,0,0,0,.323.345l-.048.29a.486.486,0,0,0,.074.35l.048.071a.3.3,0,0,1,.048.2l.015.232a.362.362,0,0,0,.285.4l.333.055a.316.316,0,0,0,.052,0,.367.367,0,0,0,.347-.291l-.063-.24a.3.3,0,0,1,.111-.174l.069-.052a.485.485,0,0,0,.183-.307l.048-.29a.627.627,0,0,0,.417-.222l.058-.068a.186.186,0,0,0,.029-.194.165.165,0,0,0-.145-.1l-.249-.009.021-.016a.723.723,0,0,1,.509-.141l.087.009c0,.015.006.03.008.045l.078.625a.525.525,0,0,0,.052.171l.052.1a.354.354,0,0,1,.035.2l.133,1.089a.159.159,0,0,0,.1.164.164.164,0,0,0,.063.012h.346a.159.159,0,0,0,.157-.136l-.177-.94.062-.185.539,1.128a.158.158,0,0,0,.156.132h.347a.159.159,0,0,0,.156-.184l-.538-.775v-1.283a2.155,2.155,0,0,0,1.142-.216.985.985,0,0,0,.142.168l.124.619.228,1.485a.159.159,0,0,0,.068.161.162.162,0,0,0,.091.026h.343a.158.158,0,0,0,.156-.13l-.277-1.534v-.354a.989.989,0,0,0,.334-.077c.02.1.042.2.069.3a4.057,4.057,0,0,0,.131.4.137.137,0,0,1,.01.05l.636,1.183a.158.158,0,0,0,.158.158h.349a.158.158,0,0,0,.159-.158l-.693-2.229.184-1.6q.044.09.078.185a2.761,2.761,0,0,1,.024,1.591.088.088,0,0,0,.169.047,2.923,2.923,0,0,0-.027-1.7,2.291,2.291,0,0,0-.226-.453.7.7,0,0,0-.7-.613h-4.13v0a1.411,1.411,0,0,0-1.1.713v0l-.887,1.717a.54.54,0,0,0-.065.038l-.433-.131a.164.164,0,0,0-.17.048A.184.184,0,0,0,1678.971,647.2Zm6.472.07a.812.812,0,0,1-1.017-.259l.449-.337.02-.014.006,0,.015-.009.006,0,.016-.008.006,0,.017-.007.005,0,.018-.006h0l.02,0h0l.022,0h0l.023,0h0a.329.329,0,0,1,.342.3c0,.043.008.092.014.145h0C1685.423,647.124,1685.431,647.2,1685.443,647.275Zm-.741.569-.086-.432a.991.991,0,0,0,.348.113v.344l.268,1.488h-.277l-.252-1.449A.171.171,0,0,0,1684.7,647.844Zm-2.122.085a2.492,2.492,0,0,0,.106-.668l.26.027V648.6l.517.752h-.278Zm-1.726-.8-.149.112a.527.527,0,0,0-.115-.1l-.006,0-.029-.016-.017-.008-.016-.007-.022-.009-.011,0-.034-.01-.01,0-.037-.008-.423-.07-.038,0h-.047l.817-1.581a1.235,1.235,0,0,1,.989-.624.672.672,0,0,0,.274.416.625.625,0,0,0,.38.075.53.53,0,0,1,.34.068.471.471,0,0,1,.188.259.56.56,0,0,0,.248.319.7.7,0,0,0,.346.083.917.917,0,0,0,.623-.241.646.646,0,0,0,.156-.247.341.341,0,0,1,.123-.177.454.454,0,0,1,.284-.078.616.616,0,0,0,.281-.059.623.623,0,0,0,.282-.422h.556a.541.541,0,0,1,.284.077.527.527,0,0,1,.248.515l-.2,1.764.677,2.205h-.281l-.653-1.209-.006-.016a3.858,3.858,0,0,1-.141-.423,4,4,0,0,1-.086-.4V647.3l-.008-.051v0l-.007-.051c0-.01,0-.019,0-.029l0-.024,0-.036v-.015c0-.015,0-.029,0-.043v0a.047.047,0,0,1,0-.006l0-.04-.005-.054a.009.009,0,0,1,0,0q0-.023,0-.045c0-.01,0-.02,0-.029l0-.011c0-.006,0-.012,0-.018l0-.013,0-.016,0-.013,0-.015,0-.013-.005-.014-.005-.013-.006-.014-.006-.012-.007-.013-.007-.012-.008-.013-.007-.012-.008-.012-.008-.011-.009-.012-.009-.011-.01-.011-.009-.01-.01-.011-.01-.01-.011-.01-.011-.009-.011-.01-.011-.009-.012-.009-.012-.008-.009-.006a.155.155,0,0,0-.046-.027l-.025-.012,0,0a.505.505,0,0,0-.22-.04h0l-.035,0h0l-.032.005h-.005l-.03.007-.007,0-.027.008-.009,0-.025.01-.01,0-.024.011-.01.005-.023.014-.009.005-.031.021-.271.2a1.981,1.981,0,0,1-1.4.387l-.413-.044a2.5,2.5,0,0,0-.125-.672.088.088,0,0,0-.114-.055h0a.088.088,0,0,0-.052.11,2.33,2.33,0,0,1,0,1.471l-.165.494.162.924h-.282l-.153-1.053a.529.529,0,0,0-.053-.3l-.052-.1a.351.351,0,0,1-.035-.114l-.078-.625a.816.816,0,0,0-.458-.632.087.087,0,0,0-.12.052h0a.088.088,0,0,0,.046.107.64.64,0,0,1,.282.266h0A.9.9,0,0,0,1680.855,647.133Zm0,.568a.633.633,0,0,0-.028-.24l.344.012a.008.008,0,0,1,0,0l-.058.068A.459.459,0,0,1,1680.857,647.7Zm-1.4.25.063-.382,0-.029c0-.01,0-.019.006-.028l0-.014c0-.012.007-.023.01-.034l0-.006c0-.012.009-.024.014-.036v0a.377.377,0,0,1,.018-.035h0a.429.429,0,0,1,.1-.123h0a.378.378,0,0,1,.092-.054l.014-.005.015-.005.017,0,.022,0,.015,0,.019,0h.05l.031,0,.423.07.036.008.011,0,.024.008.011.005.022.011.01.006.013.008a.343.343,0,0,1-.176.187.357.357,0,0,1-.238-.054.408.408,0,0,0-.381-.04.4.4,0,0,0-.175.207.088.088,0,0,0,.056.121.087.087,0,0,0,.1-.049.24.24,0,0,1,.1-.124c.058-.031.123,0,.225.044a.5.5,0,0,0,.364.063.457.457,0,0,0,.248-.217l.006.01,0,.006a.452.452,0,0,1,.042.229h0c0,.014,0,.028-.005.043l-.068.411a.309.309,0,0,1-.115.2l-.069.052a.479.479,0,0,0-.176.274l.047.236a.17.17,0,0,1-.181.141l-.333-.055a.17.17,0,0,1-.125-.192l-.031-.233a.48.48,0,0,0-.078-.316l-.048-.071A.307.307,0,0,1,1679.453,647.951Zm-.318-.817.329.1,0,.005-.01.014-.007.01-.009.014-.007.011-.008.014-.006.011-.007.015-.006.012-.007.015-.005.012-.006.016,0,.012-.006.017,0,.011-.006.02,0,.008a.458.458,0,0,1-.192-.229l-.033-.083A.008.008,0,0,1,1679.134,647.134Z" transform="translate(-1678.958 -644.62)" fill="#fff" stroke="#fff" stroke-width="0.1"/>
        </g>
        <path id="Path_40572" data-name="Path 40572" d="M2378.459,756.075h-1.7v-.135h1.7v.135Z" transform="translate(-2372.604 -755.356)" fill="#2d3e50" stroke="#fff" stroke-width="0.2"/>
      </g>
    </g>
  </g>
</svg>
