<svg xmlns="http://www.w3.org/2000/svg" width="39" height="39" viewBox="0 0 39 39">
  <g id="Group_57419" data-name="Group 57419" transform="translate(-24 -432)">
    <circle id="Ellipse_652" data-name="Ellipse 652" cx="19.5" cy="19.5" r="19.5" transform="translate(24 432)" fill="#fff"/>
    <path id="calendar-svgrepo-com" d="M65.175,69.874v9.4h14.1V66.35h-2.35v.587a.587.587,0,1,1-1.175,0V66.35H68.7v.587a.587.587,0,1,1-1.175,0V66.35h-2.35V68.7h14.1v1.175Zm3.524-4.7h7.049v-.587a.587.587,0,0,1,1.175,0v.587H79.86a.587.587,0,0,1,.587.587v14.1a.587.587,0,0,1-.587.587H64.587A.587.587,0,0,1,64,79.86v-14.1a.587.587,0,0,1,.587-.587h2.937v-.587a.587.587,0,1,1,1.175,0Zm-.587,7.049h1.175a.587.587,0,0,1,0,1.175H68.112a.587.587,0,0,1,0-1.175Zm0,3.524h1.175a.587.587,0,0,1,0,1.175H68.112a.587.587,0,0,1,0-1.175Zm3.524-3.524h1.175a.587.587,0,0,1,0,1.175H71.636a.587.587,0,0,1,0-1.175Zm0,3.524h1.175a.587.587,0,0,1,0,1.175H71.636a.587.587,0,0,1,0-1.175Zm3.524-3.524h1.175a.587.587,0,0,1,0,1.175H75.161a.587.587,0,0,1,0-1.175Zm0,3.524h1.175a.587.587,0,0,1,0,1.175H75.161a.587.587,0,0,1,0-1.175Z" transform="translate(-29 379)" fill="#0e5f02"/>
  </g>
</svg>
