<svg xmlns="http://www.w3.org/2000/svg" width="20.972" height="17.827" viewBox="0 0 20.972 17.827">
  <path id="camera-svgrepo-com" d="M14.876,3a2.1,2.1,0,0,1,1.99,1.434l.571,1.712h2.39a3.146,3.146,0,0,1,3.146,3.146v8.389a3.146,3.146,0,0,1-3.146,3.146H5.146A3.146,3.146,0,0,1,2,17.681V9.292A3.146,3.146,0,0,1,5.146,6.146h2.39l.571-1.712A2.1,2.1,0,0,1,10.1,3Zm0,2.1H10.1L9.526,6.809a2.1,2.1,0,0,1-1.99,1.434H5.146A1.049,1.049,0,0,0,4.1,9.292v8.389a1.049,1.049,0,0,0,1.049,1.049H19.827a1.049,1.049,0,0,0,1.049-1.049V9.292a1.049,1.049,0,0,0-1.049-1.049h-2.39a2.1,2.1,0,0,1-1.99-1.434ZM9.865,12.962a2.622,2.622,0,1,1,2.622,2.622A2.622,2.622,0,0,1,9.865,12.962Zm2.622-4.719a4.719,4.719,0,1,0,4.719,4.719A4.719,4.719,0,0,0,12.486,8.243Z" transform="translate(-2 -3)" fill="#fff" fill-rule="evenodd"/>
</svg>
