<svg xmlns="http://www.w3.org/2000/svg" width="25.262" height="25.262" viewBox="0 0 25.262 25.262">
  <g id="Communication_Share_Android" data-name="Communication / Share_Android" transform="translate(-2.25 -2.25)">
    <path id="Vector" d="M10.921,16.861l7.921,3.96m0-11.881L10.921,12.9M22.8,26.762a3.96,3.96,0,1,1,3.96-3.96A3.96,3.96,0,0,1,22.8,26.762ZM6.96,18.841a3.96,3.96,0,1,1,3.96-3.96A3.96,3.96,0,0,1,6.96,18.841ZM22.8,10.921a3.96,3.96,0,1,1,3.96-3.96A3.96,3.96,0,0,1,22.8,10.921Z" fill="none" stroke="#141414" stroke-linecap="round" stroke-linejoin="round" stroke-width="1.5"/>
  </g>
</svg>
