<svg xmlns="http://www.w3.org/2000/svg" width="37.728" height="37.73" viewBox="0 0 37.728 37.73">
  <path id="phone-call-svgrepo-com" d="M25.352,3.414A12.308,12.308,0,0,1,32.664,7.07a12.308,12.308,0,0,1,3.656,7.312M24.437,9.812a7.1,7.1,0,0,1,3.656,1.828A7.1,7.1,0,0,1,29.922,15.3m-17,11.515C.311,14.2,2.1,8.425,3.433,6.564c.171-.3,4.38-6.6,8.892-2.905,11.2,9.224-2.513,8.9,6.426,17.326s8.1-4.774,17.324,6.423c3.7,4.514-2.6,8.723-2.9,8.892C31.311,37.631,25.533,39.424,12.921,26.812Z" transform="translate(-0.955 -1.05)" fill="none" stroke="#0e5f02" stroke-linecap="round" stroke-linejoin="round" stroke-width="2.8"/>
</svg>
