<svg xmlns="http://www.w3.org/2000/svg" xmlns:xlink="http://www.w3.org/1999/xlink" width="27" height="27" viewBox="0 0 27 27">
  <defs>
    <clipPath id="clip-path">
      <path id="Path_41461" data-name="Path 41461" d="M0,0H27V27H0Z" fill="#0e5f02"/>
    </clipPath>
  </defs>
  <g id="copy-svgrepo-com_1_" data-name="copy-svgrepo-com (1)" clip-path="url(#clip-path)">
    <path id="Path_41460" data-name="Path 41460" d="M8.625,5.25h8.769a4.074,4.074,0,0,1,2.167.376,2.562,2.562,0,0,1,1.063,1.063A4.074,4.074,0,0,1,21,8.856v8.769a1.125,1.125,0,0,0,2.25,0V8.769a6.536,6.536,0,0,0-.6-3.467,4.089,4.089,0,0,0-1.7-1.7A6.536,6.536,0,0,0,17.481,3H8.625a1.125,1.125,0,1,0,0,2.25Zm8.686,2.626A4.074,4.074,0,0,0,15.144,7.5H6.606a4.074,4.074,0,0,0-2.167.376A2.556,2.556,0,0,0,3.376,8.939,4.074,4.074,0,0,0,3,11.106v8.539a4.077,4.077,0,0,0,.376,2.167,2.562,2.562,0,0,0,1.063,1.063,4.074,4.074,0,0,0,2.167.376h8.539a4.077,4.077,0,0,0,2.167-.376,2.562,2.562,0,0,0,1.063-1.063,4.074,4.074,0,0,0,.376-2.167V11.106a4.074,4.074,0,0,0-.376-2.167,2.556,2.556,0,0,0-1.063-1.063Z" transform="translate(0.375 0.375)" fill="#0e5f02" fill-rule="evenodd"/>
  </g>
</svg>
