<svg xmlns="http://www.w3.org/2000/svg" width="67" height="67" viewBox="0 0 67 67">
  <g id="Group_56547" data-name="Group 56547" transform="translate(-39 -270)">
    <circle id="Ellipse_764" data-name="Ellipse 764" cx="33.5" cy="33.5" r="33.5" transform="translate(39 270)" fill="#d8d8d8"/>
    <rect id="Rectangle_17626" data-name="Rectangle 17626" width="43" height="42" rx="21" transform="translate(51 283)" fill="#fff"/>
    <g id="setting-material-svgrepo-com" transform="translate(7.297 282)">
      <path id="Path_40387" data-name="Path 40387" d="M222.308,153.979l-2.224-1.323a.413.413,0,0,1-.23-.38l0-2.172a.427.427,0,0,1,.235-.378l2.2-1.316a.716.716,0,0,0,.337-.915l-.655-1.584a.72.72,0,0,0-.887-.408l-2.49.626a.422.422,0,0,1-.431-.1l-1.533-1.536a.425.425,0,0,1-.106-.432l.637-2.51a.719.719,0,0,0-.408-.886L215.166,140a.72.72,0,0,0-.916.337l-1.324,2.226a.43.43,0,0,1-.379.234l-2.171,0a.427.427,0,0,1-.381-.231l-1.315-2.2a.716.716,0,0,0-.915-.338l-1.584.656a.719.719,0,0,0-.408.888l.627,2.488a.422.422,0,0,1-.107.434l-1.531,1.533a.425.425,0,0,1-.435.105l-2.508-.636a.716.716,0,0,0-.887.408l-.657,1.586a.717.717,0,0,0,.336.913l2.228,1.325a.426.426,0,0,1,.232.38v2.171a.43.43,0,0,1-.231.379l-2.2,1.317a.716.716,0,0,0-.339.914l.657,1.586a.725.725,0,0,0,.889.41l2.484-.63a.43.43,0,0,1,.435.106l1.535,1.532a.435.435,0,0,1,.1.433l-.637,2.512a.719.719,0,0,0,.41.886l1.585.657a.718.718,0,0,0,.915-.338L210,159.814a.425.425,0,0,1,.381-.233h2.169a.419.419,0,0,1,.378.232l1.315,2.2a.719.719,0,0,0,.915.338l1.585-.654a.72.72,0,0,0,.41-.888l-.626-2.49a.419.419,0,0,1,.1-.434l1.532-1.533a.431.431,0,0,1,.436-.1l2.508.637a.722.722,0,0,0,.888-.408l.656-1.586A.721.721,0,0,0,222.308,153.979Zm-6.354-.928a4.865,4.865,0,1,1,0-3.722A4.83,4.83,0,0,1,215.954,153.051Z" transform="translate(-139.531 -128.035)" fill="#0e5f02"/>
      <path id="Path_40388" data-name="Path 40388" d="M70.823,36.808H49.936V5.349H70.823v5.1h2.239V3.132A3.14,3.14,0,0,0,69.937,0H50.829A3.136,3.136,0,0,0,47.7,3.132V40.456a3.136,3.136,0,0,0,3.125,3.132H69.937a3.141,3.141,0,0,0,3.125-3.132V35.483H70.823v1.324ZM60.379,40.641a.939.939,0,0,1,0-1.878.939.939,0,1,1,0,1.878Z" transform="translate(0 0)" fill="#0e5f02"/>
    </g>
  </g>
</svg>
