<svg xmlns="http://www.w3.org/2000/svg" width="29.671" height="29.672" viewBox="0 0 29.671 29.672">
  <g id="Group_56580" data-name="Group 56580" transform="translate(-251 -972)">
    <path id="emoji-frown-svgrepo-com" d="M1,14.836A13.836,13.836,0,1,1,14.836,28.672,13.836,13.836,0,0,1,1,14.836Z" transform="translate(251 972)" fill="#0e5f02" stroke="#0e5f02" stroke-width="2" fill-rule="evenodd"/>
    <path id="emoji-frown-svgrepo-com-2" data-name="emoji-frown-svgrepo-com" d="M2.255,4.533A1.258,1.258,0,0,1,.5,4.78,1.27,1.27,0,0,1,.25,3.015,5.785,5.785,0,0,1,.689,2.51,8.74,8.74,0,0,1,1.85,1.5,7.531,7.531,0,0,1,6.284,0a7.531,7.531,0,0,1,4.435,1.5A8.743,8.743,0,0,1,11.88,2.51a5.708,5.708,0,0,1,.441.507v0a1.258,1.258,0,0,1-2.008,1.515l-.006-.007-.043-.052c-.042-.05-.109-.127-.2-.223a6.213,6.213,0,0,0-.824-.718A5.018,5.018,0,0,0,6.284,2.516,5.018,5.018,0,0,0,3.329,3.533a6.219,6.219,0,0,0-.824.718c-.092.1-.16.174-.2.223l-.043.052Z" transform="translate(272.123 994.057) rotate(180)" fill="#f1f1f1" fill-rule="evenodd"/>
    <path id="emoji-laugh-filled-svgrepo-com" d="M431.982,212.408a1.537,1.537,0,1,0-1.537-1.537A1.538,1.538,0,0,0,431.982,212.408Zm9.224,0a1.537,1.537,0,1,0-1.537-1.537A1.538,1.538,0,0,0,441.206,212.408Z" transform="translate(-170.758 771.646)" fill="#f1f1f1" fill-rule="evenodd"/>
  </g>
</svg>
