<svg xmlns="http://www.w3.org/2000/svg" width="34" height="34" viewBox="0 0 34 34">
  <g id="Group_56472" data-name="Group 56472" transform="translate(-32 -237)">
    <g id="Group_56422" data-name="Group 56422" transform="translate(2.68 75.68)">
      <circle id="Ellipse_814" data-name="Ellipse 814" cx="17" cy="17" r="17" transform="translate(29.32 161.32)" fill="#0e5f02"/>
    </g>
    <g id="Group_56423" data-name="Group 56423" transform="translate(-0.663 -0.363)">
      <path id="Path_40450" data-name="Path 40450" d="M169.054,113.38h-6.379a.544.544,0,1,1,0-1.088h6.379a.544.544,0,1,1,0,1.088Z" transform="translate(-118.145 138.734)" fill="#fff"/>
      <path id="Path_40451" data-name="Path 40451" d="M169.054,165.9h-6.379a.544.544,0,1,1,0-1.088h6.379a.544.544,0,1,1,0,1.088Z" transform="translate(-118.145 89.15)" fill="#fff"/>
      <path id="Path_40452" data-name="Path 40452" d="M128.5,5.94l-.306-.3a1.688,1.688,0,0,0-2.35,0l-3.407,3.327V3.314a1.649,1.649,0,0,0-1.666-1.628h-.382V.544a.556.556,0,0,0-1.113,0V1.683h-1.633V.544a.556.556,0,0,0-1.112,0V1.683H114.9V.544A.55.55,0,0,0,114.339,0a.541.541,0,0,0-.546.544V1.683h-1.636V.544a.556.556,0,0,0-1.113,0V1.683h-.379A1.652,1.652,0,0,0,109,3.314v14.6a1.649,1.649,0,0,0,1.666,1.628h10.105a1.649,1.649,0,0,0,1.666-1.628V14.171L128.5,8.244A1.607,1.607,0,0,0,128.5,5.94Zm-7.172,11.973a.549.549,0,0,1-.556.544h-10.1a.549.549,0,0,1-.556-.544V3.314a.549.549,0,0,1,.556-.544h.382V3.91a.556.556,0,0,0,1.113,0V2.771h1.633V3.91a.556.556,0,0,0,1.113,0V2.771h1.633V3.91a.556.556,0,0,0,1.113,0V2.771h1.633V3.91a.556.556,0,0,0,1.113,0V2.771h.382a.549.549,0,0,1,.556.544v6.738l-2.163,2.114h-6.642a.544.544,0,1,0,0,1.088h5.523l-.323.315a.565.565,0,0,0-.158.3l-.188,1.232h-4.855a.544.544,0,1,0,0,1.088h4.713a.526.526,0,0,0,.155.309.57.57,0,0,0,.477.154l2.209-.328a.544.544,0,0,0,.309-.154l.935-.914Zm-1.593-2.632-1.287.19.194-1.258,6.218-6.078,1.09,1.065Zm7.982-7.806-.981.959-1.093-1.065.981-.959a.585.585,0,0,1,.787,0l.306.3A.531.531,0,0,1,127.716,7.475Z" transform="translate(-68 244.738)" fill="#fff"/>
    </g>
  </g>
</svg>
