ma<svg xmlns="http://www.w3.org/2000/svg" xmlns:xlink="http://www.w3.org/1999/xlink" width="358" height="588.654" viewBox="0 0 358 588.654">
  <defs>
    <clipPath id="clip-path">
      <path id="Path_38746" data-name="Path 38746" d="M53.343,99.783h358V590.477h-358Z" transform="translate(-53.343 -99.783)"/>
    </clipPath>
    <clipPath id="clip-path-2">
      <path id="Path_38747" data-name="Path 38747" d="M53.343,99.783h358V688.437h-358Z" transform="translate(-53.343 -99.783)"/>
    </clipPath>
  </defs>
  <g id="OBJECTS" transform="translate(-356.343 -83.783)">
    <g id="Group_54537" data-name="Group 54537" transform="translate(356.343 83.783)">
      <g id="Group_54508" data-name="Group 54508" transform="translate(0 0)" clip-path="url(#clip-path)">
        <rect id="Rectangle_17418" data-name="Rectangle 17418" width="382.921" height="406.359" transform="translate(-10.892 -28)" fill="#f0f0f0"/>
        <g id="Group_54507" data-name="Group 54507" transform="translate(-59.905 -40.13)">
          <g id="Group_54422" data-name="Group 54422" transform="translate(99.968 25.156)">
            <path id="Path_38657" data-name="Path 38657" d="M73.869,144.024a1.208,1.208,0,0,1-1.274-.881c-.075-.543.437-1.03,1.139-1.088l15.559-1.294,1.69-1.04,1.869-1.586,1.318-2.08.246-3.095-2.658-14.991a.506.506,0,0,1-.015-.111l-.273-9.16-.96-10.168a.8.8,0,0,1,.052-.361l.483-1.218a1.142,1.142,0,0,1,.743-.626l2.2-.689a1.605,1.605,0,0,1,.325-.066l45.664-4.343,3.539-.419a1.6,1.6,0,0,1,.747.087l1.578.584a1.337,1.337,0,0,1,.456.282l2.3,2.287,1.822,1.1,1.026.135,7.472-1.111,42.81-3.709a1.238,1.238,0,0,1,1.418.872c.079.542-.427,1.032-1.128,1.093l-42.714,3.7-7.6,1.132a1.7,1.7,0,0,1-.46,0l-1.574-.207a1.482,1.482,0,0,1-.572-.2l-2.2-1.326a1.225,1.225,0,0,1-.223-.172l-2.215-2.2-.947-.352-3.187.376-45.531,4.33-1.474.462-.235.592.943,10.033.279,9.155L96.97,132.79a.676.676,0,0,1,.008.194l-.271,3.39a.786.786,0,0,1-.127.374l-1.513,2.382a.914.914,0,0,1-.2.231L92.8,141.109a1.443,1.443,0,0,1-.146.108L90.6,142.483a1.5,1.5,0,0,1-.662.21l-15.928,1.326C73.96,144.023,73.917,144.024,73.869,144.024Z" transform="translate(-72.588 -90.454)" fill="#fff"/>
          </g>
          <g id="Group_54423" data-name="Group 54423" transform="translate(153.437 56.584)">
            <path id="Path_38658" data-name="Path 38658" d="M99.553,114.094a1.218,1.218,0,0,1-1.27-.859c-.094-.539.4-1.037,1.1-1.109l20.289-2.083a1.262,1.262,0,0,1,1.439.849c.092.539-.4,1.037-1.1,1.109l-20.293,2.083A1.477,1.477,0,0,1,99.553,114.094Z" transform="translate(-98.272 -110.035)" fill="#fff"/>
          </g>
          <g id="Group_54424" data-name="Group 54424" transform="translate(148.659 37.629)">
            <path id="Path_38659" data-name="Path 38659" d="M105.77,137.2h-3.435a1.542,1.542,0,0,1-.656-.141l-2.059-.953a1.118,1.118,0,0,1-.529-.475l-.722-1.369a.594.594,0,0,1-.06-.146l-1.545-5.09-.727-1.721a.808.808,0,0,1-.042-.485l.435-1.8a.987.987,0,0,1,.129-.284L97.772,123a.779.779,0,0,1,.108-.128l2.8-2.87L96.275,99.374c-.115-.539.36-1.046,1.058-1.136a1.286,1.286,0,0,1,1.472.814l4.5,21.042a.833.833,0,0,1-.239.756L99.985,124l-1.07,1.542-.339,1.4.652,1.56,1.551,5.093.525.992,1.389.644h2.981l7.869-.942a1.272,1.272,0,0,1,1.464.825c.106.539-.373,1.043-1.07,1.127l-7.969.953C105.9,137.2,105.835,137.2,105.77,137.2Z" transform="translate(-95.976 -98.225)" fill="#fff"/>
          </g>
          <g id="Group_54425" data-name="Group 54425" transform="translate(246.438 388.532)">
            <path id="Path_38660" data-name="Path 38660" d="M183.444,368.881a1.628,1.628,0,0,1-.35-.037c-.679-.146-1.078-.693-.885-1.218l3.916-10.736,3.073-20.317,3.114-16.895-9.5-.836-36.914,8.5-.3.172-.09.2.2,5.669c.052.542-.479,1.014-1.185,1.054a1.2,1.2,0,0,1-1.37-.912l-.065-.687-.139-5.255a.823.823,0,0,1,.065-.332l.289-.665a1.039,1.039,0,0,1,.46-.486l.816-.457a1.46,1.46,0,0,1,.389-.146l37.377-8.61a1.693,1.693,0,0,1,.51-.032l11.069.976a1.391,1.391,0,0,1,.866.377.829.829,0,0,1,.256.743l-3.3,17.877L188.668,357.2a1.045,1.045,0,0,1-.04.154l-3.947,10.812A1.292,1.292,0,0,1,183.444,368.881Z" transform="translate(-142.945 -316.85)" fill="#fff"/>
          </g>
          <g id="Group_54426" data-name="Group 54426" transform="translate(295.981 378.731)">
            <path id="Path_38661" data-name="Path 38661" d="M195.407,363.658a1.554,1.554,0,0,1-.618-.125.879.879,0,0,1-.5-1.34l.779-1.09,12.008-32.868-.333-5.581-1.959-3.125-2.746-2.794-9.158-2.851-10.105-1.159-1.951.066-1.524.565-3.491,5.054a1.073,1.073,0,0,1-.277.276l-6.653,4.558a1.563,1.563,0,0,1-1.809-.082.84.84,0,0,1,.106-1.395l6.481-4.444,3.579-5.183a1.214,1.214,0,0,1,.579-.429l2.138-.791a1.561,1.561,0,0,1,.5-.095l2.334-.082a1.542,1.542,0,0,1,.244.01l10.376,1.191a1.525,1.525,0,0,1,.294.063L203.32,315a1.3,1.3,0,0,1,.541.321l3.039,3.09a.93.93,0,0,1,.131.165l2.128,3.4a.782.782,0,0,1,.127.384l.356,5.94a.777.777,0,0,1-.044.316l-12.1,33.128a.924.924,0,0,1-.114.207l-.854,1.191A1.386,1.386,0,0,1,195.407,363.658Z" transform="translate(-166.743 -310.743)" fill="#fff"/>
          </g>
          <g id="Group_54427" data-name="Group 54427" transform="translate(366.898 375.292)">
            <path id="Path_38662" data-name="Path 38662" d="M241.961,323.892a1.334,1.334,0,0,1-1.18-.6l-4.32-7.865-.4-.271-.217-.072-18.5,3.724a1.669,1.669,0,0,1-.618,0l-6.081-1.109a1.525,1.525,0,0,1-.462-.164l-4.32-2.435a1.093,1.093,0,0,1-.275-.21l-4.538-4.711a.856.856,0,0,1,.269-1.385,1.549,1.549,0,0,1,1.792.207l4.418,4.594,3.955,2.226,5.517,1.01,18.613-3.745a1.61,1.61,0,0,1,.829.047l.81.268a1.373,1.373,0,0,1,.343.165l.766.526a1.034,1.034,0,0,1,.329.353l4.434,8.072c.279.5-.027,1.083-.677,1.3A1.569,1.569,0,0,1,241.961,323.892Z" transform="translate(-200.808 -308.601)" fill="#fff"/>
          </g>
          <g id="Group_54428" data-name="Group 54428" transform="translate(358.659 383.341)">
            <path id="Path_38663" data-name="Path 38663" d="M198.133,334.308a1.308,1.308,0,0,1-1.205-.652c-.239-.512.1-1.079.764-1.265l34-9.534,14.115-3.916,16.421-5.252a1.454,1.454,0,0,1,1.678.533c.269.506-.04,1.083-.7,1.3l-16.475,5.268-14.171,3.931-33.994,9.531A1.64,1.64,0,0,1,198.133,334.308Z" transform="translate(-196.851 -313.616)" fill="#fff"/>
          </g>
          <g id="Group_54429" data-name="Group 54429" transform="translate(388.027 261.798)">
            <path id="Path_38664" data-name="Path 38664" d="M212.238,258.468a1.315,1.315,0,0,1-1.2-.648c-.242-.512.1-1.079.766-1.266l33.109-9.338-.433-1.183-2.96-6.841c-.225-.52.139-1.08.81-1.249a1.382,1.382,0,0,1,1.62.624l2.979,6.884.774,2.111c.183.5-.162,1.019-.793,1.2l-34.227,9.654A1.723,1.723,0,0,1,212.238,258.468Z" transform="translate(-210.958 -237.89)" fill="#fff"/>
          </g>
          <g id="Group_54430" data-name="Group 54430" transform="translate(313.745 176.923)">
            <path id="Path_38665" data-name="Path 38665" d="M197.309,220.189a1.365,1.365,0,0,1-1.157-.56l-20.747-33.2a.9.9,0,0,1,.6-1.319,1.467,1.467,0,0,1,1.709.462l20.749,33.2a.906.906,0,0,1-.6,1.319A1.666,1.666,0,0,1,197.309,220.189Z" transform="translate(-175.276 -185.01)" fill="#fff"/>
          </g>
          <g id="Group_54431" data-name="Group 54431" transform="translate(383.591 261.798)">
            <path id="Path_38666" data-name="Path 38666" d="M210.107,248.87a1.294,1.294,0,0,1-1.214-.676c-.225-.515.137-1.075.81-1.249l34.928-9a1.393,1.393,0,0,1,1.62.621c.225.518-.135,1.08-.806,1.252l-34.93,9.006A1.758,1.758,0,0,1,210.107,248.87Z" transform="translate(-208.827 -237.89)" fill="#fff"/>
          </g>
          <g id="Group_54432" data-name="Group 54432" transform="translate(414.217 305.667)">
            <path id="Path_38667" data-name="Path 38667" d="M235.878,297.087a1.309,1.309,0,0,1-1.191-.629l-11.059-21.766c-.26-.506.062-1.08.722-1.281l26.811-8.12a1.431,1.431,0,0,1,1.663.557c.258.509-.067,1.083-.727,1.282l-25.619,7.76,10.59,20.846c.258.506-.067,1.08-.724,1.281A1.566,1.566,0,0,1,235.878,297.087Z" transform="translate(-223.539 -265.222)" fill="#fff"/>
          </g>
          <g id="Group_54433" data-name="Group 54433" transform="translate(323.748 156.423)">
            <path id="Path_38668" data-name="Path 38668" d="M201.107,186.374a1.37,1.37,0,0,1-1.122-.512l-8.075-11.319-9.959,3.948a1.48,1.48,0,0,1-1.726-.425.891.891,0,0,1,.554-1.331l11.067-4.388a1.492,1.492,0,0,1,1.711.4l8.675,12.16a.883.883,0,0,1-.506,1.342A1.617,1.617,0,0,1,201.107,186.374Z" transform="translate(-180.081 -172.238)" fill="#fff"/>
          </g>
          <g id="Group_54434" data-name="Group 54434" transform="translate(351.657 180.204)">
            <path id="Path_38669" data-name="Path 38669" d="M214.54,199.512a1.361,1.361,0,0,1-1.157-.559L211.6,196.11l-4.784,2.144a1.616,1.616,0,0,1-1.076.075l-5.425-1.5a1.385,1.385,0,0,1-.439-.207l-2.088-1.5a.991.991,0,0,1-.327-.377l-1.22-2.513-2.6-3.722a.887.887,0,0,1,.518-1.339,1.5,1.5,0,0,1,1.738.4l2.642,3.782a.981.981,0,0,1,.073.124l1.143,2.358,1.676,1.2,4.615,1.279,5.463-2.451a1.635,1.635,0,0,1,1.022-.09,1.245,1.245,0,0,1,.777.514l2.386,3.8a.9.9,0,0,1-.593,1.319A1.581,1.581,0,0,1,214.54,199.512Z" transform="translate(-193.487 -187.054)" fill="#fff"/>
          </g>
          <g id="Group_54435" data-name="Group 54435" transform="translate(341.019 267.842)">
            <path id="Path_38670" data-name="Path 38670" d="M209.3,299.934a1.3,1.3,0,0,1-1.212-.669l-19.648-44.542c-.223-.509.119-1.063.768-1.245l41.353-11.762a1.419,1.419,0,0,1,1.647.584c.244.512-.1,1.083-.76,1.27L191.272,255l19.244,43.628c.229.515-.129,1.08-.8,1.252A1.533,1.533,0,0,1,209.3,299.934Z" transform="translate(-188.377 -241.655)" fill="#fff"/>
          </g>
          <g id="Group_54436" data-name="Group 54436" transform="translate(370.193 271.306)">
            <path id="Path_38671" data-name="Path 38671" d="M210.312,259.558a1.318,1.318,0,0,1-1.2-.64l-6.639-13.768c-.246-.514.089-1.08.751-1.274a1.414,1.414,0,0,1,1.647.584l6.2,12.845,10.6-3.021a1.416,1.416,0,0,1,1.647.583c.246.512-.094,1.08-.756,1.27l-11.8,3.361A1.7,1.7,0,0,1,210.312,259.558Z" transform="translate(-202.391 -243.814)" fill="#fff"/>
          </g>
          <g id="Group_54437" data-name="Group 54437" transform="translate(367.004 385.406)">
            <path id="Path_38672" data-name="Path 38672" d="M210,347.983h-2.3a1.621,1.621,0,0,1-.57-.1l-1.784-.69a1.1,1.1,0,0,1-.66-.612l-3.776-10.218a.79.79,0,0,1-.048-.315l.069-1.191a.927.927,0,0,1,.45-.709l2.475-1.619a1.321,1.321,0,0,1,.35-.161l55.973-17.391a1.435,1.435,0,0,1,1.67.547c.264.507-.054,1.083-.712,1.287l-55.78,17.33-1.89,1.236-.033.6L207,345.619l1.01.387h1.742l21.018-6.756a1.449,1.449,0,0,1,1.678.535c.273.5-.04,1.082-.691,1.294L210.5,347.908A1.627,1.627,0,0,1,210,347.983Z" transform="translate(-200.86 -314.902)" fill="#fff"/>
          </g>
          <g id="Group_54438" data-name="Group 54438" transform="translate(215.954 48.057)">
            <path id="Path_38673" data-name="Path 38673" d="M140.233,110.24h-.021l-4.328-.051-4.37-.162a1.564,1.564,0,0,1-.391-.063l-1.992-.581c-.662-.193-1-.762-.745-1.273a1.423,1.423,0,0,1,1.651-.575l1.8.525,4.124.154,4.157.048,7.9-1.128,4.474-1.247,3.527-1.095a1.434,1.434,0,0,1,1.668.549c.264.506-.054,1.08-.712,1.284l-3.566,1.107-4.619,1.287a1.3,1.3,0,0,1-.2.042l-8.129,1.162A1.487,1.487,0,0,1,140.233,110.24Z" transform="translate(-128.302 -104.722)" fill="#fff"/>
          </g>
          <g id="Group_54439" data-name="Group 54439" transform="translate(191.233 50.807)">
            <path id="Path_38674" data-name="Path 38674" d="M117.707,112.224a1.224,1.224,0,0,1-1.266-.841c-.1-.541.377-1.043,1.078-1.124l20.824-2.414,3.533-1.311a1.463,1.463,0,0,1,1.709.461.9.9,0,0,1-.6,1.319l-3.71,1.377a1.638,1.638,0,0,1-.366.087L117.9,112.215Q117.8,112.224,117.707,112.224Z" transform="translate(-116.427 -106.435)" fill="#fff"/>
          </g>
          <g id="Group_54440" data-name="Group 54440" transform="translate(121.802 63.621)">
            <path id="Path_38675" data-name="Path 38675" d="M84.357,119.413a1.222,1.222,0,0,1-1.268-.849c-.1-.539.389-1.04,1.087-1.117l27.29-3.017a1.256,1.256,0,0,1,1.449.838c.1.539-.385,1.042-1.085,1.119L84.538,119.4A1.752,1.752,0,0,1,84.357,119.413Z" transform="translate(-83.076 -114.419)" fill="#fff"/>
          </g>
          <g id="Group_54441" data-name="Group 54441" transform="translate(206.348 27.032)">
            <path id="Path_38676" data-name="Path 38676" d="M134.58,117.375a1.449,1.449,0,0,1-1.022-.387l-1.368-1.379a1,1,0,0,1-.181-.25L131.341,114l-3.949-6.062a.913.913,0,0,1-.115-.265L123.709,92.79c-.129-.536.331-1.051,1.026-1.151a1.3,1.3,0,0,1,1.493.791l3.537,14.746,3.9,5.98a.61.61,0,0,1,.052.093l.627,1.27,1.257,1.265a.849.849,0,0,1-.239,1.385A1.525,1.525,0,0,1,134.58,117.375Z" transform="translate(-123.688 -91.623)" fill="#fff"/>
          </g>
          <g id="Group_54442" data-name="Group 54442" transform="translate(371.338 221.896)">
            <path id="Path_38677" data-name="Path 38677" d="M205.618,241.5a2.739,2.739,0,0,1-2.513-1.355c-.508-1.069.206-2.252,1.593-2.644l23.424-6.611,25.3-8.194,31.333-9.521a2.981,2.981,0,0,1,3.47,1.16c.541,1.059-.131,2.258-1.509,2.676l-31.277,9.5-25.306,8.194c-.042.013-.075.024-.117.035l-23.483,6.627A3.292,3.292,0,0,1,205.618,241.5Z" transform="translate(-202.941 -213.03)" fill="#fff"/>
          </g>
          <g id="Group_54443" data-name="Group 54443" transform="translate(350.939 325.696)">
            <path id="Path_38678" data-name="Path 38678" d="M208.559,310.15a3.392,3.392,0,0,1-1.02-.157c-1.364-.435-2.015-1.64-1.451-2.7l.042-.074-5.488-10.669L193.3,280.446c-.491-1.072.241-2.25,1.634-2.627a2.938,2.938,0,0,1,3.41,1.258l7.313,16.033,5.85,11.369a1.64,1.64,0,0,1-.015,1.549l-.452.844A2.79,2.79,0,0,1,208.559,310.15Z" transform="translate(-193.143 -277.701)" fill="#fff"/>
          </g>
          <g id="Group_54444" data-name="Group 54444" transform="translate(27.666 387.318)">
            <path id="Path_38679" data-name="Path 38679" d="M40.532,379.251a3.085,3.085,0,0,1-1.984-.676,1.752,1.752,0,0,1,.187-2.913l32.185-22.49a1.324,1.324,0,0,1,.156-.1l45.466-27.194.169-.265.012-.562-.643-1.716-1.9-4.542c-.454-1.083.316-2.247,1.724-2.6a2.9,2.9,0,0,1,3.366,1.331l1.926,4.6.774,2.077a1.612,1.612,0,0,1,.106.608l-.031,1.319a1.688,1.688,0,0,1-.264.855l-.691,1.112a2.288,2.288,0,0,1-.77.737l-45.889,27.44L42.325,378.715A3.131,3.131,0,0,1,40.532,379.251Z" transform="translate(-37.857 -316.094)" fill="#fff"/>
          </g>
          <g id="Group_54445" data-name="Group 54445" transform="translate(122.18 294.651)">
            <path id="Path_38680" data-name="Path 38680" d="M85.93,267.473a2.486,2.486,0,0,1-2.667-1.92c-.1-1.138,1.016-2.122,2.49-2.2l10.143-.525,39.885-4.449a2.647,2.647,0,0,1,3.029,1.746c.214,1.127-.8,2.173-2.265,2.335L96.56,266.922c-.069.008-.133.014-.206.018l-10.245.53C86.051,267.473,85.992,267.473,85.93,267.473Z" transform="translate(-83.257 -258.359)" fill="#fff"/>
          </g>
          <g id="Group_54446" data-name="Group 54446" transform="translate(44.971 300.677)">
            <path id="Path_38681" data-name="Path 38681" d="M127.361,270.87c-.04,0-.081,0-.121,0l-17.015-.584L89,269.113l-40.4-2.889c-1.472-.1-2.552-1.109-2.417-2.242s1.449-1.96,2.91-1.86l40.349,2.886,21.1,1.165,16.942.579c1.474.05,2.619,1.011,2.554,2.149A2.472,2.472,0,0,1,127.361,270.87Z" transform="translate(-46.17 -262.113)" fill="#fff"/>
          </g>
          <g id="Group_54447" data-name="Group 54447" transform="translate(114.228 272.979)">
            <path id="Path_38682" data-name="Path 38682" d="M101.462,311.287a2.649,2.649,0,0,1-2.584-1.546l-10.1-29.985c-.017-.05-.031-.1-.044-.146l-1.295-5.618L79.505,247.38c-.329-1.109.566-2.217,2.007-2.47a2.768,2.768,0,0,1,3.206,1.547l7.952,26.661a.906.906,0,0,1,.027.1l1.289,5.594,1.108,3.375L104.05,308.7c.377,1.1-.483,2.226-1.913,2.513A3.223,3.223,0,0,1,101.462,311.287Z" transform="translate(-79.437 -244.856)" fill="#fff"/>
          </g>
          <g id="Group_54448" data-name="Group 54448" transform="translate(218.336 315.743)">
            <path id="Path_38683" data-name="Path 38683" d="M140.5,333.014c-.062,0-.129,0-.191,0l-3.849-.218a3.272,3.272,0,0,1-1.255-.319l-2.611-1.3a2.322,2.322,0,0,1-1.008-.913l-1.924-3.414a1.679,1.679,0,0,1-.221-.846l.035-2.3a1.755,1.755,0,0,1,.4-1.059l3.643-4.531a2.363,2.363,0,0,1,.489-.451l3.26-2.247a2.434,2.434,0,0,1,.285-.169l5.631-2.937a2.934,2.934,0,0,1,.416-.178l6.133-2.088c.083-.029.169-.051.256-.075l5.427-1.358,53.835-13.3,54.535-13.721,8.246-2.6,25.789-7.356a2.963,2.963,0,0,1,3.437,1.22c.512,1.069-.2,2.254-1.582,2.65l-25.708,7.329-8.25,2.6a1.336,1.336,0,0,1-.181.05L210.9,299.221l-59.129,14.63-5.787,1.969-5.286,2.757-2.835,1.958-3.05,3.788-.017,1.287,1.37,2.438,1.355.673,2.906.164,10.311-.969,10.709-1.932a2.771,2.771,0,0,1,3.214,1.538c.337,1.106-.558,2.218-1.994,2.475l-10.85,1.96c-.1.018-.191.029-.285.037L140.821,333C140.723,333.01,140.613,333.014,140.5,333.014Z" transform="translate(-129.446 -271.5)" fill="#fff"/>
          </g>
          <g id="Group_54449" data-name="Group 54449" transform="translate(238.484 141.291)">
            <path id="Path_38684" data-name="Path 38684" d="M191.468,249.521a2.93,2.93,0,0,1-2.263-.963l-7.965-9.73a1.587,1.587,0,0,1-.119-.164l-5.248-7.916c-.04-.061-.075-.122-.108-.185l-8.683-17.03-6.533-11.569-7.2-13.071L141.62,170.885a1.879,1.879,0,0,1-.148-.271l-2.209-5.086c-.468-1.08.289-2.247,1.69-2.61a2.911,2.911,0,0,1,3.383,1.3l2.146,4.948L158.164,187.1a1.258,1.258,0,0,1,.073.12l7.226,13.115,6.558,11.622,8.673,17,5.13,7.743,7.9,9.653a1.806,1.806,0,0,1-.831,2.844A3.223,3.223,0,0,1,191.468,249.521Z" transform="translate(-139.124 -162.81)" fill="#fff"/>
          </g>
          <g id="Group_54450" data-name="Group 54450" transform="translate(259.69 154.233)">
            <path id="Path_38685" data-name="Path 38685" d="M151.988,198.327a2.864,2.864,0,0,1-2.377-1.112,1.862,1.862,0,0,1,1.141-2.78L182.029,181.9,209.66,171.1a3.086,3.086,0,0,1,3.593.905c.668,1.014.144,2.255-1.174,2.772l-27.609,10.8-31.254,12.523A3.318,3.318,0,0,1,151.988,198.327Z" transform="translate(-149.311 -170.873)" fill="#fff"/>
          </g>
          <g id="Group_54451" data-name="Group 54451" transform="translate(186.448 69.722)">
            <path id="Path_38686" data-name="Path 38686" d="M132.127,188.757a2.7,2.7,0,0,1-2.55-1.443l-15.324-37.6a1.631,1.631,0,0,1-.1-.9l.3-1.68a1.876,1.876,0,0,1,.566-1.014l1.615-1.541a2.722,2.722,0,0,1,1.026-.6l14.56-4.813,54.358-20.731a3.083,3.083,0,0,1,3.585.934c.658,1.021.112,2.257-1.21,2.762l-54.426,20.755-.131.047-14.019,4.635-.733.7-.114.655,15.143,37.158c.443,1.087-.341,2.244-1.751,2.586A3.389,3.389,0,0,1,132.127,188.757Z" transform="translate(-114.129 -118.22)" fill="#fff"/>
          </g>
          <g id="Group_54452" data-name="Group 54452" transform="translate(213.459 164.446)">
            <path id="Path_38687" data-name="Path 38687" d="M129.778,194.506a2.8,2.8,0,0,1-2.45-1.236c-.591-1.043.027-2.258,1.378-2.716l39.007-13.145a3.024,3.024,0,0,1,3.52,1.064c.591,1.043-.027,2.26-1.378,2.716l-39.009,13.145A3.326,3.326,0,0,1,129.778,194.506Z" transform="translate(-127.103 -177.236)" fill="#fff"/>
          </g>
          <g id="Group_54453" data-name="Group 54453" transform="translate(213.059 189.202)">
            <path id="Path_38688" data-name="Path 38688" d="M129.584,204.731a2.462,2.462,0,0,1-2.671-1.984c-.054-1.138,1.1-2.095,2.571-2.138l23.389-.679L161,198.8l6.814-1.684,13.977-4.31a2.982,2.982,0,0,1,3.472,1.149c.552,1.058-.119,2.258-1.489,2.68l-14.063,4.335c-.056.018-.121.034-.177.05l-7.074,1.748a3.372,3.372,0,0,1-.339.066l-8.487,1.181c-.123.016-.248.027-.377.032l-23.576.685C129.653,204.731,129.617,204.731,129.584,204.731Z" transform="translate(-126.911 -192.66)" fill="#fff"/>
          </g>
          <g id="Group_54454" data-name="Group 54454" transform="translate(213.829 223.879)">
            <path id="Path_38689" data-name="Path 38689" d="M129.954,230.869a2.439,2.439,0,0,1-2.673-2.04,2.414,2.414,0,0,1,2.646-2.083l18.453-.143,20.837-1.119,25.24-7.542,8.59-3.444a3.1,3.1,0,0,1,3.606.878c.683,1.01.173,2.255-1.137,2.78l-8.721,3.5a2.789,2.789,0,0,1-.269.093l-25.752,7.695a3.629,3.629,0,0,1-.781.135l-21.318,1.144c-.052,0-.108,0-.158,0l-18.534.144Z" transform="translate(-127.281 -214.265)" fill="#fff"/>
          </g>
          <g id="Group_54455" data-name="Group 54455" transform="translate(213.137 206.231)">
            <path id="Path_38690" data-name="Path 38690" d="M129.623,217.619a2.451,2.451,0,0,1-2.673-2.01c-.04-1.138,1.128-2.085,2.6-2.115l28.533-.563,32.391-9.526a2.974,2.974,0,0,1,3.452,1.191c.527,1.064-.167,2.255-1.545,2.661l-32.822,9.651a3.3,3.3,0,0,1-.883.133l-28.987.573A.371.371,0,0,1,129.623,217.619Z" transform="translate(-126.949 -203.27)" fill="#fff"/>
          </g>
          <g id="Group_54456" data-name="Group 54456" transform="translate(293.825 49.657)">
            <path id="Path_38691" data-name="Path 38691" d="M231.166,200.773a3.345,3.345,0,0,1-.633-.059l-1.266-.238a2.925,2.925,0,0,1-1.337-.607l-1.17-.981a2.3,2.3,0,0,1-.45-.512l-5.13-8.325L213.3,178.688l-17.652-26.474-29.63-43.474a1.856,1.856,0,0,1,1.124-2.783,3.1,3.1,0,0,1,3.612.865l29.641,43.492,17.643,26.458,7.9,11.378a.6.6,0,0,1,.056.088l4.986,8.086.237.2.766-.2,42.167-15.861a3.074,3.074,0,0,1,3.577.949c.647,1.022.1,2.258-1.23,2.757l-42.325,15.92c-.1.037-.212.072-.319.1l-1.826.474A3.323,3.323,0,0,1,231.166,200.773Z" transform="translate(-165.708 -105.719)" fill="#fff"/>
          </g>
          <g id="Group_54457" data-name="Group 54457" transform="translate(208.033 146.378)">
            <path id="Path_38692" data-name="Path 38692" d="M127.174,181.947a2.82,2.82,0,0,1-2.421-1.185c-.631-1.03-.054-2.26,1.28-2.745l32.661-11.842a3.057,3.057,0,0,1,3.558.989c.629,1.03.054,2.258-1.282,2.743L128.311,181.75A3.3,3.3,0,0,1,127.174,181.947Z" transform="translate(-124.497 -165.98)" fill="#fff"/>
          </g>
          <g id="Group_54458" data-name="Group 54458" transform="translate(255.59 37.393)">
            <path id="Path_38693" data-name="Path 38693" d="M150.018,131.889a2.916,2.916,0,0,1-2.275-.979,1.812,1.812,0,0,1,.866-2.838l11.179-5.324,20.889-9.685c.054-.026.112-.05.167-.072l6.014-2.351,22.036-12.176a3.213,3.213,0,0,1,3.731.475,1.779,1.779,0,0,1-.616,2.876l-22.2,12.269a3.1,3.1,0,0,1-.35.164l-6.108,2.388-20.778,9.633-11.148,5.313A3.3,3.3,0,0,1,150.018,131.889Z" transform="translate(-147.341 -98.078)" fill="#fff"/>
          </g>
          <g id="Group_54459" data-name="Group 54459" transform="translate(208.036 158.221)">
            <path id="Path_38694" data-name="Path 38694" d="M132.926,260.623h-.017c-1.48-.006-2.667-.937-2.658-2.074l.04-5-.691-19.835-.079-19.355.4-19.36-5.356-19.139c-.312-1.112.6-2.21,2.046-2.451a2.746,2.746,0,0,1,3.177,1.579l5.427,19.37a1.694,1.694,0,0,1,.058.467l-.4,19.557.079,19.267.691,19.856-.037,5.072A2.437,2.437,0,0,1,132.926,260.623Z" transform="translate(-124.499 -173.358)" fill="#fff"/>
          </g>
          <g id="Group_54460" data-name="Group 54460" transform="translate(66.029 34.533)">
            <path id="Path_38695" data-name="Path 38695" d="M164.639,312.159h-.062c-1.474-.026-2.646-.969-2.611-2.107l1.276-43.282-.931-15.824-1.08-13.336-1.074-3.351-2.146-4.366-6.458-9.308-2.309-2.2-5-4L125.8,201.918l-.083-.058-21.37-15.709a2.258,2.258,0,0,1-.412-.385l-9.52-11.545-5.55-5.326-12.435-10.3L65.912,149.63a2.191,2.191,0,0,1-.4-.438l-3.728-5.579-5.069-6a1.7,1.7,0,0,1-.425-1.292l1.382-13.155a1.787,1.787,0,0,1,.031-.183l2.939-13.161c.006-.03.012-.061.021-.09l1.921-6.78a1.752,1.752,0,0,1,.171-.4l2.925-5.037a3.033,3.033,0,0,1,3.531-1.038c1.349.465,1.955,1.684,1.349,2.724l-2.813,4.844L65.9,110.571,63,123.6l-1.3,12.36,4.649,5.5a2.171,2.171,0,0,1,.135.181l3.631,5.433,10.259,8.744,12.476,10.333c.044.037.087.074.129.114l5.7,5.473a2.182,2.182,0,0,1,.173.185l9.426,11.43,21.093,15.5,18.491,12.492c.056.039.115.079.167.122l5.152,4.131c.052.042.1.085.152.132l2.542,2.419a2.054,2.054,0,0,1,.279.326l6.662,9.6a2.1,2.1,0,0,1,.139.242l2.263,4.608a1.464,1.464,0,0,1,.1.234l1.17,3.65a1.862,1.862,0,0,1,.073.364l1.1,13.559.937,15.93c0,.047,0,.093,0,.141l-1.278,43.349A2.438,2.438,0,0,1,164.639,312.159Z" transform="translate(-56.284 -96.296)" fill="#fff"/>
          </g>
          <g id="Group_54461" data-name="Group 54461" transform="translate(59.07 102.622)">
            <path id="Path_38696" data-name="Path 38696" d="M172.587,171.968a2.9,2.9,0,0,1-2.321-1.035L162.2,160.105l-3.487-2.693-4.324-2.652-16.18-5.083-26.528-5.563-8.2-1.254-4.032.23-4.143.759-12.183,3.615L76,149.364l-19.523,5.13a2.922,2.922,0,0,1-3.4-1.286c-.477-1.079.269-2.25,1.67-2.618l26.526-7,12.264-3.642a2.983,2.983,0,0,1,.344-.082l4.526-.83a3.356,3.356,0,0,1,.423-.05l4.6-.263a3.372,3.372,0,0,1,.718.034l8.652,1.323c.06.01.123.019.183.032l26.776,5.616a2.8,2.8,0,0,1,.306.08l16.688,5.241a2.921,2.921,0,0,1,.656.3l4.746,2.912a2.214,2.214,0,0,1,.227.157l3.843,2.969a2.133,2.133,0,0,1,.425.43l8.246,11.064a1.832,1.832,0,0,1-.989,2.815A3.282,3.282,0,0,1,172.587,171.968Z" transform="translate(-52.942 -138.718)" fill="#fff"/>
          </g>
          <g id="Group_54462" data-name="Group 54462" transform="translate(102.704 180.615)">
            <path id="Path_38697" data-name="Path 38697" d="M94.216,279.939a2.721,2.721,0,0,1-2.529-1.395l-.71-1.6a1.553,1.553,0,0,1-.075-.189l-4.6-14.949a1.41,1.41,0,0,1-.054-.239l-.931-6.208c-.006-.04-.012-.083-.017-.125l-.945-13.614-.781-14.408-1.357-11.12-2.248-10.33-3.72-13.888-.443-.457-.591-.268a1.825,1.825,0,0,1-.943-2.823,3.155,3.155,0,0,1,3.664-.729l1.055.48a2.577,2.577,0,0,1,.783.543l1.132,1.168a1.89,1.89,0,0,1,.483.844l.722,2.9L85.225,205l2.286,10.486c.012.05.019.1.027.148l1.374,11.248a.932.932,0,0,1,.008.109l.781,14.437.941,13.524.908,6.025,4.534,14.729.666,1.506c.479,1.079-.266,2.249-1.665,2.621A3.73,3.73,0,0,1,94.216,279.939Z" transform="translate(-73.902 -187.31)" fill="#fff"/>
          </g>
          <g id="Group_54463" data-name="Group 54463" transform="translate(67.652 120.835)">
            <path id="Path_38698" data-name="Path 38698" d="M59.736,165.551a2.609,2.609,0,0,1-2.613-1.636c-.308-1.114.616-2.209,2.059-2.444l20.071-3.284,18.33-3.314,5.948-4.257a3.257,3.257,0,0,1,3.776.108,1.75,1.75,0,0,1-.139,2.913l-6.468,4.629a3.008,3.008,0,0,1-1.205.5L80.421,162.21l-20.127,3.3A3.675,3.675,0,0,1,59.736,165.551Z" transform="translate(-57.065 -150.065)" fill="#fff"/>
          </g>
          <g id="Group_54464" data-name="Group 54464" transform="translate(110.688 145.537)">
            <path id="Path_38699" data-name="Path 38699" d="M115.23,277.681a2.584,2.584,0,0,1-2.629-1.7l-.562-2.395a1.12,1.12,0,0,1-.031-.183l-.77-6.635-2.8-38.788-11.4-23.593L85.19,184.523a1.707,1.707,0,0,1-.1-.189L77.883,168.19c-.481-1.077.262-2.25,1.659-2.621a2.922,2.922,0,0,1,3.4,1.279L90.1,182.9l11.831,19.843c.027.045.052.093.077.14l11.575,23.957a1.663,1.663,0,0,1,.167.605l2.817,39.032.752,6.471.541,2.3c.262,1.12-.7,2.192-2.157,2.395A2.936,2.936,0,0,1,115.23,277.681Z" transform="translate(-77.737 -165.455)" fill="#fff"/>
          </g>
          <g id="Group_54465" data-name="Group 54465" transform="translate(9.758 202.922)">
            <path id="Path_38700" data-name="Path 38700" d="M91.228,223.256l-.1,0-18.576-.539-.115-.006-40.724-2.566c-1.472-.095-2.567-1.088-2.448-2.225a2.561,2.561,0,0,1,2.885-1.888L72.811,218.6l17.92.52,12.555-4.122,6.393-3.144a3.171,3.171,0,0,1,.529-.2l22.048-6.171a3.37,3.37,0,0,1,.743-.119l30.3-1.488,31.566-2.65a2.607,2.607,0,0,1,2.948,1.827c.16,1.133-.9,2.149-2.371,2.273l-31.622,2.655c-.04,0-.079.006-.123.008l-29.978,1.472-21.413,5.993-6.333,3.115a2.931,2.931,0,0,1-.391.159l-13.313,4.369A3.4,3.4,0,0,1,91.228,223.256Z" transform="translate(-29.255 -201.208)" fill="#fff"/>
          </g>
          <g id="Group_54466" data-name="Group 54466" transform="translate(48.79 77.887)">
            <path id="Path_38701" data-name="Path 38701" d="M94.757,232.254a2.792,2.792,0,0,1-2.446-1.234l-7.322-12.861-.8-.894a1.986,1.986,0,0,1-.312-.472l-3.256-7.041L73.8,194.335l-6.72-13.842L65.5,177.988a1.5,1.5,0,0,1-.123-.222l-6.937-15.216-9.364-20.132a1.012,1.012,0,0,1-.071-.173l-.739-2.178a1.6,1.6,0,0,1-.083-.392l-.169-2.064a1.306,1.306,0,0,1,0-.255l.169-2.144a1.353,1.353,0,0,1,.035-.223l.581-2.621a1.927,1.927,0,0,1,.052-.186l.991-2.833a1.629,1.629,0,0,1,.1-.234l1.174-2.247a1.954,1.954,0,0,1,.15-.244l1.665-2.27a3.136,3.136,0,0,1,3.643-.78,1.837,1.837,0,0,1,1.012,2.809l-1.576,2.149-1.051,2.008-.912,2.619-.537,2.416-.152,1.9.144,1.737.643,1.9,9.331,20.058,6.895,15.113,1.578,2.485a2.063,2.063,0,0,1,.1.183l6.795,13.993,6.839,15.445,3.125,6.762.741.833a1.788,1.788,0,0,1,.239.337l6.493,11.4,7.6-1.621a2.834,2.834,0,0,1,3.289,1.438c.4,1.1-.441,2.234-1.863,2.536l-9.836,2.1A3.067,3.067,0,0,1,94.757,232.254Z" transform="translate(-48.004 -123.307)" fill="#fff"/>
          </g>
          <g id="Group_54467" data-name="Group 54467" transform="translate(139.025 334.067)">
            <path id="Path_38702" data-name="Path 38702" d="M114.176,320.97a3.355,3.355,0,0,1-1.237-.233,2.273,2.273,0,0,1-1.341-1.278l-.837-2.318L91.605,285.861c-.631-1.034-.058-2.262,1.276-2.748a3.061,3.061,0,0,1,3.558.984L115.7,315.54a1.884,1.884,0,0,1,.158.329l.129.364.112-.032,11.254-4.637a3.1,3.1,0,0,1,3.618.844,1.851,1.851,0,0,1-1.1,2.79l-11.433,4.712a2.881,2.881,0,0,1-.373.125l-3,.815A3.46,3.46,0,0,1,114.176,320.97Z" transform="translate(-91.349 -282.916)" fill="#fff"/>
          </g>
          <g id="Group_54468" data-name="Group 54468" transform="translate(85.449 161.684)">
            <path id="Path_38703" data-name="Path 38703" d="M68.288,187.628a2.7,2.7,0,0,1-2.546-1.435c-.452-1.085.327-2.244,1.73-2.591l32.455-7.988a2.89,2.89,0,0,1,3.36,1.337c.452,1.085-.327,2.245-1.73,2.591L69.1,187.532A3.533,3.533,0,0,1,68.288,187.628Z" transform="translate(-65.613 -175.516)" fill="#fff"/>
          </g>
          <g id="Group_54469" data-name="Group 54469" transform="translate(48.542 232.753)">
            <path id="Path_38704" data-name="Path 38704" d="M83.226,226.3l-.11,0-32.67-1.064c-1.476-.048-2.623-1.01-2.559-2.148s1.266-2.018,2.783-1.973l32.484,1.059,31.758-2.372a2.562,2.562,0,0,1,2.919,1.854c.142,1.132-.933,2.143-2.4,2.25l-31.945,2.387C83.4,226.3,83.315,226.3,83.226,226.3Z" transform="translate(-47.885 -219.794)" fill="#fff"/>
          </g>
          <g id="Group_54470" data-name="Group 54470" transform="translate(46.554 252.575)">
            <path id="Path_38705" data-name="Path 38705" d="M49.605,237.141A2.438,2.438,0,0,1,46.93,235.1c-.012-1.14,1.174-2.071,2.65-2.08l38.13-.262,30.3-.612c1.526-.032,2.706.872,2.744,2.008s-1.128,2.087-2.606,2.115l-30.348.61-38.174.263Z" transform="translate(-46.93 -232.143)" fill="#fff"/>
          </g>
          <g id="Group_54471" data-name="Group 54471" transform="translate(279.434 227.374)">
            <path id="Path_38706" data-name="Path 38706" d="M163.813,224.867a2.791,2.791,0,0,1-2.469-1.263L159,219.3c-.57-1.051.067-2.26,1.43-2.7a3.009,3.009,0,0,1,3.5,1.1l2.34,4.3c.568,1.051-.069,2.257-1.43,2.7A3.343,3.343,0,0,1,163.813,224.867Z" transform="translate(-158.795 -216.443)" fill="#fff"/>
          </g>
          <g id="Group_54472" data-name="Group 54472" transform="translate(232.361 236.216)">
            <path id="Path_38707" data-name="Path 38707" d="M139.031,230.165a2.456,2.456,0,0,1-2.671-2l-.175-4.09c-.048-1.138,1.11-2.091,2.584-2.128,1.526-.027,2.717.855,2.76,2l.175,4.091c.048,1.136-1.11,2.09-2.583,2.125C139.087,230.165,139.06,230.165,139.031,230.165Z" transform="translate(-136.183 -221.952)" fill="#fff"/>
          </g>
          <g id="Group_54473" data-name="Group 54473" transform="translate(286.644 93.151)">
            <path id="Path_38708" data-name="Path 38708" d="M164.935,153.888a2.915,2.915,0,0,1-2.3-1,1.821,1.821,0,0,1,.924-2.826l36.819-16.948a3.156,3.156,0,0,1,3.666.713,1.821,1.821,0,0,1-.924,2.826L166.3,153.6A3.27,3.27,0,0,1,164.935,153.888Z" transform="translate(-162.258 -132.817)" fill="#fff"/>
          </g>
          <g id="Group_54474" data-name="Group 54474" transform="translate(384.979 312.93)">
            <path id="Path_38709" data-name="Path 38709" d="M212.165,276.679a2.567,2.567,0,0,1-2.636-1.727c-.237-1.124.749-2.183,2.209-2.367l3.8-.482,14.021-2.31a2.748,2.748,0,0,1,3.173,1.581c.31,1.114-.612,2.21-2.053,2.448l-14.085,2.321a1.29,1.29,0,0,1-.129.021l-3.86.486A2.846,2.846,0,0,1,212.165,276.679Z" transform="translate(-209.494 -269.747)" fill="#fff"/>
          </g>
          <g id="Group_54475" data-name="Group 54475" transform="translate(253.68 235.072)">
            <path id="Path_38710" data-name="Path 38710" d="M151.412,228.741a2.865,2.865,0,0,1-2.369-1.1l-2.311-3.379a1.855,1.855,0,0,1,1.118-2.783,3.107,3.107,0,0,1,3.614.864l2.311,3.379a1.855,1.855,0,0,1-1.118,2.785A3.361,3.361,0,0,1,151.412,228.741Z" transform="translate(-146.424 -221.239)" fill="#fff"/>
          </g>
          <g id="Group_54476" data-name="Group 54476" transform="translate(74.192 376.14)">
            <path id="Path_38711" data-name="Path 38711" d="M62.881,341.164A2.982,2.982,0,0,1,60.7,340.3a1.782,1.782,0,0,1,.635-2.875l28.6-15.651.042-.061.044-.2-1.468-10.086c-.169-1.13.889-2.149,2.359-2.278a2.6,2.6,0,0,1,2.956,1.82l1.511,10.364a1.5,1.5,0,0,1-.019.554l-.169.819a1.74,1.74,0,0,1-.281.644l-.55.795a2.357,2.357,0,0,1-.812.713L64.43,340.785A3.27,3.27,0,0,1,62.881,341.164Z" transform="translate(-60.206 -309.129)" fill="#fff"/>
          </g>
          <g id="Group_54477" data-name="Group 54477" transform="translate(87.72 128.909)">
            <path id="Path_38712" data-name="Path 38712" d="M75.839,178.949a2.711,2.711,0,0,1-2.538-1.414l-1.193-2.775a.906.906,0,0,1-.04-.1l-1.4-3.926c-.008-.029-.017-.058-.027-.085l-3.868-13.028c-.331-1.109.568-2.215,2.009-2.47a2.772,2.772,0,0,1,3.206,1.549l3.855,12.985,1.364,3.833.4.937.575-.1,13.534-2.563a2.794,2.794,0,0,1,3.235,1.51c.354,1.106-.525,2.223-1.957,2.494L76.447,178.9A3.414,3.414,0,0,1,75.839,178.949Z" transform="translate(-66.704 -155.095)" fill="#fff"/>
          </g>
          <g id="Group_54478" data-name="Group 54478" transform="translate(105.609 181.62)">
            <path id="Path_38713" data-name="Path 38713" d="M77.97,195.6a2.591,2.591,0,0,1-2.625-1.677c-.275-1.119.677-2.2,2.128-2.411l24.172-3.544a2.714,2.714,0,0,1,3.127,1.64c.277,1.119-.674,2.2-2.126,2.411l-24.174,3.544A3.565,3.565,0,0,1,77.97,195.6Z" transform="translate(-75.297 -187.936)" fill="#fff"/>
          </g>
          <g id="Group_54479" data-name="Group 54479" transform="translate(257.893 50.156)">
            <path id="Path_38714" data-name="Path 38714" d="M160,121.752a2.909,2.909,0,0,1-2.3-1.014l-8.877-11.6a1.827,1.827,0,0,1,.947-2.823,3.152,3.152,0,0,1,3.662.729l8.875,11.6a1.824,1.824,0,0,1-.943,2.822A3.291,3.291,0,0,1,160,121.752Z" transform="translate(-148.448 -106.03)" fill="#fff"/>
          </g>
          <g id="Group_54480" data-name="Group 54480" transform="translate(277.327 38.831)">
            <path id="Path_38715" data-name="Path 38715" d="M170.761,116.351a2.919,2.919,0,0,1-2.3-1l-10.3-13.254a1.821,1.821,0,0,1,.92-2.828,3.16,3.16,0,0,1,3.668.708l10.3,13.254a1.821,1.821,0,0,1-.92,2.828A3.3,3.3,0,0,1,170.761,116.351Z" transform="translate(-157.783 -98.973)" fill="#fff"/>
          </g>
          <g id="Group_54481" data-name="Group 54481" transform="translate(333.436 75.414)">
            <path id="Path_38716" data-name="Path 38716" d="M195.071,170.071a2.922,2.922,0,0,1-2.277-.979,1.813,1.813,0,0,1,.868-2.838l14.289-6.8-.006-.021-4.059-5.4-6.549-7.627-11.81-13.653a1.83,1.83,0,0,1-.414-.815l-.343-1.64a1.636,1.636,0,0,1,.094-.96l.685-1.64a2.087,2.087,0,0,1,.741-.892l6.393-4.5a3.264,3.264,0,0,1,3.781.132,1.754,1.754,0,0,1-.173,2.913l-5.869,4.13-.271.648.15.709,18.089,20.968c.029.034.056.069.083.1l4.326,5.749a1.8,1.8,0,0,1,.31.639l.233.926a1.433,1.433,0,0,1,.052.4v.711a1.71,1.71,0,0,1-.306.958l-.227.334a2.406,2.406,0,0,1-.962.8l-15.426,7.345A3.25,3.25,0,0,1,195.071,170.071Z" transform="translate(-184.735 -121.766)" fill="#fff"/>
          </g>
          <g id="Group_54482" data-name="Group 54482" transform="translate(372.787 202.023)">
            <path id="Path_38717" data-name="Path 38717" d="M206.312,228.266a2.8,2.8,0,0,1-2.446-1.229c-.6-1.043.015-2.26,1.366-2.719l27.053-9.215,39.606-14.261a3.063,3.063,0,0,1,3.558,1c.622,1.032.048,2.26-1.293,2.741L234.5,218.857l-27.107,9.234A3.37,3.37,0,0,1,206.312,228.266Z" transform="translate(-203.637 -200.648)" fill="#fff"/>
          </g>
          <g id="Group_54483" data-name="Group 54483" transform="translate(361.18 182.556)">
            <path id="Path_38718" data-name="Path 38718" d="M208.373,224.984a2.8,2.8,0,0,1-2.463-1.25l-7.222-12.991a1.716,1.716,0,0,1-.181-.49l-.412-2.013a1.632,1.632,0,0,1,.154-1.085l.843-1.637a2.134,2.134,0,0,1,.731-.793l3.552-2.385a2.807,2.807,0,0,1,.564-.292L238.482,188.8a3.342,3.342,0,0,1,1.133-.215l4.151-.067a3.309,3.309,0,0,1,.987.128l2.3.66a2.783,2.783,0,0,1,1.091.583l1.3,1.159a2.111,2.111,0,0,1,.466.587l7.719,14.949c.547,1.058-.123,2.257-1.495,2.679a2.986,2.986,0,0,1-3.475-1.152l-7.555-14.625-.556-.5-1.185-.337-3.041.05-33.7,12.922-2.8,1.883-.335.647.244,1.2,7.093,12.754c.581,1.046-.048,2.26-1.405,2.708A3.475,3.475,0,0,1,208.373,224.984Z" transform="translate(-198.062 -188.52)" fill="#fff"/>
          </g>
          <g id="Group_54484" data-name="Group 54484" transform="translate(284.748 312.188)">
            <path id="Path_38719" data-name="Path 38719" d="M183.524,317.359a2.736,2.736,0,0,1-2.509-1.352l-7.957-16.7L161.48,271.989c-.458-1.083.308-2.247,1.713-2.6a2.9,2.9,0,0,1,3.372,1.316l11.546,27.254,7.927,16.63c.508,1.069-.2,2.25-1.588,2.644A3.271,3.271,0,0,1,183.524,317.359Z" transform="translate(-161.347 -269.285)" fill="#fff"/>
          </g>
          <g id="Group_54485" data-name="Group 54485" transform="translate(329.696 354.019)">
            <path id="Path_38720" data-name="Path 38720" d="M185.615,309.847a2.75,2.75,0,0,1-2.5-1.324c-.529-1.061.162-2.253,1.541-2.661l32.68-9.661.487-.334a3.25,3.25,0,0,1,3.772.173,1.749,1.749,0,0,1-.225,2.908l-.849.579a2.763,2.763,0,0,1-.814.384l-33.138,9.8A3.314,3.314,0,0,1,185.615,309.847Z" transform="translate(-182.939 -295.347)" fill="#fff"/>
          </g>
          <g id="Group_54486" data-name="Group 54486" transform="translate(248.28 341.727)">
            <path id="Path_38721" data-name="Path 38721" d="M146.505,320.254a2.71,2.71,0,0,1-2.544-1.43c-.456-1.083.312-2.244,1.717-2.6l43.091-10.775,12.872-3.247c.09-.024.181-.04.271-.058l7.024-1.165,46.616-13.168a2.952,2.952,0,0,1,3.431,1.226c.51,1.069-.2,2.254-1.591,2.647L210.6,304.9a3.345,3.345,0,0,1-.358.082l-7.074,1.172-12.745,3.218-43.1,10.778A3.315,3.315,0,0,1,146.505,320.254Z" transform="translate(-143.83 -287.689)" fill="#fff"/>
          </g>
          <g id="Group_54487" data-name="Group 54487" transform="translate(378.007 231.405)">
            <path id="Path_38722" data-name="Path 38722" d="M208.818,251.207a2.746,2.746,0,0,1-2.5-1.334c-.518-1.069.179-2.257,1.561-2.656l46.578-13.5-2.148-4.659-3.791-7.271c-.552-1.056.112-2.257,1.484-2.68a2.994,2.994,0,0,1,3.479,1.143l3.828,7.348,3.071,6.647c.487,1.061-.212,2.226-1.58,2.621l-49.037,14.213A3.356,3.356,0,0,1,208.818,251.207Z" transform="translate(-206.145 -218.954)" fill="#fff"/>
          </g>
          <g id="Group_54488" data-name="Group 54488" transform="translate(358.154 199.319)">
            <path id="Path_38723" data-name="Path 38723" d="M199.283,221.505a2.729,2.729,0,0,1-2.527-1.388c-.481-1.077.258-2.25,1.653-2.623l10.565-2.818,46.69-15.542a3.021,3.021,0,0,1,3.516,1.074c.585,1.046-.04,2.258-1.395,2.711L211,218.494c-.06.021-.123.039-.183.056l-10.661,2.841A3.349,3.349,0,0,1,199.283,221.505Z" transform="translate(-196.608 -198.964)" fill="#fff"/>
          </g>
          <g id="Group_54489" data-name="Group 54489" transform="translate(240.59 323.996)">
            <path id="Path_38724" data-name="Path 38724" d="M144.689,309.513a2.493,2.493,0,0,1-2.661-1.9l-1.884-18.132a1.621,1.621,0,0,1,.044-.575l.314-1.191a1.961,1.961,0,0,1,.7-1.029l1.166-.923a2.83,2.83,0,0,1,1.049-.515l30.8-8.158.108-.027,1.478-.34a3.467,3.467,0,0,1,1.653.034l1.753.475a2.468,2.468,0,0,1,1.636,1.266l8.125,17.954c.485,1.072-.248,2.25-1.645,2.624a2.919,2.919,0,0,1-3.4-1.266l-7.648-16.891-.375.085-30.134,7.985-.177.14-.083.311,1.857,17.842c.117,1.138-.981,2.128-2.454,2.221C144.835,309.51,144.762,309.513,144.689,309.513Z" transform="translate(-140.136 -276.642)" fill="#fff"/>
          </g>
          <g id="Group_54490" data-name="Group 54490" transform="translate(384.98 305.542)">
            <path id="Path_38725" data-name="Path 38725" d="M212.169,279.464a3.1,3.1,0,0,1-1.928-.631,1.75,1.75,0,0,1,.073-2.915l13.777-10.2a3.258,3.258,0,0,1,3.781.058,1.748,1.748,0,0,1-.079,2.915l-13.771,10.2A3.138,3.138,0,0,1,212.169,279.464Z" transform="translate(-209.495 -265.144)" fill="#fff"/>
          </g>
          <g id="Group_54491" data-name="Group 54491" transform="translate(368.814 214.895)">
            <path id="Path_38726" data-name="Path 38726" d="M208.056,218.728a2.821,2.821,0,0,1-2.417-1.18l-3.651-5.935c-.633-1.029-.065-2.26,1.268-2.746a3.066,3.066,0,0,1,3.564.979l3.654,5.935c.631,1.029.06,2.258-1.272,2.748A3.314,3.314,0,0,1,208.056,218.728Z" transform="translate(-201.729 -208.668)" fill="#fff"/>
          </g>
          <g id="Group_54492" data-name="Group 54492" transform="translate(159.179 367.997)">
            <path id="Path_38727" data-name="Path 38727" d="M110.4,320.281a2.941,2.941,0,0,1-2.255-.952l-6.451-7.759a1.8,1.8,0,0,1-.4-.846l-.241-1.456a1.411,1.411,0,0,1-.023-.265v-2.886c0-1.14,1.2-2.062,2.673-2.062s2.675.923,2.675,2.063v2.754l.144.865,6.125,7.37a1.8,1.8,0,0,1-.81,2.847A3.255,3.255,0,0,1,110.4,320.281Z" transform="translate(-101.03 -304.056)" fill="#fff"/>
          </g>
          <g id="Group_54493" data-name="Group 54493" transform="translate(275.589 146.096)">
            <path id="Path_38728" data-name="Path 38728" d="M175,188.864a2.884,2.884,0,0,1-2.35-1.074l-6.518-9.2-8.7-9.542a1.784,1.784,0,0,1,.647-2.873,3.215,3.215,0,0,1,3.728.5l8.787,9.638a1.918,1.918,0,0,1,.158.2l6.589,9.3a1.847,1.847,0,0,1-1.066,2.8A3.309,3.309,0,0,1,175,188.864Z" transform="translate(-156.948 -165.803)" fill="#fff"/>
          </g>
          <g id="Group_54494" data-name="Group 54494" transform="translate(106.794 125.46)">
            <path id="Path_38729" data-name="Path 38729" d="M82.438,177.148a2.574,2.574,0,0,1-2.633-1.717l-2.85-12.994a1.008,1.008,0,0,1-.021-.109l-1.049-7.085c-.169-1.132.887-2.154,2.352-2.282a2.6,2.6,0,0,1,2.962,1.815L82.24,161.8l2.837,12.938c.248,1.122-.735,2.186-2.192,2.377A3.2,3.2,0,0,1,82.438,177.148Z" transform="translate(-75.867 -152.947)" fill="#fff"/>
          </g>
          <g id="Group_54495" data-name="Group 54495" transform="translate(98.061 244.55)">
            <path id="Path_38730" data-name="Path 38730" d="M91.783,325.195a6.806,6.806,0,0,1-.722-.04l-15.208-1.746c-2.677-.308-4.528-2.234-4.126-4.3s2.894-3.483,5.571-3.181l14.789,1.7,7.42-.136,9.251-1.239,5.1-1.141,16.311-4.176,9.643-2.871,3.177-2.621.81-26.159-.7-48.317c-.031-2.087,2.138-3.8,4.844-3.822h.056c2.686,0,4.874,1.664,4.9,3.738l.708,48.379c0,.043,0,.088,0,.132l-.851,27.669a3.39,3.39,0,0,1-1.322,2.493l-5.225,4.3a5.142,5.142,0,0,1-1.809.941l-10.8,3.218c-.073.024-.146.043-.221.064l-16.515,4.224c-.058.016-.119.03-.179.043l-5.442,1.218c-.175.037-.354.069-.529.093l-9.876,1.323a6.313,6.313,0,0,1-.722.055l-8.2.149C91.862,325.19,91.824,325.195,91.783,325.195Z" transform="translate(-71.672 -227.144)" fill="#fff"/>
          </g>
          <g id="Group_54496" data-name="Group 54496" transform="translate(224.768)">
            <path id="Path_38731" data-name="Path 38731" d="M327.424,236.032a4.967,4.967,0,0,1-4.453-2.324l-16.2-31.253-22.4-40.121-29.453-25.454-31.346-19.7-19.785-10.7-7.728-3.229-11.854-3.533c-.11-.034-.219-.071-.327-.108l-48.608-17.8c-2.39-.875-3.408-3.078-2.271-4.921s3.991-2.626,6.383-1.753l48.443,17.737,11.97,3.568a5.044,5.044,0,0,1,.556.2l8.242,3.443c.16.069.314.143.468.225l20.156,10.9c.1.051.187.1.277.16l31.772,19.967a4.268,4.268,0,0,1,.552.4l30.224,26.12a3.652,3.652,0,0,1,.824,1L315.6,199.578c.019.03.031.059.048.09l16.219,31.3c.983,1.9-.212,4.045-2.669,4.8A6.069,6.069,0,0,1,327.424,236.032Z" transform="translate(-132.536 -74.781)" fill="#fff"/>
          </g>
          <g id="Group_54497" data-name="Group 54497" transform="translate(0 313.76)">
            <path id="Path_38732" data-name="Path 38732" d="M167.226,349.131a5.012,5.012,0,0,1-4.388-2.21l-2.713-4.77-7.64-13.067-4.091-6.178-5.71-8.138-7.792-7.47c-.035-.032-.067-.064-.1-.1l-10.28-10.574L119.24,295l-7.367-2.071-26.734-5.882-15.441-3.6-30.865-5.5-2.2,1.3-3.323,3.741a5.735,5.735,0,0,1-6.66.961c-2.184-1.151-2.742-3.452-1.247-5.136l3.751-4.223a4.289,4.289,0,0,1,1.03-.841l4.6-2.725a5.934,5.934,0,0,1,4-.669l33.223,5.921c.106.018.206.037.306.061l15.526,3.623,26.828,5.9c.11.024.219.051.327.082l7.59,2.136c.042.01.085.024.129.035l6.591,2.024a4.849,4.849,0,0,1,2.059,1.215l11.042,11.359,8.017,7.682a4.038,4.038,0,0,1,.479.557l5.941,8.473a.428.428,0,0,1,.052.079l4.17,6.293c.037.055.071.107.1.164l7.709,13.185,2.731,4.8c1.062,1.87-.042,4.045-2.467,4.867A5.967,5.967,0,0,1,167.226,349.131Z" transform="translate(-24.567 -270.264)" fill="#fff"/>
          </g>
          <g id="Group_54498" data-name="Group 54498" transform="translate(107.136 344.787)">
            <path id="Path_38733" data-name="Path 38733" d="M80.83,312.95c-.164,0-.331-.008-.5-.021-2.631-.207-4.547-2.024-4.276-4.053l2.128-15.965c.271-2.03,2.623-3.5,5.254-3.3s4.549,2.024,4.278,4.05l-2.128,15.969C85.335,311.534,83.255,312.95,80.83,312.95Z" transform="translate(-76.031 -289.595)" fill="#fff"/>
          </g>
          <g id="Group_54499" data-name="Group 54499" transform="translate(398.421 283.427)">
            <path id="Path_38734" data-name="Path 38734" d="M220.744,282.634a4.924,4.924,0,0,1-4.488-2.4c-.926-1.915.333-4.042,2.812-4.753l58.247-16.76,25.279-7.128c2.486-.7,5.238.286,6.143,2.2s-.371,4.037-2.852,4.738l-25.25,7.117L222.419,282.4A6.127,6.127,0,0,1,220.744,282.634Z" transform="translate(-215.951 -251.366)" fill="#fff"/>
          </g>
          <g id="Group_54500" data-name="Group 54500" transform="translate(347.642 167.468)">
            <path id="Path_38735" data-name="Path 38735" d="M196.353,217.017a5.262,5.262,0,0,1-4.039-1.7c-1.426-1.719-.774-4,1.455-5.1l20.273-10c.05-.026.1-.05.154-.074L259.5,179.628a5.638,5.638,0,0,1,6.556,1.316c1.341,1.759.575,4.022-1.7,5.054l-45.227,20.476-20.2,9.959A5.824,5.824,0,0,1,196.353,217.017Z" transform="translate(-191.559 -179.119)" fill="#fff"/>
          </g>
          <g id="Group_54501" data-name="Group 54501" transform="translate(4.055 242.709)">
            <path id="Path_38736" data-name="Path 38736" d="M31.3,278.729a4.8,4.8,0,0,1-4.6-2.668c-.733-1.963.733-4.009,3.275-4.578l10.192-2.268,17.762-3.727c.067-.013.137-.027.208-.035l10.99-1.908a6.494,6.494,0,0,1,1.049-.088H83.431l24.686-.156,10.278-1.324,5.635-1.244,6.064-2.4,6.5-3.029,5.8-3.663,18.767-12.513a4.859,4.859,0,0,1,.668-.372l9.687-4.478a5.932,5.932,0,0,1,.672-.26l11.021-3.414c.185-.058.375-.106.568-.146l11.733-2.387,4.7-1.141a6.452,6.452,0,0,1,1.055-.161l12.222-.762c2.644-.159,4.948,1.353,5.161,3.383s-1.753,3.817-4.388,3.98l-11.685.727-4.293,1.043-.217.048-11.556,2.35-10.392,3.223-9,4.162-18.5,12.335-.1.064-6.116,3.862a5.2,5.2,0,0,1-.558.3l-6.932,3.233c-.1.043-.194.085-.291.125l-6.633,2.624a5.78,5.78,0,0,1-.87.265l-6.352,1.4a4.848,4.848,0,0,1-.527.093l-10.915,1.409a6.5,6.5,0,0,1-.752.047l-25.1.161H70.711l-10.365,1.8-17.585,3.69-10.124,2.25A6.028,6.028,0,0,1,31.3,278.729Z" transform="translate(-26.515 -225.997)" fill="#fff"/>
          </g>
          <g id="Group_54502" data-name="Group 54502" transform="translate(207.949 197.979)">
            <path id="Path_38737" data-name="Path 38737" d="M129.243,249.3c-2.527,0-4.64-1.528-4.78-3.5-.137-2.035,1.886-3.775,4.532-3.886l29.058-1.191,11.075-.668,8.111-1.183,5-1.353,14.933-4.163,21.869-7.041,3.828-1.711L249.3,208.376c.048-.031.1-.059.146-.087l16.656-9.442a5.773,5.773,0,0,1,6.7.788c1.568,1.644,1.11,3.956-1.022,5.165l-16.581,9.4-26.632,16.352a4.848,4.848,0,0,1-.581.3l-4.413,1.973a5.116,5.116,0,0,1-.575.22l-6.218,1.974-16,5.18c-.075.024-.15.047-.223.067l-15.091,4.208-5.386,1.456a6.334,6.334,0,0,1-.693.143l-8.723,1.271c-.171.026-.343.043-.516.053l-11.4.689-.121.006-29.118,1.2C129.416,249.295,129.333,249.3,129.243,249.3Z" transform="translate(-124.457 -198.129)" fill="#fff"/>
          </g>
          <g id="Group_54503" data-name="Group 54503" transform="translate(224.771 0.001)">
            <path id="Path_38738" data-name="Path 38738" d="M348.107,462.648a4.987,4.987,0,0,1-4.426-2.274l-.889-1.642-1.343-2.274c-.023-.037-.044-.075-.062-.112l-6.021-11.2c-.019-.031-.033-.061-.048-.088l-2.486-5L308.94,391.2l-2.313-3.876c-.031-.051-.058-.1-.09-.157l-1.782-3.4c-.025-.047-.048-.095-.073-.146l-16.557-35.812c-.019-.04-.038-.082-.052-.122L283.925,337.6l-6.614-13.185a.608.608,0,0,1-.042-.093l-13.186-28.5c-.023-.056-.048-.111-.071-.168l-5.381-13.683-5.152-7.415L224.785,232.8l-61.111-84.44-1.867-2.706-14.09-20.074a3.136,3.136,0,0,1-.344-.612l-8.793-20.755a3.157,3.157,0,0,1-.2-.69l-.412-2.558L136.515,94.3,133.54,83.1c-.006-.03-.017-.059-.023-.088l-.9-3.886c-.47-2.008,1.264-3.929,3.868-4.289s5.094.974,5.563,2.982l.9,3.841,2.981,11.216c.008.043.023.087.031.13l1.484,6.815c.01.051.023.1.029.154l.371,2.282,8.517,20.1,15.738,22.469,61.117,84.448,31.235,45.449,2.848,4.054a3.392,3.392,0,0,1,.373.689l5.49,13.954L286.28,321.8l6.643,13.246c.037.071.071.144.1.217l4.164,10.129,16.494,35.677,1.7,3.247,2.338,3.913c.046.082.092.161.131.244l23.939,48.962,2.457,4.928,5.964,11.094,1.339,2.271c.021.035.042.071.058.106l.918,1.7c1.018,1.884-.135,4.048-2.577,4.834A6.188,6.188,0,0,1,348.107,462.648Z" transform="translate(-132.537 -74.781)" fill="#fff"/>
          </g>
          <g id="Group_54504" data-name="Group 54504" transform="translate(103.44 372.944)">
            <path id="Path_38739" data-name="Path 38739" d="M110.757,322.051a5.7,5.7,0,0,1-2.871-.737l-5.9-3.419-3.645-1.215-4.667-.777L86,315.4c-.11-.006-.219-.016-.329-.03l-7.365-.886c-2.615-.313-4.4-2.2-3.995-4.22s2.848-3.391,5.473-3.08l7.2.867,7.8.515c.2.014.4.037.6.071l5.429.9a6.219,6.219,0,0,1,.893.221l4.6,1.534a5.345,5.345,0,0,1,.974.437l6.354,3.677c2.119,1.226,2.546,3.541.956,5.173A5.373,5.373,0,0,1,110.757,322.051Z" transform="translate(-74.255 -307.138)" fill="#fff"/>
          </g>
          <g id="Group_54505" data-name="Group 54505" transform="translate(105.902 355.931)">
            <path id="Path_38740" data-name="Path 38740" d="M91.316,320.236c-.164,0-.329-.008-.491-.021l-5.627-.448a5.745,5.745,0,0,1-1.934-.486l-3.468-1.57a4.34,4.34,0,0,1-1.78-1.412L76.4,314.025a3.212,3.212,0,0,1-.548-1.294l-.343-2.013a2.884,2.884,0,0,1-.044-.445l-.029-2.247a2.9,2.9,0,0,1,.233-1.178l1.237-2.936a4.156,4.156,0,0,1,2.427-2.17l12.591-4.822c2.369-.9,5.248-.159,6.422,1.668s.21,4.045-2.163,4.953L85.4,307.669l-.371.883.019,1.424.189,1.107.552.772,1.428.645,3.641.289,3.466-.8,4.13-3.066a5.841,5.841,0,0,1,6.774.1,3.134,3.134,0,0,1-.129,5.224l-4.965,3.684a5.24,5.24,0,0,1-1.951.876l-5.492,1.27A6.074,6.074,0,0,1,91.316,320.236Z" transform="translate(-75.438 -296.538)" fill="#fff"/>
          </g>
          <g id="Group_54506" data-name="Group 54506" transform="translate(186.678 241.801)">
            <path id="Path_38741" data-name="Path 38741" d="M118.971,233.686c-2.488,0-4.576-1.5-4.724-3.44-.152-2.013,1.842-3.738,4.453-3.854l21.328-.955c2.621-.112,4.853,1.42,5,3.435s-1.842,3.74-4.453,3.854l-21.326.955C119.156,233.684,119.064,233.686,118.971,233.686Z" transform="translate(-114.239 -225.431)" fill="#fff"/>
          </g>
        </g>
        <path id="Path_38742" data-name="Path 38742" d="M118.8,249.173l-4.557,66.234,43.682,2.123,45.231-9.723-3.1-10.2,64.569-14.251-7.361-12.765,37.31-15.519-20.951-42.5-57.57,26.368Z" transform="translate(12.534 -31.54)" fill="#daedd9"/>
        <path id="Path_38743" data-name="Path 38743" d="M121.636,146.979l11.752,32.186,65.606-16.094-23.843-36.247Z" transform="translate(20.536 -83.422)" fill="#e6e6e6"/>
        <path id="Path_38744" data-name="Path 38744" d="M112.427,176.562v76.915l25.127-.438,1.524-58.21L131.6,174.88Z" transform="translate(10.574 -54.346)" fill="#e6e6e6"/>
        <path id="Path_38772" data-name="Path 38772" d="M0,0,11.763.312l.85,41.443L.85,41.443Z" transform="translate(124.437 298.334) rotate(-84.848)" fill="#e6e6e6"/>
        <path id="Path_38773" data-name="Path 38773" d="M0,0,11.767.312l.61,29.694L.61,29.694Z" transform="translate(123.036 312.915) rotate(-84.842)" fill="#e6e6e6"/>
        <path id="Path_38774" data-name="Path 38774" d="M0,0,22.243,2.315,24.12,18.107,1.877,15.792Z" transform="translate(242.19 73.376) rotate(-29.557)" fill="#e6e6e6"/>
        <path id="Path_38775" data-name="Path 38775" d="M0,0,24.524,2.61l1.913,15.855L1.913,15.855Z" transform="matrix(0.862, -0.508, 0.508, 0.862, 224.909, 50.299)" fill="#e6e6e6"/>
        <path id="Path_38745" data-name="Path 38745" d="M190.736,177.926l54.776-18.492,14.752,28.212-48.843,21.37Z" transform="translate(95.288 -63.691)" fill="#e6e6e6"/>
      </g>
      <g id="Group_54512" data-name="Group 54512" transform="translate(0 0)" clip-path="url(#clip-path-2)">
        <path id="Path_38750" data-name="Path 38750" d="M182.239,267.42c-30.942,0-.493,47.322-.493,47.322S215.624,267.42,182.239,267.42Zm0,20.2c-4.3,0-7.785-3.222-7.785-7.2s3.487-7.2,7.785-7.2,7.788,3.222,7.788,7.2S186.543,287.618,182.239,287.618Z" transform="translate(-3.655 -27.722)" fill="#8edb7c"/>
      </g>
      <g id="Group_54514" data-name="Group 54514" transform="translate(0 0)" clip-path="url(#clip-path-2)">
        <path id="Path_38754" data-name="Path 38754" d="M204.121,346.2,346.965,378.1l17.947-14.782L318.644,239.888l-3.612-3.148-42.054,30.413-46.838,18.4-49.707,3.861-38.159,2.89.951-51.551-2.617-36.9s-6.9-17.381-12.37-23.1L81.132,143.626" transform="translate(-23.281 -59.208)" fill="none" stroke="#7ecdd9" stroke-width="1"/>
      </g>
      <g id="Group_54527" data-name="Group 54527" transform="translate(0 0)" clip-path="url(#clip-path-2)">
        <rect id="Rectangle_17431" data-name="Rectangle 17431" width="126.431" height="24.061" transform="translate(126.684 212.328)" fill="#8edb7c"/>
      </g>
      <g id="Group_54528" data-name="Group 54528" transform="translate(0 0)" clip-path="url(#clip-path-2)">
        <text id="Liberty_Residence" data-name="Liberty Residence" transform="translate(145.061 228.737)" fill="#fff" font-size="10" font-family="Montserrat" font-weight="300"><tspan x="0" y="0">Liberty Residence</tspan></text>
      </g>
      <g id="Group_54530" data-name="Group 54530" transform="translate(0 0)" clip-path="url(#clip-path-2)">
        <text id="Centre_Point" data-name="Centre Point" transform="translate(47.363 57.053)" fill="#fff" font-size="3" font-family="Montserrat" font-weight="300"><tspan x="0" y="0">Centre Point</tspan></text>
      </g>
    </g>
  </g>
</svg>
