<svg xmlns="http://www.w3.org/2000/svg" xmlns:xlink="http://www.w3.org/1999/xlink" width="34" height="34" viewBox="0 0 34 34">
  <defs>
    <clipPath id="clip-path">
      <path id="Path_40491" data-name="Path 40491" d="M126,204h16.287v6H126Zm0,0" transform="translate(-126 -204)" fill="#fff" stroke="#fff" stroke-width="0.1"/>
    </clipPath>
    <clipPath id="clip-path-2">
      <path id="Path_40504" data-name="Path 40504" d="M130,125.531h15.228v1.916H130Zm0,0" transform="translate(-130 -125.531)" fill="#fff" stroke="#fff" stroke-width="0.1"/>
    </clipPath>
    <clipPath id="clip-path-3">
      <path id="Path_40506" data-name="Path 40506" d="M112.5,222h8.011v3.612H112.5Zm0,0" transform="translate(-112.5 -222)" fill="#fff" stroke="#fff" stroke-width="0.1"/>
    </clipPath>
    <clipPath id="clip-path-4">
      <path id="Path_40508" data-name="Path 40508" d="M202,222h8.011v3.612H202Zm0,0" transform="translate(-202 -222)" fill="#fff" stroke="#fff" stroke-width="0.1"/>
    </clipPath>
  </defs>
  <g id="Group_56474" data-name="Group 56474" transform="translate(-32 -383)">
    <g id="Group_56430" data-name="Group 56430" transform="translate(2.68 221.68)">
      <circle id="Ellipse_814" data-name="Ellipse 814" cx="17" cy="17" r="17" transform="translate(29.32 161.32)" fill="#0e5f02"/>
    </g>
    <g id="Farm_Flow_3_" data-name="Farm Flow(3)" transform="translate(-73.432 265.775)">
      <g id="Group_56431" data-name="Group 56431" transform="translate(114.288 135.921)" clip-path="url(#clip-path)">
        <path id="Path_40490" data-name="Path 40490" d="M137.4,210.779h-5.171a.224.224,0,1,1,0-.449H137.4a.224.224,0,1,1,0,.449ZM142.624,207a.225.225,0,0,1-.224-.224v-1.624a.225.225,0,0,1,.449,0v1.624A.225.225,0,0,1,142.624,207Zm-15.629-.054a.225.225,0,0,1-.225-.224v-1.57a.225.225,0,0,1,.449,0v1.57A.225.225,0,0,1,126.995,206.941Zm0,0" transform="translate(-126.668 -204.8)" fill="#fff" stroke="#fff" stroke-width="0.1"/>
      </g>
      <path id="Path_40492" data-name="Path 40492" d="M135.484,196.451H118.89a.9.9,0,1,1,0-1.81h16.594a.9.9,0,1,1,0,1.81ZM118.89,195.09a.456.456,0,1,0,0,.913h16.594a.456.456,0,1,0,0-.913Zm0,0" transform="translate(-4.758 -59.959)" fill="#fff" stroke="#fff" stroke-width="0.1"/>
      <path id="Path_40493" data-name="Path 40493" d="M131.688,156.76a.225.225,0,0,1-.225-.224v-5.851a.225.225,0,0,1,.449,0v5.851A.225.225,0,0,1,131.688,156.76Zm-1.127,0a.225.225,0,0,1-.225-.224v-5.264a.225.225,0,0,1,.449,0v5.264A.224.224,0,0,1,130.561,156.76Zm0,0" transform="translate(-15.474 -21.629)" fill="#fff" stroke="#fff" stroke-width="0.1"/>
      <path id="Path_40494" data-name="Path 40494" d="M234.082,156.76a.225.225,0,0,1-.225-.224v-5.264a.225.225,0,0,1,.45,0v5.264A.225.225,0,0,1,234.082,156.76Zm-1.127,0a.225.225,0,0,1-.225-.224v-5.851a.225.225,0,0,1,.45,0v5.851A.225.225,0,0,1,232.955,156.76Zm0,0" transform="translate(-104.31 -21.629)" fill="#fff" stroke="#fff" stroke-width="0.1"/>
      <path id="Path_40495" data-name="Path 40495" d="M123.381,139.416a1.279,1.279,0,0,1-1.279-1.277v-1.379a.224.224,0,0,1,.224-.224h2.108a.224.224,0,1,1,0,.448h-1.883v1.155a.829.829,0,0,0,1.659,0,.225.225,0,0,1,.45,0A1.28,1.28,0,0,1,123.381,139.416Zm0,0" transform="translate(-8.331 -9.547)" fill="#fff" stroke="#fff" stroke-width="0.1"/>
      <path id="Path_40496" data-name="Path 40496" d="M139.3,139.416a1.28,1.28,0,0,1-1.279-1.277v-1.379a.225.225,0,0,1,.225-.224h2.109a.224.224,0,1,1,0,.448h-1.884v1.155a.829.829,0,0,0,1.659,0,.225.225,0,0,1,.45,0A1.279,1.279,0,0,1,139.3,139.416Zm0,0" transform="translate(-22.143 -9.547)" fill="#fff" stroke="#fff" stroke-width="0.1"/>
      <path id="Path_40497" data-name="Path 40497" d="M155.224,139.416a1.279,1.279,0,0,1-1.279-1.277v-1.379a.224.224,0,0,1,.225-.224h2.108a.224.224,0,1,1,0,.448h-1.884v1.155a.83.83,0,0,0,1.659,0,.225.225,0,0,1,.45,0A1.28,1.28,0,0,1,155.224,139.416Zm0,0" transform="translate(-35.957 -9.547)" fill="#fff" stroke="#fff" stroke-width="0.1"/>
      <path id="Path_40498" data-name="Path 40498" d="M171.146,139.416a1.279,1.279,0,0,1-1.279-1.277v-1.379a.224.224,0,0,1,.225-.224H172.2a.224.224,0,1,1,0,.448h-1.884v1.155a.829.829,0,0,0,1.659,0,.225.225,0,0,1,.45,0A1.28,1.28,0,0,1,171.146,139.416Zm0,0" transform="translate(-49.771 -9.547)" fill="#fff" stroke="#fff" stroke-width="0.1"/>
      <path id="Path_40499" data-name="Path 40499" d="M187.068,139.416a1.28,1.28,0,0,1-1.279-1.277v-1.379a.225.225,0,0,1,.225-.224h2.108a.224.224,0,1,1,0,.448h-1.884v1.155a.829.829,0,0,0,1.659,0,.225.225,0,0,1,.449,0A1.279,1.279,0,0,1,187.068,139.416Zm0,0" transform="translate(-63.585 -9.547)" fill="#fff" stroke="#fff" stroke-width="0.1"/>
      <path id="Path_40500" data-name="Path 40500" d="M202.99,139.416a1.28,1.28,0,0,1-1.279-1.277v-1.379a.225.225,0,0,1,.225-.224h2.108a.224.224,0,1,1,0,.448H202.16v1.155a.83.83,0,0,0,1.659,0,.225.225,0,0,1,.449,0A1.28,1.28,0,0,1,202.99,139.416Zm0,0" transform="translate(-77.398 -9.547)" fill="#fff" stroke="#fff" stroke-width="0.1"/>
      <path id="Path_40501" data-name="Path 40501" d="M218.912,139.416a1.279,1.279,0,0,1-1.279-1.277v-1.379a.224.224,0,0,1,.224-.224h2.109a.224.224,0,1,1,0,.448h-1.884v1.155a.829.829,0,0,0,1.659,0,.225.225,0,0,1,.449,0A1.28,1.28,0,0,1,218.912,139.416Zm0,0" transform="translate(-91.212 -9.547)" fill="#fff" stroke="#fff" stroke-width="0.1"/>
      <path id="Path_40502" data-name="Path 40502" d="M234.834,139.416a1.28,1.28,0,0,1-1.279-1.277v-1.379a.225.225,0,0,1,.225-.224h2.108a.224.224,0,0,1,.224.224v1.379A1.279,1.279,0,0,1,234.834,139.416Zm-.83-2.432v1.155a.829.829,0,0,0,1.659,0v-1.155Zm0,0" transform="translate(-105.026 -9.547)" fill="#fff" stroke="#fff" stroke-width="0.1"/>
      <g id="Group_56432" data-name="Group 56432" transform="translate(114.817 125.531)" clip-path="url(#clip-path-2)">
        <path id="Path_40503" data-name="Path 40503" d="M145.617,127.518a.225.225,0,0,1-.225-.224v-.722a.5.5,0,0,0-.5-.5h-13.1a.5.5,0,0,0-.5.5v.723a.225.225,0,0,1-.449,0v-.723a.948.948,0,0,1,.949-.947h13.1a.949.949,0,0,1,.949.947v.723A.225.225,0,0,1,145.617,127.518Zm0,0" transform="translate(-130.729 -125.613)" fill="#fff" stroke="#fff" stroke-width="0.1"/>
      </g>
      <g id="Group_56433" data-name="Group 56433" transform="translate(112.5 138.305)" clip-path="url(#clip-path-3)">
        <path id="Path_40505" data-name="Path 40505" d="M119.833,225.88h-6.706a.639.639,0,0,1-.639-.638v-2.275a.639.639,0,0,1,.639-.638h6.706a.639.639,0,0,1,.639.638v2.275A.639.639,0,0,1,119.833,225.88Zm-6.706-3.1a.189.189,0,0,0-.19.189v2.275a.19.19,0,0,0,.19.189h6.706a.189.189,0,0,0,.189-.189v-2.275a.189.189,0,0,0-.189-.189Zm0,0" transform="translate(-112.49 -222.285)" fill="#fff" stroke="#fff" stroke-width="0.1"/>
      </g>
      <g id="Group_56434" data-name="Group 56434" transform="translate(124.351 138.305)" clip-path="url(#clip-path-4)">
        <path id="Path_40507" data-name="Path 40507" d="M209.533,225.88h-6.706a.639.639,0,0,1-.639-.638v-2.275a.639.639,0,0,1,.639-.638h6.706a.64.64,0,0,1,.639.638v2.275A.64.64,0,0,1,209.533,225.88Zm-6.706-3.1a.189.189,0,0,0-.189.189v2.275a.189.189,0,0,0,.189.189h6.706a.189.189,0,0,0,.19-.189v-2.275a.189.189,0,0,0-.19-.189Zm0,0" transform="translate(-202.163 -222.285)" fill="#fff" stroke="#fff" stroke-width="0.1"/>
      </g>
      <path id="Path_40509" data-name="Path 40509" d="M158.945,182.916a.225.225,0,0,1-.225-.224V181.1a.046.046,0,0,0-.044-.045h-9.212a.046.046,0,0,0-.045.045v1.589a.225.225,0,0,1-.449,0V181.1a.494.494,0,0,1,.494-.493h9.212a.5.5,0,0,1,.494.493v1.589A.224.224,0,0,1,158.945,182.916Zm0,0" transform="translate(-31.64 -47.785)" fill="#fff" stroke="#fff" stroke-width="0.1"/>
      <path id="Path_40510" data-name="Path 40510" d="M116.264,216.863a.225.225,0,0,1-.213-.153.91.91,0,1,1,1.773-.29.893.893,0,0,1-.048.29.225.225,0,0,1-.426-.143.453.453,0,0,0,.024-.147.461.461,0,0,0-.921,0,.467.467,0,0,0,.024.147.224.224,0,0,1-.141.284A.206.206,0,0,1,116.264,216.863Zm0,0" transform="translate(-3.04 -78.066)" fill="#fff" stroke="#fff" stroke-width="0.1"/>
      <path id="Path_40511" data-name="Path 40511" d="M127.141,216.867a.225.225,0,0,1-.213-.3.47.47,0,0,0,.024-.147.461.461,0,0,0-.861-.228.224.224,0,1,1-.39-.222.91.91,0,0,1,1.7.45.886.886,0,0,1-.048.29A.224.224,0,0,1,127.141,216.867Zm0,0" transform="translate(-11.427 -78.07)" fill="#fff" stroke="#fff" stroke-width="0.1"/>
      <path id="Path_40512" data-name="Path 40512" d="M136.133,216.867a.219.219,0,0,1-.072-.012.224.224,0,0,1-.141-.284.47.47,0,0,0,.024-.147.461.461,0,0,0-.861-.228.224.224,0,1,1-.39-.222.91.91,0,0,1,1.7.45.9.9,0,0,1-.048.29A.224.224,0,0,1,136.133,216.867Zm0,0" transform="translate(-19.228 -78.07)" fill="#fff" stroke="#fff" stroke-width="0.1"/>
      <path id="Path_40513" data-name="Path 40513" d="M145.128,216.867a.22.22,0,0,1-.072-.012.224.224,0,0,1-.141-.284.451.451,0,0,0,.024-.147.461.461,0,0,0-.861-.228.224.224,0,1,1-.39-.222.91.91,0,0,1,1.7.45.886.886,0,0,1-.048.29A.224.224,0,0,1,145.128,216.867Zm0,0" transform="translate(-27.033 -78.07)" fill="#fff" stroke="#fff" stroke-width="0.1"/>
      <path id="Path_40514" data-name="Path 40514" d="M154.12,216.867a.22.22,0,0,1-.072-.012.224.224,0,0,1-.141-.284.455.455,0,0,0,.024-.147.461.461,0,0,0-.861-.228.224.224,0,1,1-.39-.222.91.91,0,0,1,1.7.45.883.883,0,0,1-.048.29A.224.224,0,0,1,154.12,216.867Zm0,0" transform="translate(-34.834 -78.07)" fill="#fff" stroke="#fff" stroke-width="0.1"/>
      <path id="Path_40515" data-name="Path 40515" d="M207.738,216.863a.225.225,0,0,1-.213-.153.91.91,0,0,1,1.653-.741.225.225,0,0,1-.39.223.461.461,0,0,0-.861.227.475.475,0,0,0,.024.147.224.224,0,0,1-.141.284A.2.2,0,0,1,207.738,216.863Zm0,0" transform="translate(-82.401 -78.066)" fill="#fff" stroke="#fff" stroke-width="0.1"/>
      <path id="Path_40516" data-name="Path 40516" d="M216.733,216.863a.225.225,0,0,1-.213-.153.91.91,0,0,1,1.653-.741.225.225,0,0,1-.39.223.461.461,0,0,0-.861.227.455.455,0,0,0,.024.147.224.224,0,0,1-.141.284A.2.2,0,0,1,216.733,216.863Zm0,0" transform="translate(-90.206 -78.066)" fill="#fff" stroke="#fff" stroke-width="0.1"/>
      <path id="Path_40517" data-name="Path 40517" d="M225.725,216.863a.225.225,0,0,1-.213-.153.91.91,0,0,1,1.653-.741.225.225,0,0,1-.39.223.461.461,0,0,0-.861.227.454.454,0,0,0,.024.147.224.224,0,0,1-.141.284A.2.2,0,0,1,225.725,216.863Zm0,0" transform="translate(-98.007 -78.066)" fill="#fff" stroke="#fff" stroke-width="0.1"/>
      <path id="Path_40518" data-name="Path 40518" d="M234.717,216.863a.224.224,0,0,1-.213-.153.91.91,0,0,1,1.653-.741.225.225,0,0,1-.39.223.461.461,0,0,0-.861.227.469.469,0,0,0,.024.147.224.224,0,0,1-.141.284A.2.2,0,0,1,234.717,216.863Zm0,0" transform="translate(-105.808 -78.066)" fill="#fff" stroke="#fff" stroke-width="0.1"/>
      <path id="Path_40519" data-name="Path 40519" d="M245.012,216.867a.219.219,0,0,1-.072-.012.224.224,0,0,1-.141-.284.455.455,0,0,0,.024-.147.461.461,0,0,0-.921,0,.47.47,0,0,0,.024.147.224.224,0,0,1-.425.143.91.91,0,1,1,1.725,0A.227.227,0,0,1,245.012,216.867Zm0,0" transform="translate(-113.613 -78.07)" fill="#fff" stroke="#fff" stroke-width="0.1"/>
      <path id="Path_40520" data-name="Path 40520" d="M150.285,175.26a.226.226,0,0,1-.2-.117.831.831,0,0,1,1.44-.83.224.224,0,0,1-.382.235.382.382,0,0,0-.708.2.357.357,0,0,0,.008.079.224.224,0,0,1-.1.426l-.01,0A.232.232,0,0,1,150.285,175.26Zm0,0" transform="translate(-32.524 -41.98)" fill="#fff" stroke="#fff" stroke-width="0.1"/>
      <path id="Path_40521" data-name="Path 40521" d="M158.09,175.252a.225.225,0,0,1-.2-.12.831.831,0,0,1,1.445-.82.224.224,0,0,1-.382.235.382.382,0,0,0-.708.2.371.371,0,0,0,.044.176.224.224,0,0,1-.2.328Zm0,0" transform="translate(-39.299 -41.98)" fill="#fff" stroke="#fff" stroke-width="0.1"/>
      <path id="Path_40522" data-name="Path 40522" d="M165.9,175.252a.225.225,0,0,1-.2-.12.831.831,0,0,1,1.445-.82.224.224,0,1,1-.382.235.382.382,0,0,0-.708.2.371.371,0,0,0,.043.176.225.225,0,0,1-.095.3A.228.228,0,0,1,165.9,175.252Zm0,0" transform="translate(-46.071 -41.98)" fill="#fff" stroke="#fff" stroke-width="0.1"/>
      <path id="Path_40523" data-name="Path 40523" d="M173.7,175.252a.226.226,0,0,1-.2-.12.831.831,0,0,1,1.445-.82.224.224,0,1,1-.382.235.382.382,0,0,0-.707.2.371.371,0,0,0,.043.176.224.224,0,0,1-.095.3A.227.227,0,0,1,173.7,175.252Zm0,0" transform="translate(-52.841 -41.98)" fill="#fff" stroke="#fff" stroke-width="0.1"/>
      <path id="Path_40524" data-name="Path 40524" d="M181.5,175.252a.224.224,0,0,1-.2-.12.831.831,0,0,1,1.445-.82.225.225,0,0,1-.383.235.382.382,0,0,0-.664.376.224.224,0,0,1-.095.3A.227.227,0,0,1,181.5,175.252Zm0,0" transform="translate(-59.613 -41.98)" fill="#fff" stroke="#fff" stroke-width="0.1"/>
      <path id="Path_40525" data-name="Path 40525" d="M189.31,175.252a.225.225,0,0,1-.2-.12.831.831,0,0,1,1.445-.82.225.225,0,0,1-.383.235.382.382,0,0,0-.708.2.373.373,0,0,0,.043.176.224.224,0,0,1-.2.328Zm0,0" transform="translate(-66.384 -41.98)" fill="#fff" stroke="#fff" stroke-width="0.1"/>
      <path id="Path_40526" data-name="Path 40526" d="M197.117,175.252a.225.225,0,0,1-.2-.12.831.831,0,0,1,1.445-.82.224.224,0,0,1-.382.235.383.383,0,0,0-.708.2.371.371,0,0,0,.043.176.224.224,0,0,1-.1.3A.221.221,0,0,1,197.117,175.252Zm0,0" transform="translate(-73.158 -41.98)" fill="#fff" stroke="#fff" stroke-width="0.1"/>
      <path id="Path_40527" data-name="Path 40527" d="M204.922,175.252a.225.225,0,0,1-.2-.12.831.831,0,0,1,1.445-.82.224.224,0,1,1-.382.235.383.383,0,0,0-.708.2.371.371,0,0,0,.043.176.224.224,0,0,1-.2.328Zm0,0" transform="translate(-79.93 -41.98)" fill="#fff" stroke="#fff" stroke-width="0.1"/>
      <path id="Path_40528" data-name="Path 40528" d="M213.8,175.26a.224.224,0,0,1-.2-.331.382.382,0,1,0-.718-.182.372.372,0,0,0,.043.176.225.225,0,1,1-.4.208.831.831,0,1,1,1.469.01A.226.226,0,0,1,213.8,175.26Zm0,0" transform="translate(-86.701 -41.98)" fill="#fff" stroke="#fff" stroke-width="0.1"/>
    </g>
  </g>
</svg>
