<svg xmlns="http://www.w3.org/2000/svg" width="30" height="189" viewBox="0 0 30 189">
  <g id="Group_57481" data-name="Group 57481" transform="translate(-191 -245)">
    <line id="Line_162" data-name="Line 162" y2="120.5" transform="translate(205.5 258)" fill="none" stroke="#0e5f02" stroke-width="1" stroke-dasharray="2 3"/>
    <line id="Line_163" data-name="Line 163" y2="54" transform="translate(205.5 378.5)" fill="none" stroke="#000" stroke-width="1" stroke-dasharray="2 3"/>
    <circle id="Ellipse_820" data-name="Ellipse 820" cx="7.5" cy="7.5" r="7.5" transform="translate(198 245)" fill="#acc8a8"/>
    <circle id="Ellipse_821" data-name="Ellipse 821" cx="4.5" cy="4.5" r="4.5" transform="translate(201 248)" fill="#0e5f02"/>
    <circle id="Ellipse_822" data-name="Ellipse 822" cx="7.5" cy="7.5" r="7.5" transform="translate(198 303)" fill="#acc8a8"/>
    <circle id="Ellipse_823" data-name="Ellipse 823" cx="15" cy="15" r="15" transform="translate(191 353)" fill="#0e5f02"/>
    <g id="Ellipse_824" data-name="Ellipse 824" transform="translate(198 419)" fill="#fff" stroke="#0e5f02" stroke-width="0.3">
      <circle cx="7.5" cy="7.5" r="7.5" stroke="none"/>
      <circle cx="7.5" cy="7.5" r="7.35" fill="none"/>
    </g>
    <circle id="Ellipse_825" data-name="Ellipse 825" cx="4.5" cy="4.5" r="4.5" transform="translate(201 306)" fill="#0e5f02"/>
    <circle id="Ellipse_826" data-name="Ellipse 826" cx="12" cy="12" r="12" transform="translate(194 356)" fill="#acc8a8"/>
    <g id="delivery-truck-svgrepo-com" transform="translate(199 362)">
      <path id="Path_40404" data-name="Path 40404" d="M57.493,51.36a.442.442,0,0,1,.189-.232,1.126,1.126,0,0,1,.343-.069l.36,4.257-.292,2.1s-.085.249-.309.258-2.077,0-2.24,0-.215-.215-.223-.309-.006-.253-.006-.253l-.792,0a1.443,1.443,0,0,0,.03.55,1.941,1.941,0,0,1,.125.395c0,.09-.12.18-.258.172a1.242,1.242,0,0,1-.48-.3,17.141,17.141,0,0,0-2.337-.085,1.618,1.618,0,0,1-.224.314.421.421,0,0,1-.289.106c-.1,0-.232-.137-.206-.232a2.441,2.441,0,0,0,.163-.523A.9.9,0,0,0,51,57.1c-.011-.01-.182,0-.342-.021a.808.808,0,0,1-.578-.655c-.035-.274-.009-1.142-.009-1.142Z" transform="translate(-50.039 -48.112)" fill="#b3afaf"/>
      <path id="Path_40405" data-name="Path 40405" d="M60.126,96.11h-8.1a1.361,1.361,0,0,0,.02.373.631.631,0,0,0,.1.215h7.93Z" transform="translate(-52 -88.095)" fill="#9a9a9a"/>
      <path id="Path_40406" data-name="Path 40406" d="M6.993,53.718l1.715.531.857-.3s-.03-1.613-.04-1.776a.475.475,0,0,0-.2-.408c-.153-.1-.581-.358-.581-.358S7.422,49.3,7.309,49.145a.748.748,0,0,0-.578-.37c-.327-.03-2.347-.006-2.531,0s-.321.093-.321.492.01,3.437.02,3.59.776.714.776.714Z" transform="translate(3.975 -46.071)" fill="#e0e0e0"/>
      <path id="Path_40407" data-name="Path 40407" d="M4.442,88.011A2.1,2.1,0,0,1,4.165,88a.378.378,0,0,1-.292-.4c0-.16-.026-2.381-.026-2.381l3.059.007L7.9,86.31l1.616,0s.007.636,0,.805-.884.543-.884.543Z" transform="translate(4.029 -78.43)" fill="#0e5f02"/>
      <path id="Path_40408" data-name="Path 40408" d="M8.894,95.983H7.052a1.648,1.648,0,0,0-1.53-.774,1.681,1.681,0,0,0-1.7,1.666H8.163a.66.66,0,0,0,.682-.389A1.461,1.461,0,0,0,8.894,95.983Z" transform="translate(4.648 -87.295)" fill="#63c132"/>
      <path id="Path_40409" data-name="Path 40409" d="M11.532,74.757s0-.183.12-.19a.582.582,0,0,1,.373.171.63.63,0,0,1,.215.291c.038.127.007.241-.19.246-.241.008-4.062-.017-4.239-.032-.222-.019-.354-.114-.348-.279s.12-.209.595-.215S11.532,74.757,11.532,74.757Z" transform="translate(0.882 -68.974)" fill="#fff"/>
      <path id="Path_40410" data-name="Path 40410" d="M5.238,80.883s-1.148-.036-1.173-.008a3.028,3.028,0,0,0-.029.666c.012.082.12.139.253.145s.968.019.968.019Z" transform="translate(8.266 -74.564)" fill="#fdedc5"/>
      <path id="Path_40411" data-name="Path 40411" d="M16.238,56.047c-.178,0-.241-.2-.241-.342V53.94c0-.139.089-.215.367-.228s1.55,0,1.689.007c.215.007.361.1.557.373.127.177.911,1.475.974,1.581s.139.393-.19.4S16.238,56.047,16.238,56.047Z" transform="translate(-7.462 -50.461)" fill="#5f6369"/>
      <path id="Path_40412" data-name="Path 40412" d="M22.579,58.33H19.745a.129.129,0,0,1-.108-.139c0-.076,0-1.271-.007-1.342-.007-.2.139-.241.265-.234s1.407,0,1.482.006c.145.007.289.2.415.394C21.945,57.247,22.579,58.33,22.579,58.33Z" transform="translate(-10.81 -53.041)" fill="#afe3fb"/>
      <path id="Path_40413" data-name="Path 40413" d="M20.8,69.532c-.012.285-.468.519-.583.525s-.183-.215-.2-.513.107-.544.2-.544S20.808,69.291,20.8,69.532Z" transform="translate(-9.073 -64.034)" fill="#5f6369"/>
      <path id="Path_40414" data-name="Path 40414" d="M23.779,100.3a1.416,1.416,0,0,1-1.431,1.377,1.391,1.391,0,0,1-1.449-1.507,1.359,1.359,0,0,1,1.5-1.3A1.387,1.387,0,0,1,23.779,100.3Z" transform="translate(-12.153 -90.538)" fill="#4e433d"/>
      <path id="Path_40415" data-name="Path 40415" d="M28.587,105.374a.747.747,0,0,1-.752.727.7.7,0,0,1-.745-.772.736.736,0,0,1,.774-.71A.726.726,0,0,1,28.587,105.374Z" transform="translate(-17.657 -95.647)" fill="#c8c8c8"/>
      <path id="Path_40416" data-name="Path 40416" d="M89.779,100.3a1.416,1.416,0,0,1-1.431,1.377,1.391,1.391,0,0,1-1.449-1.507,1.359,1.359,0,0,1,1.5-1.3A1.387,1.387,0,0,1,89.779,100.3Z" transform="translate(-85.576 -90.538)" fill="#4e433d"/>
      <path id="Path_40417" data-name="Path 40417" d="M94.587,105.374a.747.747,0,0,1-.752.727.7.7,0,0,1-.745-.772.736.736,0,0,1,.774-.71A.726.726,0,0,1,94.587,105.374Z" transform="translate(-91.08 -95.647)" fill="#c8c8c8"/>
      <path id="Path_40418" data-name="Path 40418" d="M64.24,25.274c0-.295-.129-.413-.366-.4s-6.709-.024-6.92-.024-.295.224-.295.353.04,6.691.031,6.819a.274.274,0,0,0,.251.327c.224.024,6.862.011,7,0a.339.339,0,0,0,.318-.295C64.264,31.888,64.24,25.427,64.24,25.274Z" transform="translate(-56.66 -24.85)" fill="#d16e1d"/>
      <path id="Path_40419" data-name="Path 40419" d="M68.221,28.79c0,.153.047,5.884.047,6.026a.273.273,0,0,1-.26.307c-.189,0-5.989.011-6.107,0s-.189-.082-.2-.271-.011-5.942-.011-6.131.189-.2.389-.2,5.871.011,5.954.024A.235.235,0,0,1,68.221,28.79Z" transform="translate(-61.23 -28.107)" fill="#f5b03a"/>
      <path id="Path_40420" data-name="Path 40420" d="M74.692,33.4c.007-2.075.021-6.915,0-7.047l-.166.03-.168.02c.016.186.008,4.284,0,7Z" transform="translate(-69.089 -26.181)" fill="#d16e1d"/>
      <path id="Path_40421" data-name="Path 40421" d="M90.087,26.52H89.75v7.039h.337Z" transform="translate(-86.205 -26.332)" fill="#d16e1d"/>
      <path id="Path_40422" data-name="Path 40422" d="M105.227,26.57h-.337v7h.337Z" transform="translate(-103.048 -26.377)" fill="#d16e1d"/>
    </g>
  </g>
</svg>
