<svg xmlns="http://www.w3.org/2000/svg" width="43" height="43" viewBox="0 0 43 43">
  <g id="Group_57494" data-name="Group 57494" transform="translate(-26 -978)">
    <circle id="Ellipse_783" data-name="Ellipse 783" cx="21.5" cy="21.5" r="21.5" transform="translate(26 978)" fill="#d9efd5"/>
    <g id="Group_57492" data-name="Group 57492">
      <path id="path17850" d="M12.875,0A12.875,12.875,0,1,0,25.75,12.875,12.875,12.875,0,0,0,12.875,0Z" transform="translate(35 987)" fill="#0e5f02"/>
      <path id="path17850-2" data-name="path17850" d="M11.368,3.227a3.574,3.574,0,0,1,2.65,1.006,3.218,3.218,0,0,1,.923,2.243,3.288,3.288,0,0,1-.748,2.243c-.676,1.016-2.375,2.486-2.054,4.136l-1.3-.023a4.137,4.137,0,0,1,.009-3.467c.438-.92.765-1.216,1.121-2.067a1.422,1.422,0,0,0-1.255-1.819,1.215,1.215,0,0,0-1.3.854H8.363c-.091-.052-.287-.111-.222-1.07S10.246,3.224,11.368,3.227Zm.065,10.7a1.572,1.572,0,1,1-1.57,1.57A1.568,1.568,0,0,1,11.433,13.931Z" transform="translate(36.518 990.086)" fill="#d9efd5"/>
    </g>
  </g>
</svg>
