<svg xmlns="http://www.w3.org/2000/svg" width="43" height="43" viewBox="0 0 43 43">
  <g id="Group_56387" data-name="Group 56387" transform="translate(-26 -1174)">
    <circle id="Ellipse_812" data-name="Ellipse 812" cx="21.5" cy="21.5" r="21.5" transform="translate(26 1174)" fill="#d9efd5"/>
    <path id="path17850" d="M12.875,0A12.875,12.875,0,1,0,25.75,12.875,12.875,12.875,0,0,0,12.875,0Z" transform="translate(35 1183)" fill="#0e5f02"/>
    <path id="mobile-svgrepo-com" d="M11.841,0H5.564A1.564,1.564,0,0,0,4,1.564V14.111a1.565,1.565,0,0,0,1.564,1.565H11.84a1.565,1.565,0,0,0,1.565-1.564V1.564A1.564,1.564,0,0,0,11.841,0ZM8.7,14.892a.9.9,0,0,1-.98-.784.9.9,0,0,1,.98-.784.9.9,0,0,1,.98.784A.9.9,0,0,1,8.7,14.892Zm3.135-2.351H5.568V1.568h6.27Z" transform="translate(39.172 1188.045)" fill="#d9efd5"/>
  </g>
</svg>
