<svg xmlns="http://www.w3.org/2000/svg" width="39" height="39" viewBox="0 0 39 39">
  <g id="Group_57420" data-name="Group 57420" transform="translate(-24 -532)">
    <circle id="Ellipse_652" data-name="Ellipse 652" cx="19.5" cy="19.5" r="19.5" transform="translate(24 532)" fill="#fff"/>
    <path id="mobile-svgrepo-com" d="M8.848,21.76H2.63A2.627,2.627,0,0,1,0,19.144V6.776A2.627,2.627,0,0,1,2.63,4.16H8.848a2.627,2.627,0,0,1,2.63,2.616V19.144A2.627,2.627,0,0,1,8.848,21.76ZM2.63,5.409A1.387,1.387,0,0,0,1.255,6.776V19.144A1.387,1.387,0,0,0,2.63,20.512H8.848a1.387,1.387,0,0,0,1.375-1.368V6.776A1.387,1.387,0,0,0,8.848,5.409H2.63Zm3.109,14.33A2.051,2.051,0,1,1,7.8,17.687a2.061,2.061,0,0,1-2.063,2.051Zm0-2.884a.8.8,0,1,0,.807.8.8.8,0,0,0-.807-.8Z" transform="translate(38 538.84)" fill="#0e5f02"/>
  </g>
</svg>
