<svg id="Group_52163" data-name="Group 52163" xmlns="http://www.w3.org/2000/svg" width="52.974" height="25.734" viewBox="0 0 52.974 25.734">
  <path id="Path_32766" data-name="Path 32766" d="M219.959,372.25l-4.454.217a.341.341,0,0,0-.272.522A4.2,4.2,0,0,0,218.2,374.8Z" transform="translate(-211.503 -363.763)" fill="#c48989"/>
  <path id="Path_32767" data-name="Path 32767" d="M215.09,372.462l4.175-.2-.956,1.389a7.784,7.784,0,0,1-3.219-1.185Z" transform="translate(-210.787 -363.776)" fill="#b37c7c"/>
  <path id="Path_32768" data-name="Path 32768" d="M36,383.065a34.378,34.378,0,0,0,5.759,4.377,2.114,2.114,0,0,1,1.117,1.885,8.865,8.865,0,0,1-.778,2.718l1.709-.027c.5.017.888-.725.982-1.119.315-1.3-.417-2.578-.152-3.917.378-1.921.857-5.783-.575-8.812L36,383.062Z" transform="translate(6.561 -368.064)" fill="#d19292"/>
  <path id="Path_32769" data-name="Path 32769" d="M43.782,384.991a15.01,15.01,0,0,1-2,2.533,36.121,36.121,0,0,1-5.422-4.192l8.063-4.892a10.4,10.4,0,0,1,.881,3.313,13.715,13.715,0,0,1-1.519,3.238Z" transform="translate(6.204 -368.39)" fill="#c48989"/>
  <path id="Path_32770" data-name="Path 32770" d="M136.223,383.065a34.378,34.378,0,0,0,5.759,4.377,2.114,2.114,0,0,1,1.117,1.885,8.865,8.865,0,0,1-.778,2.718l1.709-.027c.5.017.888-.725.982-1.119.315-1.3-.417-2.578-.152-3.917.378-1.921.857-5.783-.575-8.812l-8.063,4.892Z" transform="translate(-117.788 -368.064)" fill="#ba7777"/>
  <path id="Path_32771" data-name="Path 32771" d="M144.289,378.18c1.43,3.031.953,6.893.575,8.812a12.816,12.816,0,0,0,.229,3.055c-.445-.265-.891-.525-1.334-.792a6.71,6.71,0,0,0-.715-.424,2.109,2.109,0,0,0-1.059-1.382,34.516,34.516,0,0,1-5.759-4.377l8.063-4.892Z" transform="translate(-117.791 -368.071)" fill="#b07171"/>
  <path id="Path_32772" data-name="Path 32772" d="M69.722,355.516s9.8.207,9.8-8.768c0-8.3-7.208-9.751-14.684-8.063a7.139,7.139,0,0,1-3.491-.063c-4.023-1.122-14.416-3.1-21.521,3.845l2.554,11.116a21.208,21.208,0,0,0,8.918,1.664,9.645,9.645,0,0,1,5.477,1.3c2.516,1.488,6.987,2.761,12.941-1.035Z" transform="translate(-28.853 -337.475)" fill="#e9a3a3"/>
  <path id="Path_32773" data-name="Path 32773" d="M44.58,347.759c-.315-1.245-1.6-4.887-4.74-6.079,3.5.927,5.935,3.436,5.935,8.258,0,2.379-.989,5.624-3.125,6.775C44.169,355.439,45.238,350.347,44.58,347.759Z" transform="translate(4.895 -340.665)" fill="#d19292"/>
  <path id="Path_32774" data-name="Path 32774" d="M32.82,346.367a2.132,2.132,0,0,0,.857-.778,2.206,2.206,0,0,0,.335-1.059,2.007,2.007,0,0,0-.26-1.091,2.216,2.216,0,0,0-.742-.78,2.117,2.117,0,0,0-1.033-.335,1.565,1.565,0,0,0-.612.089,1.362,1.362,0,0,0-.537.378,2.165,2.165,0,0,0-.313.477,2.421,2.421,0,0,0-.178.51,2.507,2.507,0,0,0-.019,1.062,2.418,2.418,0,0,0,.424.975,2.3,2.3,0,0,0,.831.691,2.806,2.806,0,0,0,2,.185,2.671,2.671,0,0,0,.884-.431,2.745,2.745,0,0,0,.652-.684,2.839,2.839,0,0,0,.494-1.693.1.1,0,0,0-.2-.029h0a3.392,3.392,0,0,1-.332.713,3,3,0,0,1-.477.573,2.442,2.442,0,0,1-.583.39,2.009,2.009,0,0,1-.638.171,1.864,1.864,0,0,1-1.192-.272,1.592,1.592,0,0,1-.4-.385,1.911,1.911,0,0,1-.272-.5,1.367,1.367,0,0,1-.084-.571l.007-.072.014-.07a1.239,1.239,0,0,1,.039-.135.655.655,0,0,1,.12-.217.286.286,0,0,1,.125-.094.5.5,0,0,1,.2-.022,1.015,1.015,0,0,1,.508.181,1.089,1.089,0,0,1,.366.412.851.851,0,0,1,.089.494.916.916,0,0,1-.575.754.639.639,0,1,0,.349,1.23.53.53,0,0,0,.108-.041l.051-.024Z" transform="translate(17.373 -341.153)" fill="#d19292"/>
  <path id="Path_32775" data-name="Path 32775" d="M196.978,364.505s-8.128,4.454-12.736,1.606l-1.088.207-1.534-2.863a5.959,5.959,0,0,0,2.588-1.079,15.773,15.773,0,0,0,2.157-1.912,11.182,11.182,0,0,1,2.786-4.512,11.731,11.731,0,0,1,4.206-2.634L196.98,364.5Z" transform="translate(-180.444 -349.402)" fill="#e9a3a3"/>
  <path id="Path_32776" data-name="Path 32776" d="M212.659,358.874a1.764,1.764,0,0,0,.046-.754,2.432,2.432,0,0,0-.231-.717,2.941,2.941,0,0,0-.395-.609,3.553,3.553,0,0,0-.484-.486,4.028,4.028,0,0,0-.537-.38c-.183-.106-.352-.2-.52-.274-.335-.156-.638-.265-.9-.366s-.484-.183-.672-.265c-.1-.039-.176-.079-.27-.125s-.181-.1-.274-.164a3.573,3.573,0,0,1-.563-.467,5.15,5.15,0,0,1-.566-.686l-.058-.079a.569.569,0,0,0-.792-.128.583.583,0,0,0-.185.229,2.662,2.662,0,0,0-.2,1.3,3.407,3.407,0,0,0,.388,1.312,3.805,3.805,0,0,0,.395.595,3.861,3.861,0,0,0,.513.518,5.188,5.188,0,0,0,1.107.693,8.955,8.955,0,0,0,1.748.6l.691.173a2.569,2.569,0,0,1,.746.3l.171.1a.571.571,0,0,0,.785-.2.486.486,0,0,0,.055-.125Z" transform="translate(-202.07 -349.461)" fill="#e9a3a3"/>
  <path id="Path_32777" data-name="Path 32777" d="M214.56,382.27a.674.674,0,0,1,1.213,0Z" transform="translate(-207.168 -371.063)" fill="#c48989"/>
  <path id="Path_32778" data-name="Path 32778" d="M215.976,383.44a.571.571,0,0,1-1.136,0Z" transform="translate(-207.439 -372.235)" fill="#1a1a1a"/>
  <path id="Path_32779" data-name="Path 32779" d="M216.134,383.1l-1.11-.026a.065.065,0,0,0-.036.007l-.017.007h0a.743.743,0,0,1-.1.063.521.521,0,0,1-.108.046.326.326,0,0,1-.224,0h0a.038.038,0,0,0-.051.019.041.041,0,0,0,.012.046.429.429,0,0,0,.289.077.743.743,0,0,0,.147-.024,1.006,1.006,0,0,0,.144-.048h0l-.053.014,1.107-.06a.061.061,0,0,0,0-.123Z" transform="translate(-207.575 -371.956)" fill="#4f3737"/>
  <path id="Path_32780" data-name="Path 32780" d="M30.338,343.777a2.422,2.422,0,0,1,.178-.51,1.914,1.914,0,0,1,.313-.477,1.4,1.4,0,0,1,.537-.378,1.522,1.522,0,0,1,.612-.089,2.16,2.16,0,0,1,1.033.335c.3.193-.137.525-.705.585a1.293,1.293,0,0,0-.429.118.468.468,0,0,0-.149.022.287.287,0,0,0-.125.094.638.638,0,0,0-.12.217c-.012.046-.031.089-.039.135l-.014.07-.007.072a1.367,1.367,0,0,0,.084.571,1.949,1.949,0,0,0,.272.5,1.388,1.388,0,0,0,.185.207.61.61,0,0,0,.19.185c.2.125,1.765.421,2,.012a2.616,2.616,0,0,0,.429-.311,3,3,0,0,0,.477-.573,3.181,3.181,0,0,0,.332-.708h0a.1.1,0,0,1,.2.026,2.866,2.866,0,0,1-1.146,2.376,2.7,2.7,0,0,1-.884.431,2.792,2.792,0,0,1-2-.185,2.3,2.3,0,0,1-.831-.691,2.354,2.354,0,0,1-.424-.975,2.508,2.508,0,0,1,.019-1.062Z" transform="translate(17.373 -341.151)" fill="#e9a3a3"/>
  <path id="Path_32781" data-name="Path 32781" d="M209.436,357.419a.079.079,0,0,0-.154.019,3.851,3.851,0,0,0,.106,1.038A3.7,3.7,0,0,0,211.564,361c.522.193,1.021.335,1.543.527.27.1.539.2.809.3a3.258,3.258,0,0,0,.826.188c-.031-.14-.277-.352-.433-.484a6.82,6.82,0,0,0-.835-.571c-.575-.356-1.175-.672-1.745-1.035a6.331,6.331,0,0,1-1.534-1.307,3.623,3.623,0,0,1-.761-1.2Z" transform="translate(-204.866 -352.503)" fill="#c48989"/>
  <path id="Path_32782" data-name="Path 32782" d="M211.96,363.349s.132-2.121-2.521-3.033a7.006,7.006,0,0,1-2.352-1.11.14.14,0,0,0-.214.178c.4.573.443.912,2.126,1.63A7.4,7.4,0,0,1,211.96,363.349Z" transform="translate(-201.499 -353.864)" fill="#e9b6b6"/>
  <path id="Path_32783" data-name="Path 32783" d="M218.1,401.964a2.33,2.33,0,0,0,.674.106c.113,0,.226,0,.339,0s.224-.019.335-.034a5.817,5.817,0,0,0,1.3-.337,8.086,8.086,0,0,0,1.2-.573c.19-.113.373-.236.559-.359s.354-.265.522-.409L223,400.31c-.207.082-.4.173-.6.262s-.4.171-.595.26c-.4.161-.792.335-1.2.469a11.047,11.047,0,0,1-1.221.364,5.849,5.849,0,0,1-1.254.173l-.026.12Z" transform="translate(-215.275 -384.984)" fill="#d19292"/>
  <g id="Group_52162" data-name="Group 52162" transform="translate(0 14.133)">
    <path id="Path_32784" data-name="Path 32784" d="M237.055,397.894c.554,1.129,1.233,1.315,2.095.843a1.6,1.6,0,0,0,.633-2.258,1.8,1.8,0,0,0-2.4-.944c-.732.455-.826,1.348-.327,2.362Z" transform="translate(-236.744 -395.352)" fill="#de8a8a"/>
    <path id="Path_32785" data-name="Path 32785" d="M244.873,401.748c.224.469.506.8.628.746s.041-.489-.183-.958-.506-.8-.628-.746S244.649,401.278,244.873,401.748Z" transform="translate(-244.193 -399.476)" fill="#ab6a6a"/>
    <path id="Path_32786" data-name="Path 32786" d="M240,399.913c.224.469.532.792.689.717s.1-.518-.12-.987-.532-.792-.689-.717S239.773,399.444,240,399.913Z" transform="translate(-238.244 -398.058)" fill="#ab6a6a"/>
  </g>
  <path id="Path_32787" data-name="Path 32787" d="M154.758,337.576s-7.67-.144-13.781,4.184a2.738,2.738,0,0,0-1.5.209S144.49,336.629,154.758,337.576Z" transform="translate(-128.077 -337.463)" fill="#d19292"/>
  <path id="Path_32788" data-name="Path 32788" d="M74.524,379.409a8.765,8.765,0,0,0,1.293-2.988l.677,3.411c1.943-.337,4.926-1.459,6.248-.014l.662-4.158a9.655,9.655,0,0,1,.672,5.559,10.269,10.269,0,0,0,5.9,2.111,6.77,6.77,0,0,0,7.081-6.459A9.641,9.641,0,0,1,97.9,373.4a5.913,5.913,0,0,0,.063,2.408,12.782,12.782,0,0,0,.556,2.581,11.264,11.264,0,0,0,1.112,2.393,6.677,6.677,0,0,0,.734,1.038c.277.294.662.467.92.78a7.61,7.61,0,0,1-2.013.19,14.2,14.2,0,0,1-17.226-.144c-2.831.164-7.885-.453-9.837-1.683a5.3,5.3,0,0,0,2.311-1.55Z" transform="translate(-58.409 -364.547)" fill="#d19292"/>
  <path id="Path_32789" data-name="Path 32789" d="M153.324,382s.975,5.3-1.767,9.546a9.187,9.187,0,0,0-.674,2.993h0a2.155,2.155,0,0,1-2.21,2.075l-1.105-.029.758-1.088a3.221,3.221,0,0,0,.578-1.839h0a3.975,3.975,0,0,0-.672-2.217,15.526,15.526,0,0,1-2.711-8.542l7.8-.9Z" transform="translate(-128.266 -370.972)" fill="#e9a3a3"/>
  <path id="Path_32790" data-name="Path 32790" d="M49.474,382.575A17.05,17.05,0,0,1,46.369,371.8c.563-.036,9.582-.392,9.823-.433a19.584,19.584,0,0,1,.453,2.928,4.715,4.715,0,0,1-1.274,3.3,17.6,17.6,0,0,1-2.143,6.392,4.88,4.88,0,0,0-.6,2.456l-.262.913a1.681,1.681,0,0,1-1.555,1.218l-1.577.058a12.768,12.768,0,0,0,1.606-2.947,2.112,2.112,0,0,0-.494-2.133c-.289-.3-.583-.628-.869-.98Z" transform="translate(-7.537 -362.901)" fill="#e9a3a3"/>
  <path id="Path_32791" data-name="Path 32791" d="M192.96,405.375s2.8,2.239,9.611-.575c0,0-5.176,1.931-7.762.022A7.482,7.482,0,0,1,192.96,405.375Z" transform="translate(-188.765 -388.382)" fill="#d19292"/>
  <path id="Path_32792" data-name="Path 32792" d="M164.454,380.186a.3.3,0,0,0-.506-.32,4.92,4.92,0,0,0-1.394,4.411,15.793,15.793,0,0,0,2.721,6.252s-2.379-6.327-.821-10.343Z" transform="translate(-144.129 -369.371)" fill="#e9b6b6"/>
  <path id="Path_32793" data-name="Path 32793" d="M69.382,377.448a.305.305,0,0,0-.544-.25,4.914,4.914,0,0,0-.8,4.555,15.785,15.785,0,0,0,3.522,5.841S68.369,381.634,69.382,377.448Z" transform="translate(-27.62 -367.338)" fill="#e9b6b6"/>
  <path id="Path_32794" data-name="Path 32794" d="M186.345,386.744c.469.693,2.063.8,3.334-.058s1.736-2.367,1.269-3.058-1.88-.556-3.151.3S185.875,386.05,186.345,386.744Z" transform="translate(-175.691 -372.021)" fill="#e9acac"/>
  <path id="Path_32795" data-name="Path 32795" d="M102.877,383.917c.084,1.452,1.878,3.062,3.944,2.942s3.619-1.926,3.534-3.378-1.827-2.53-3.891-2.41-3.669,1.394-3.585,2.846Z" transform="translate(-74.865 -370.402)" fill="#e9acac"/>
</svg>
