<svg id="Group_52169" data-name="Group 52169" xmlns="http://www.w3.org/2000/svg" width="29.847" height="39.87" viewBox="0 0 29.847 39.87">
  <path id="Path_32796" data-name="Path 32796" d="M374.441,95.43a1.579,1.579,0,0,0-.867,2.306c.793,1.739,2.309,1.331,2.171-.238A3.311,3.311,0,0,0,374.441,95.43Z" transform="translate(-371.764 -90.759)" fill="#c92121"/>
  <path id="Path_32797" data-name="Path 32797" d="M374.453,95.27a1.341,1.341,0,0,0-.834,2.013c.79,1.528,2.274,1.178,2.127-.194A2.97,2.97,0,0,0,374.453,95.27Z" transform="translate(-371.794 -90.646)" fill="#e82626"/>
  <path id="Path_32798" data-name="Path 32798" d="M426.352,183.4a3.94,3.94,0,0,1-1.889-1.172l.153-3.176-.97-.455-.223,3.8c-.749,2.013-3.323,1.763-3.323,1.763a4.193,4.193,0,0,0,2.374.241l-2.624,1.736a6.3,6.3,0,0,0,4.055-1.786l1.337,2.1-.646-3.091a2.411,2.411,0,0,0,1.757.038Z" transform="translate(-404.595 -149.492)" fill="#de8a8a"/>
  <path id="Path_32799" data-name="Path 32799" d="M410.532,193.284a3.94,3.94,0,0,1-1.889-1.172l.153-3.176-.97-.455-.223,3.8c-.749,2.013-3.323,1.763-3.323,1.763a4.193,4.193,0,0,0,2.374.241l-2.624,1.736a6.3,6.3,0,0,0,4.055-1.786l1.337,2.1-.646-3.091a2.412,2.412,0,0,0,1.757.038Z" transform="translate(-393.423 -156.469)" fill="#e9a3a3"/>
  <path id="Path_32800" data-name="Path 32800" d="M370.045,92.28a2.022,2.022,0,0,0-2.115,1.287s2.318.1,2.677-.373Z" transform="translate(-367.93 -88.522)" fill="#e8c431"/>
  <path id="Path_32801" data-name="Path 32801" d="M370.363,94.07l.244.4c-.358.476-2.671.373-2.677.373A16.431,16.431,0,0,1,370.363,94.07Z" transform="translate(-367.93 -89.798)" fill="#e89931"/>
  <path id="Path_32802" data-name="Path 32802" d="M373.95,89.474a.083.083,0,0,1,.012-.018c.964-1.5,2.7-1.287,4.084-.429,2.865,1.772,4.475,5.421,5.612,8.43,1,2.624,8.112,3.488,9.969-2.509,0,0,2.968-11.324,6.479-.482a13.728,13.728,0,0,1,.614,5.688,13.379,13.379,0,0,1-2.68,6.908c.761,3.711-.5,8.738-10.686,11.764a9.733,9.733,0,0,1-7.489-6.546s-7.225-2.685-4.918-11.485a38.945,38.945,0,0,0,1.381-5.342,7.38,7.38,0,0,0-.223-3.214,8.372,8.372,0,0,0-2.151-2.765Z" transform="translate(-372.181 -85.763)" fill="#cc6101"/>
  <path id="Path_32803" data-name="Path 32803" d="M380.354,92.139a.464.464,0,1,0-.491.435A.464.464,0,0,0,380.354,92.139Z" transform="translate(-376.049 -88.087)" fill="none" stroke="#4f4b47" stroke-width="0.9"/>
  <path id="Path_32804" data-name="Path 32804" d="M371.728,83.292a.616.616,0,0,1-.479-.27.373.373,0,0,1,.112-.5c.141-.076.332-.035.455-.138.159-.132.085-.385.018-.579s-.079-.476.115-.544.391.173.6.153.3-.27.288-.476a2.276,2.276,0,0,1-.053-.611c.041-.2.3-.373.45-.235s.038.485.226.6a.268.268,0,0,0,.35-.165,1.415,1.415,0,0,0,.053-.432.643.643,0,0,1,.256-.5.35.35,0,0,1,.5.112c.117.267-.223.582-.1.846a.385.385,0,0,0,.505.129,1.664,1.664,0,0,0,.441-.373.993.993,0,0,1,.978-.329.75.75,0,0,1,.458.652,1.192,1.192,0,0,1-.262.782,3.226,3.226,0,0,1-2.124.975,6.612,6.612,0,0,0-1.466.364c-.482.206-.755.6-1.322.546Z" transform="translate(-370.238 -79.531)" fill="#e82626"/>
  <g id="Group_52165" data-name="Group 52165" transform="translate(1.769 2.59)">
    <path id="Path_32805" data-name="Path 32805" d="M448.48,135.93a12.181,12.181,0,0,1,2.192,4.727c-.091.115-.182.229-.279.341Z" transform="translate(-426.582 -121.949)" fill="#cc6101"/>
    <path id="Path_32806" data-name="Path 32806" d="M376.1,92.229a8.371,8.371,0,0,0-2.151-2.765.06.06,0,0,1,.012-.018c.964-1.5,2.7-1.287,4.084-.429,2.865,1.772,4.475,5.421,5.612,8.43a2.583,2.583,0,0,0,1.055,1.2,4.026,4.026,0,0,1-1.733-.611,2.788,2.788,0,0,1,.291,2.274,2.643,2.643,0,0,0-.646-1.09,2.787,2.787,0,0,1-.567,2.606,2.341,2.341,0,0,0-.464-1.446,6.957,6.957,0,0,1-1.034,2.656,2.63,2.63,0,0,0-.4-1.648,4.237,4.237,0,0,0-.408,2.133,3.609,3.609,0,0,1-1.237-2.362,2.258,2.258,0,0,0-.4,1.343,9.752,9.752,0,0,1-1.022-3.723,2.714,2.714,0,0,1-.975,2.051,6.36,6.36,0,0,0,.212-2,2.323,2.323,0,0,1-1.14,1.1,26.666,26.666,0,0,0,1.14-4.489,7.378,7.378,0,0,0-.223-3.214Z" transform="translate(-373.95 -88.346)" fill="#964801"/>
  </g>
  <path id="Path_32807" data-name="Path 32807" d="M428.45,102.445a6.1,6.1,0,0,0,3.664-4.1s2.968-11.324,6.479-.482a13.727,13.727,0,0,1,.614,5.688,13.4,13.4,0,0,1-2.647,6.863c-1.36-3.67-4.29-7.148-8.109-7.965Z" transform="translate(-410.668 -89.159)" fill="#964801"/>
  <path id="Path_32808" data-name="Path 32808" d="M447.457,102.795a.672.672,0,0,0-.908,0c.1-.335-.206-.99-.594-.641.247-.458-.047-1.56-.494-1.322.535-1.175.264-2.23-.4-2.212a1.223,1.223,0,0,0-.361-1.307.944.944,0,0,0-1.158.194c-.332-.511-1.228-.12-1.41.423-.367-.444-1.028-.126-1.293.247.009-.026.021-.053.026-.079,0,0,1.945-7.475,4.4-4.648a1.064,1.064,0,0,1,.946-.5c.473.1.693.849.547,1.31a.885.885,0,0,1,1.155.526,2.205,2.205,0,0,1-.044,1.407.594.594,0,0,1,.887.079,1.44,1.44,0,0,1,.214.978,6.009,6.009,0,0,1-.5,2.1.41.41,0,0,1,.35-.1.6.6,0,0,1,.417.461,1.529,1.529,0,0,1-.026.652,9.155,9.155,0,0,1-1.278,3.117c-.009.085-.023.173-.035.261,0-.018-.006-.035-.009-.056a1.546,1.546,0,0,0-.438-.887Z" transform="translate(-419.418 -88.906)" fill="#1c2124"/>
  <path id="Path_32809" data-name="Path 32809" d="M456.023,151.68c-.021.062-.038.123-.059.185-.006-.029-.009-.059-.015-.085.026-.032.05-.068.076-.1Z" transform="translate(-430.088 -130.482)" fill="none"/>
  <path id="Path_32810" data-name="Path 32810" d="M374.055,90.652A3.543,3.543,0,0,1,376,90.026c.62.023,1.228.276,1.208,1.022a1,1,0,0,1-1.117.946,4.054,4.054,0,0,1-1.416-.32.986.986,0,0,1-.614-1.02h0Z" transform="translate(-372.254 -86.941)" fill="#c92121"/>
  <path id="Path_32811" data-name="Path 32811" d="M374.04,91.064a3.33,3.33,0,0,1,1.751-.508c.558.021,1.111.232,1.1.849-.015.535-.5.776-1,.776a3.908,3.908,0,0,1-1.281-.273.822.822,0,0,1-.561-.846h0Z" transform="translate(-372.242 -87.315)" fill="#e82626"/>
  <path id="Path_32812" data-name="Path 32812" d="M380.082,92.149a.4.4,0,1,0-.42.373A.4.4,0,0,0,380.082,92.149Z" transform="translate(-375.951 -88.144)" fill="#e8c431"/>
  <path id="Path_32813" data-name="Path 32813" d="M380.347,92.59a.209.209,0,1,0-.22.2A.21.21,0,0,0,380.347,92.59Z" transform="translate(-376.404 -88.597)" fill="#1c2124"/>
  <g id="Group_52166" data-name="Group 52166" transform="translate(1.769 3.687)">
    <path id="Path_32814" data-name="Path 32814" d="M373.962,92.086s0-.006,0-.006a.18.18,0,0,0,.015.053c-.009-.012-.021-.021-.029-.032a.06.06,0,0,1,.012-.018Z" transform="translate(-373.95 -92.08)" fill="#dbccc3"/>
    <path id="Path_32815" data-name="Path 32815" d="M376.81,97.94c1.484,1.6,3.273,4.346,1.719,8.894-3.476,10.192,4.243,11.332,4.243,11.332a9.955,9.955,0,0,0,5.894,5.48s8.911-1.819,9.146-8.8a11.126,11.126,0,0,1-8.353-.89l.908-7.157a9.591,9.591,0,0,1,8.944,7.01,12.8,12.8,0,0,1,.188,1.475c.126,3.488-1.954,7.66-10.862,10.307a9.733,9.733,0,0,1-7.489-6.546s-7.225-2.685-4.918-11.485a38.95,38.95,0,0,0,1.381-5.342,7.378,7.378,0,0,0-.223-3.214,3.875,3.875,0,0,0-.579-1.067Z" transform="translate(-375.238 -96.218)" fill="#dbccc3"/>
  </g>
  <path id="Path_32816" data-name="Path 32816" d="M453.165,116c.009.026.023.053.029.079a1.529,1.529,0,0,1-.026.652,9.157,9.157,0,0,1-1.278,3.117h0a13.353,13.353,0,0,1-2.624,6.684,14.871,14.871,0,0,0-2.826-4.725c1.337,1.8,3.937,2.715,5.18-2.471A9.629,9.629,0,0,0,453.165,116Z" transform="translate(-423.373 -105.285)" fill="#d1c4ba"/>
  <g id="Group_52168" data-name="Group 52168" transform="translate(10.818 14.129)">
    <path id="Path_32817" data-name="Path 32817" d="M405.875,131.779a1.009,1.009,0,0,0,.549-1.04.9.9,0,0,0,1.313-1.2.852.852,0,0,0,.831-.367.5.5,0,0,0-.347-.726.793.793,0,0,0,.517-.382.322.322,0,0,0-.106-.341c2.556-.261,7.818-.32,10.915,3.023,0,0-.3.514-1.49.488a2.311,2.311,0,0,1-1.892,2.057,5.692,5.692,0,0,1-5.315,2.342c-3.755-.508-5.074-1.449-6.1-3.87a1.3,1.3,0,0,0,1.122.012Z" transform="translate(-404.75 -127.618)" fill="#964801"/>
    <path id="Path_32818" data-name="Path 32818" d="M427.637,135.032c2.439.309,1.5-1.24,1.5-1.24,2.494-.085.764-1.681.764-1.681,2.107-.273.032-1.657.032-1.657,2.536-.344.787-1.422-.45-2.024a10.093,10.093,0,0,1,5.829,2.894s-.3.514-1.49.488a2.311,2.311,0,0,1-1.892,2.057,5.726,5.726,0,0,1-4.863,2.383C428.46,135.887,427.637,135.032,427.637,135.032Z" transform="translate(-420.512 -128.191)" fill="#542801"/>
    <g id="Group_52167" data-name="Group 52167" transform="translate(0.035 4.22)">
      <path id="Path_32819" data-name="Path 32819" d="M416.05,143.7a5.625,5.625,0,0,1-5.112,2.071c-3.714-.505-5.045-1.434-6.067-3.8C405.663,143.3,412.321,146.343,416.05,143.7Z" transform="translate(-404.87 -141.98)" fill="#dbccc3"/>
    </g>
  </g>
</svg>
