<svg id="illustration-of-holstein-svgrepo-com" xmlns="http://www.w3.org/2000/svg" width="29.036" height="20.668" viewBox="0 0 29.036 20.668">
  <path id="Path_29968" data-name="Path 29968" d="M267.065,206.965a2.71,2.71,0,0,0-.384-.295,1.24,1.24,0,0,0-.4-.171.3.3,0,0,1-.125-.066,1.6,1.6,0,0,1-.312-.386c-.165-.26-.324-.584-.5-.857a1.943,1.943,0,0,0-.285-.369.8.8,0,0,0-.189-.137.547.547,0,0,0-.25-.063.885.885,0,0,0-.3.059,1.7,1.7,0,0,0-.486.3,3.958,3.958,0,0,0-.666.741,5.152,5.152,0,0,0-.529.938.661.661,0,0,0-.054.259.722.722,0,0,0,.051.259,1.182,1.182,0,0,0,.278.4,3.448,3.448,0,0,0,.825.568,8.92,8.92,0,0,0,1.662.641,6.225,6.225,0,0,0,1.563.261,2.1,2.1,0,0,0,.233-.012,1.083,1.083,0,0,0,.28-.066.661.661,0,0,0,.314-.246.637.637,0,0,0,.1-.359,1.283,1.283,0,0,0-.182-.6A3.232,3.232,0,0,0,267.065,206.965Z" transform="translate(-247.694 -197.201)" fill="#fff"/>
  <path id="Path_29969" data-name="Path 29969" d="M28.767,87.2h0V87.2c0-.682.065-1.479.132-2.312s.136-1.709.136-2.554a8.593,8.593,0,0,0-.264-2.313,4.079,4.079,0,0,0-.429-1.006,3.013,3.013,0,0,0-.7-.8h0l-.012-.012-.013-.01a5.087,5.087,0,0,0-1.587-.854,5.662,5.662,0,0,0-1.71-.219c-.7,0-1.5.065-2.53.125-.912.053-2.16.063-3.3.063l-1.667,0a23.612,23.612,0,0,1-2.867-.253,23.705,23.705,0,0,1-3.024-.59,19.507,19.507,0,0,1-1.887-.689c-.277-.111-.535-.212-.782-.288L8.2,75.463a2.165,2.165,0,0,0,.1-.639,1.714,1.714,0,0,0-.042-.391v0h0A1.062,1.062,0,0,0,8.2,74.25v0h0a.718.718,0,0,0-.141-.208l0,0a.846.846,0,0,0-.341-.2h0a1.243,1.243,0,0,0-.349-.052v0H7.332a1.821,1.821,0,0,0-1.069.4l-1.329-.044-.132.081-.687.423-.527.327c-.16.1-.288.181-.363.231l-.012.008-.108.09L3.1,75.3l-.006.006c-.066.063-.136.138-.217.228-.282.314-.694.816-1.07,1.259-.187.221-.364.425-.5.579-.069.075-.129.138-.173.18h0l-.044.04c-.143.081-.353.2-.545.324h0a2.128,2.128,0,0,0-.291.226l0,0a.955.955,0,0,0-.142.171L.1,78.326l-.051.1-.007.014,0,.014a.643.643,0,0,0-.036.2v.007a.718.718,0,0,0,.022.162v0a1.756,1.756,0,0,0,.07.206,5.492,5.492,0,0,0,.461.876,2.729,2.729,0,0,0,.328.422,1.136,1.136,0,0,0,.223.181h0a.733.733,0,0,0,.379.114h.011c.014,0,.087,0,.176.012h0c.363.03,1.1.11,1.927.2.729.075,1.52.155,2.2.212.117.2.3.517.506.91A15.2,15.2,0,0,1,7.2,83.955c.063.18.134.433.207.715.11.425.228.918.355,1.377.064.23.13.452.2.657a3.741,3.741,0,0,0,.242.559c.407.728.814,1.393,1.109,1.951a6.372,6.372,0,0,1,.344.741,1.479,1.479,0,0,1,.11.471V92.8L9.442,93.9l.332.209a2.424,2.424,0,0,0,1.209.288h.043a1.38,1.38,0,0,0,.595-.126,1.1,1.1,0,0,0,.336-.25l-.008.008.009-.009a1.147,1.147,0,0,0,.245-.451,1.342,1.342,0,0,0,.05-.362V89.993l-.011-.05v-.009c-.008-.039-.048-.238-.086-.48a5.211,5.211,0,0,1-.071-.71v0h0v0a1.884,1.884,0,0,1,.023-.2h0c.052-.346.182-.958.315-1.555.211.059.462.129.735.2.36.095.754.194,1.125.276a9.34,9.34,0,0,0,1.009.177,36.042,36.042,0,0,0,4.148.277c.377,0,.785-.007,1.235-.021a7.781,7.781,0,0,0,3.025-.67,5.378,5.378,0,0,0,.482-.253,5.429,5.429,0,0,0,.886,1.408,6.375,6.375,0,0,0,.691.673l.081.068c-.027.389-.09,1.2-.149,1.967-.034.445-.068.873-.092,1.191-.015.195-.027.341-.034.429l-.548,1.2.358.246h0a1.459,1.459,0,0,0,.359.168,2.712,2.712,0,0,0,.838.13h.037a1.609,1.609,0,0,0,.585-.1,1.165,1.165,0,0,0,.69-.725,1.631,1.631,0,0,0,.082-.528h0l.006-.061v0h0c.02-.161.086-.52.172-.945.129-.641.3-1.454.447-2.151.072-.349.135-.668.182-.927.023-.13.042-.244.056-.34v0h0a2.255,2.255,0,0,0,.024-.266v-.011l-.007-.09v-.012l0-.012a6.215,6.215,0,0,1-.076-1.055V87.2Zm-.7,1.191c0,.01,0,.046-.008.092-.022.184-.089.544-.175.974-.13.646-.3,1.46-.447,2.153-.071.347-.135.663-.18.915-.023.126-.041.236-.055.327a1.72,1.72,0,0,0-.022.23.894.894,0,0,1-.032.251.4.4,0,0,1-.153.228.665.665,0,0,1-.391.1,2,2,0,0,1-.582-.079l.311-.681,0-.047s.075-.949.149-1.915c.037-.483.074-.969.1-1.344.014-.187.026-.346.034-.463,0-.058.007-.106.009-.142l0-.046v-.036l-.017-.1a.323.323,0,0,0-.049-.089l-.076-.08c-.047-.043-.1-.088-.169-.145a5.347,5.347,0,0,1-.967-1.019,4.589,4.589,0,0,1-.806-2.039l-.53.076a5.332,5.332,0,0,0,.106.541,4.018,4.018,0,0,1-.788.461,7.005,7.005,0,0,1-2.693.585c-.442.015-.841.021-1.209.021a35.326,35.326,0,0,1-4.07-.273,8.532,8.532,0,0,1-.917-.162c-.534-.118-1.132-.276-1.594-.4-.2-.055-.37-.1-.5-.142.032-.142.062-.277.088-.4s.053-.244.072-.338.031-.166.038-.225l-.532-.059c0,.028-.018.111-.039.219-.077.381-.246,1.108-.4,1.793-.074.343-.144.676-.2.954-.026.139-.047.265-.062.373a2.128,2.128,0,0,0-.025.276,6.117,6.117,0,0,0,.088.886c.034.214.068.386.081.449v3.137a.569.569,0,0,1-.016.131l-.038.1a.289.289,0,0,1-.113.115.566.566,0,0,1-.282.059,2.09,2.09,0,0,1-.64-.092l-.007,0,.18-.611V90.427a2.21,2.21,0,0,0-.158-.745,9.489,9.489,0,0,0-.638-1.292c-.153-.272-.32-.558-.491-.853l.038-.052c.468-.78,1.472-2.14,1-3.077A40.341,40.341,0,0,1,8.582,80.2c0-.223-.006-.465-.006-.719.244-.7,1.009-1.95,1.263-2.558.275.1.565.2.874.289a19.864,19.864,0,0,0,2.073.449l0,.081a4.072,4.072,0,0,1-.155.994c-.142.544-.359,1.13-.545,1.664-.093.268-.178.523-.24.758a2.649,2.649,0,0,0-.106.651.987.987,0,0,0,.031.253.655.655,0,0,0,.079.183.556.556,0,0,0,.237.207.735.735,0,0,0,.312.063,1.841,1.841,0,0,0,.605-.127,6.39,6.39,0,0,0,2.551-1.663,6.457,6.457,0,0,0,1.464-2.639l1.466,0h.449l.268.068c.192,0,.046.143.136.2a.557.557,0,0,1,.171.19,1.46,1.46,0,0,1,.153.516,5.343,5.343,0,0,1,.038.715c0,.263-.008.537-.009.8a5.008,5.008,0,0,0,.05.792,4.051,4.051,0,0,0,1.73,2.569,6.318,6.318,0,0,0,3.678,1.1,8.751,8.751,0,0,0,2.993-.558l-.026.337c-.067.835-.135,1.65-.135,2.382A7.055,7.055,0,0,0,28.07,88.393Z" transform="translate(0.001 -73.777)" fill="#fff"/>
</svg>
