<svg xmlns="http://www.w3.org/2000/svg" width="23.681" height="25.677" viewBox="0 0 23.681 25.677">
  <g id="edit-2-svgrepo-com" transform="translate(-2.25 -1.414)">
    <path id="Path_24660" data-name="Path 24660" d="M15.252,3.9,5.277,14.4a3.678,3.678,0,0,0-.814,1.728l-.45,3.916a1.851,1.851,0,0,0,2.272,2.139l3.913-.665a3.5,3.5,0,0,0,1.689-.907l9.976-10.5c1.725-1.813,2.5-3.88-.182-6.406C19.007,1.2,16.978,2.087,15.252,3.9Z" transform="translate(0.854)" fill="none" stroke="#131313" stroke-linecap="round" stroke-linejoin="round" stroke-width="1.5"/>
    <path id="Path_24661" data-name="Path 24661" d="M11.89,5.05a4.723,4.723,0,0,0,4.1,4.088" transform="translate(4.002 1.433)" fill="none" stroke="#131313" stroke-linecap="round" stroke-linejoin="round" stroke-width="1.5"/>
    <path id="Path_24662" data-name="Path 24662" d="M3,22H25.181" transform="translate(0 4.342)" fill="none" stroke="#131313" stroke-linecap="round" stroke-linejoin="round" stroke-width="1.5"/>
  </g>
</svg>
