<svg xmlns="http://www.w3.org/2000/svg" width="6.813" height="13.848" viewBox="0 0 6.813 13.848">
  <path id="path17850" d="M11.368,3.227a3.574,3.574,0,0,1,2.65,1.006,3.218,3.218,0,0,1,.923,2.243,3.288,3.288,0,0,1-.748,2.243c-.676,1.016-2.375,2.486-2.054,4.136l-1.3-.023a4.137,4.137,0,0,1,.009-3.467c.438-.92.765-1.216,1.121-2.067a1.422,1.422,0,0,0-1.255-1.819,1.215,1.215,0,0,0-1.3.854H8.363c-.091-.052-.287-.111-.222-1.07S10.246,3.224,11.368,3.227Zm.065,10.7a1.572,1.572,0,1,1-1.57,1.57A1.568,1.568,0,0,1,11.433,13.931Z" transform="translate(-8.128 -3.227)" fill="#d9efd5"/>
</svg>
