<svg xmlns="http://www.w3.org/2000/svg" width="29.265" height="29.266" viewBox="0 0 29.265 29.266">
  <g id="Group_56582" data-name="Group 56582" transform="translate(23653 18668)">
    <path id="emoji-frown-svgrepo-com" d="M1,14.633A13.633,13.633,0,1,1,14.633,28.266,13.633,13.633,0,0,1,1,14.633Z" transform="translate(-23653 -18668)" fill="#cf0000" stroke="#cf0000" stroke-width="2" fill-rule="evenodd"/>
    <path id="emoji-frown-svgrepo-com-2" data-name="emoji-frown-svgrepo-com" d="M10.663,20.339a1.239,1.239,0,0,1-1.976-1.5,5.7,5.7,0,0,1,.433-.5,8.612,8.612,0,0,1,1.144-1,7.2,7.2,0,0,1,8.739,0,8.615,8.615,0,0,1,1.144,1,5.624,5.624,0,0,1,.434.5v0A1.239,1.239,0,0,1,18.6,20.339l-.006-.007-.042-.051c-.041-.049-.108-.125-.2-.22a6.122,6.122,0,0,0-.812-.707,4.945,4.945,0,0,0-2.912-1,4.945,4.945,0,0,0-2.912,1,6.128,6.128,0,0,0-.812.707c-.091.095-.157.171-.2.22l-.042.051Z" transform="translate(-23653.004 -18668)" fill="#f1f1f1" fill-rule="evenodd"/>
    <path id="emoji-laugh-filled-svgrepo-com" d="M431.959,212.363a1.515,1.515,0,1,0-1.515-1.515A1.515,1.515,0,0,0,431.959,212.363Zm9.088,0a1.515,1.515,0,1,0-1.515-1.515A1.515,1.515,0,0,0,441.048,212.363Z" transform="translate(-24074.875 -18868.471)" fill="#f1f1f1" fill-rule="evenodd"/>
  </g>
</svg>
