<svg xmlns="http://www.w3.org/2000/svg" xmlns:xlink="http://www.w3.org/1999/xlink" width="60" height="60" viewBox="0 0 60 60">
  <defs>
    <filter id="Ellipse_720" x="0" y="0" width="60" height="60" filterUnits="userSpaceOnUse">
      <feOffset dy="3" input="SourceAlpha"/>
      <feGaussianBlur stdDeviation="3" result="blur"/>
      <feFlood flood-opacity="0.161"/>
      <feComposite operator="in" in2="blur"/>
      <feComposite in="SourceGraphic"/>
    </filter>
  </defs>
  <g id="Group_57414" data-name="Group 57414" transform="translate(-321 -49)">
    <g transform="matrix(1, 0, 0, 1, 321, 49)" filter="url(#Ellipse_720)">
      <circle id="Ellipse_720-2" data-name="Ellipse 720" cx="21" cy="21" r="21" transform="translate(9 6)" fill="#fff"/>
    </g>
    <path id="setting-svgrepo-com_1_" data-name="setting-svgrepo-com (1)" d="M89.677,64a.87.87,0,0,1,.828.6l.957,2.973a9.462,9.462,0,0,1,1.153.666l3.055-.658a.87.87,0,0,1,.936.417l2.411,4.173a.87.87,0,0,1-.11,1.019l-2.1,2.314a9.7,9.7,0,0,1,0,1.332l2.1,2.317a.87.87,0,0,1,.11,1.019l-2.411,4.175a.87.87,0,0,1-.936.416l-3.055-.658a9.669,9.669,0,0,1-1.152.666L90.5,87.75a.87.87,0,0,1-.828.6H84.855a.87.87,0,0,1-.828-.6l-.955-2.971a9.557,9.557,0,0,1-1.157-.67l-3.053.659a.87.87,0,0,1-.936-.417l-2.411-4.173a.87.87,0,0,1,.11-1.019l2.1-2.317a9.706,9.706,0,0,1,0-1.329l-2.1-2.317a.87.87,0,0,1-.11-1.019L77.926,68a.87.87,0,0,1,.936-.416l3.053.659a9.66,9.66,0,0,1,1.157-.67l.957-2.971a.87.87,0,0,1,.825-.6h4.822Zm-.637,1.74H85.492L84.5,68.813l-.666.325a8,8,0,0,0-.946.546l-.616.417-3.159-.682L77.342,72.5l2.166,2.4-.052.738a7.967,7.967,0,0,0,0,1.092l.052.738-2.169,2.4,1.776,3.076,3.159-.68.616.416a8,8,0,0,0,.946.546l.666.325.99,3.074h3.552l.992-3.076.665-.324a7.836,7.836,0,0,0,.945-.546l.614-.416,3.161.68,1.774-3.076-2.167-2.4.052-.738a7.968,7.968,0,0,0,0-1.094l-.052-.738L97.2,72.5,95.419,69.42l-3.161.678-.614-.414a7.821,7.821,0,0,0-.945-.546l-.665-.324-.993-3.076Zm-1.774,5.219a5.219,5.219,0,1,1-5.219,5.219A5.219,5.219,0,0,1,87.266,70.958Zm0,1.74a3.479,3.479,0,1,0,3.479,3.479A3.479,3.479,0,0,0,87.266,72.7Z" transform="translate(263.602)" fill="#0e5f02"/>
  </g>
</svg>
