<svg id="Group_52142" data-name="Group 52142" xmlns="http://www.w3.org/2000/svg" width="42.768" height="36.146" viewBox="0 0 42.768 36.146">
  <path id="Path_32609" data-name="Path 32609" d="M.52,50.485c.138-.138.536-.4.682-.114.237.015.593.1.627.37a.8.8,0,0,1,.449.264c.052.062.089.19.141.235.069.062.207.074.3.121.225.119.314.338.467.474s.383.3.328.578c.336-.049.38.361.506.546.052.074.59.482.247.593.242-.094.328.482.235.615.2.064.272.593.054.667.244.143.185.645-.017.79.277.049.19.479.146.635-.052.175.094.543-.116.677.143.232-.128.684-.388.719,0,.035-.02.052-.025.077-.165-.156-.161-.333-.244-.524-.069-.163-.257-.161-.284-.375-.146-.007-.259.114-.415.086s-.161-.133-.252-.215-.222-.136-.321-.21a1.1,1.1,0,0,1-.348-.5,3.372,3.372,0,0,0-.306-.551A.467.467,0,0,0,1.7,55.2c-.161-.047-.183.022-.277-.168-.072-.146-.077-.328-.143-.472a2.1,2.1,0,0,0-.2-.254c-.222-.343-.331-.719-.588-1.05L.52,50.48Z" transform="translate(38.038 -41.859)" fill="#cdb98e"/>
  <path id="Path_32610" data-name="Path 32610" d="M6.415,56.654c-.222-.343-.331-.719-.588-1.05l.01-1.037.77-1.208c.148.037.222.148.328.242s.282.084.4.2c.062.062.062.141.1.2a.9.9,0,0,0,.2.165.771.771,0,0,1,.257.356c.062.178.24.291.289.482.02.077,0,.163.022.24s.074.133.116.22c.081.168-.02.326.015.482s.158.336.069.5a.484.484,0,0,1,.131.5c.215.04.237.447.19.617s-.259.316-.3.459c-.02.077.032.222.017.314-.02.138-.123.212-.17.328s.015.158.035.272a.985.985,0,0,1,.01.151.411.411,0,0,0-.032-.035c-.084-.074-.222-.136-.321-.21a1.1,1.1,0,0,1-.348-.5,3.372,3.372,0,0,0-.306-.551.467.467,0,0,0-.282-.242c-.161-.047-.183.022-.277-.168-.072-.146-.077-.328-.143-.472a2.1,2.1,0,0,0-.2-.254Z" transform="translate(32.704 -44.2)" fill="#b9a780"/>
  <path id="Path_32611" data-name="Path 32611" d="M16.06,140.4a.691.691,0,0,0-.24.58.648.648,0,0,0,.072.38c.047.079.123.119.173.193a.406.406,0,0,1,.037.314,1.832,1.832,0,0,1-.042.227H13.81a2.1,2.1,0,0,1,.069-.42,2.381,2.381,0,0,1,.138-.4c.123-.269.336-.489.437-.761.081-.22.111-.445.183-.662a3.954,3.954,0,0,0,.188-.647c.035-.232.017-.467.04-.7.01-.116.017-.232.027-.353,0-.059.022-.123.032-.183a.627.627,0,0,1,.025-.168l.662-.324c.22.04.42.02.561.215a.439.439,0,0,1,.074.2,1.473,1.473,0,0,1-.042.454,2.338,2.338,0,0,0,0,.926,2.388,2.388,0,0,0,.173.309.7.7,0,0,1,.067.309c0,.284-.2.356-.38.519Z" transform="translate(23.037 -107.086)" fill="#cdc8bc"/>
  <path id="Path_32612" data-name="Path 32612" d="M15.244,99.709c-.044.289.2.548.146.835-.03.151-.217.2-.257.321s.064.368.074.509a1.168,1.168,0,0,1-.037.435c-.052.175-.156.23-.1.388.042.114.2.207.254.336a.893.893,0,0,1,.064.469c-.032.2-.141.235.035.373s.306.119.435.316c.094.143.042.262.079.37s.163.193.217.316c.081.18.032.262.017.435a1.867,1.867,0,0,0,.081.509,1.156,1.156,0,0,1,.04.469c-.037.128-.23.212-.259.321-.044.17.123.457.111.654-.017.316-.168.43-.291.679-.086.17.022.3.074.514a2.577,2.577,0,0,1,.03.827c-.03,0-.069.012-.1.01.064.222.158,1.136-.328.827-.059-.037-.064-.161-.116-.175-.081-.02-.178.123-.244.168-.153.1-.477.212-.44-.1-.185-.032-.316.17-.494-.015a.925.925,0,0,1-.121-.528c-.472-.1-.081-.832.1-1.012-.568-.094-.427-.605-.464-1.05-.583-.091-.447-.862-.716-1.173-.114-.131-.264-.185-.365-.363a1.319,1.319,0,0,1-.143-.714c0-.133.042-.368.027-.479-.025-.183-.086-.161-.2-.316a2.009,2.009,0,0,1-.072-1.551,1.721,1.721,0,0,1,.323-.9.55.55,0,0,0,.163-.267,2,2,0,0,1,.365-.583,1.814,1.814,0,0,1,.43-.538c.358-.24.933-.106,1.242-.4" transform="translate(23.578 -80.929)" fill="#b9a780"/>
  <path id="Path_32613" data-name="Path 32613" d="M16.037,103.888a2.009,2.009,0,0,1-.072-1.551,1.721,1.721,0,0,1,.323-.9.55.55,0,0,0,.163-.267,2,2,0,0,1,.365-.583,1.814,1.814,0,0,1,.43-.538c.358-.24.933-.106,1.242-.4l.435.072c-.044.289.2.548.146.835-.03.151-.217.2-.257.321s.044.321.069.462c-.02.007-.04.017-.062.025-.114.032-.178-.01-.259.084s-.079.222-.148.309-.151.116-.215.185c-.128.141-.079.163-.037.336.054.222-.03.457.022.635a2.7,2.7,0,0,1,.091.336c.01.062.042.1.032.17s-.081.114-.089.17c-.03.232.207.442.173.689-.017.121-.074.143-.057.284a1.445,1.445,0,0,1,.03.4c-.037.23-.321.373-.338.58-.007.086.086.183.128.257a1.081,1.081,0,0,1,.128.393.513.513,0,0,1-.015.338c-.054.114-.123.128-.136.262s.047.178-.022.314a.844.844,0,0,1-.2.252,2.3,2.3,0,0,0-.385.37,2.469,2.469,0,0,1-.084-.8c-.583-.091-.447-.862-.716-1.173-.114-.131-.264-.185-.365-.363a1.319,1.319,0,0,1-.143-.714c0-.133.042-.368.027-.479-.025-.183-.086-.161-.2-.316Z" transform="translate(19.899 -78.767)" fill="#a79673"/>
  <path id="Path_32614" data-name="Path 32614" d="M112.481,128.833h-3.26v0c.119-.849.882-1.506,1.156-2.321a4.544,4.544,0,0,0-.007-1.674c-.042-.553-.185-1.084-.185-1.642l2.045-.373a8.446,8.446,0,0,1,.185.9,8.01,8.01,0,0,0,.3,1.237,9.341,9.341,0,0,1,.286,1.667,3.515,3.515,0,0,1-.247,1.4C112.661,128.295,112.572,128.564,112.481,128.833Z" transform="translate(-96.696 -96.046)" fill="#cdc8bc"/>
  <path id="Path_32615" data-name="Path 32615" d="M112.8,106.778c.072.3-.007,1,.4,1.089a.788.788,0,0,0,.284.654c.131.111.138.089.156.272a.858.858,0,0,0,.062.338c.072.138.138.133.247.22.081.064.052.015.094.123a1.116,1.116,0,0,1,.032.185c.027.193.035.645.336.6a1.192,1.192,0,0,0,.215.679.417.417,0,0,0,.565.04c-.015.242.38.286.556.269a.878.878,0,0,0,.341-.1c.126-.067.153-.163.247-.24s.18-.042.274-.1a.778.778,0,0,0,.249-.459,2.16,2.16,0,0,0-.032-.845,1.377,1.377,0,0,0-.17-.4c-.057-.079-.143-.106-.2-.178-.217-.3.035-.825-.185-1.185a.414.414,0,0,0-.272-.22c-.069-.022-.23-.017-.286-.059-.133-.1-.119-.358-.269-.5a.765.765,0,0,0-.514-.215c-.254-.017-.175-.054-.331-.249s-.3-.106-.526-.091c-.156.012-.4-.069-.5.091" transform="translate(-101.437 -83.845)" fill="#b9a780"/>
  <path id="Path_32616" data-name="Path 32616" d="M114.082,106.412c.225-.017.373-.1.526.091s.077.232.331.249a.765.765,0,0,1,.514.215c.148.141.136.4.269.5.057.042.217.037.286.059a.4.4,0,0,1,.272.22c.217.361-.035.889.185,1.185.052.072.141.1.2.178a1.253,1.253,0,0,1,.17.4,2.161,2.161,0,0,1,.032.845.765.765,0,0,1-.249.459c-.094.057-.19.032-.274.1s-.121.17-.247.24a.907.907,0,0,1-.126.052,5.823,5.823,0,0,1-.521-1.064,1.058,1.058,0,0,1-.946-.743c-.227-.017-.373-.286-.4-.486a1.251,1.251,0,0,1-.452-.077V108.8c-.017-.183-.025-.158-.156-.272a.785.785,0,0,1-.284-.654c-.4-.086-.326-.788-.4-1.089l.775-.279c.1-.161.341-.079.5-.091Z" transform="translate(-101.447 -83.851)" fill="#a79673"/>
  <path id="Path_32617" data-name="Path 32617" d="M32.277,146.26a1.343,1.343,0,0,1,.686-1.087,6.07,6.07,0,0,0,.514-1.543l1.83.23L34.221,146.2a.978.978,0,0,0,.23.887.771.771,0,0,1-.057.773H31.25a6.337,6.337,0,0,1,1.03-1.6Z" transform="translate(-0.022 -111.717)" fill="#f1ebdd"/>
  <path id="Path_32618" data-name="Path 32618" d="M165.646,28.493a2.734,2.734,0,0,0-3.257.2,2.208,2.208,0,0,0,3.072.884S165.984,28.99,165.646,28.493Z" transform="translate(-162.389 -25.327)" fill="#d4c39e"/>
  <path id="Path_32619" data-name="Path 32619" d="M166.875,29.892a2.005,2.005,0,0,0-3.005-.617A2.516,2.516,0,0,0,166.875,29.892Z" transform="translate(-163.87 -25.909)" fill="#463432"/>
  <path id="Path_32620" data-name="Path 32620" d="M7.921,24.253a1.224,1.224,0,0,0,.273-.69,1.6,1.6,0,0,1,.253-.9c.134-.229.3-.393.45-.612a5.6,5.6,0,0,0,.28-.771c.114-.229.363-.4.472-.632a1.756,1.756,0,0,0-.029-.854.6.6,0,0,1,.3-.728c.239-.174.248-.431.458-.622a.966.966,0,0,1,.4-.2c.2-.055.219-.035.365-.212a.96.96,0,0,1,.8-.38c.309-.023.382-.237.611-.418a.977.977,0,0,1,.852-.126c.341.068.5.408.828.466a1.942,1.942,0,0,1,.874.222c.139.1.166.171.329.2s.312-.023.453.038c.256.111.324.355.591.438a.86.86,0,0,1,.316.136c.127.1.153.272.263.353s.26.05.38.194a.689.689,0,0,1,.139.358,3.188,3.188,0,0,0,.039.466c.071.174.282.149.416.31.114.139.068.234.119.388.075.227.144.169.329.242a.814.814,0,0,1,.329.234c.1.136.056.285.2.383.124.086.268.03.377.191a.518.518,0,0,1,.075.315c.163-.091.282-.325.562-.239.166.05.185.116.375.111.153-.005.324-.033.489-.03a3.971,3.971,0,0,0,.414.05c.175-.018.29-.161.489-.128a3.583,3.583,0,0,1,.864.421,5.478,5.478,0,0,1,.9.31c.1.068.187.2.3.254a1.108,1.108,0,0,0,.5.02,2.835,2.835,0,0,1,.633-.071c.175.03.3.169.487.2a6.646,6.646,0,0,0,.976,0,7.3,7.3,0,0,0,1.39.078c.231-.04.436.01.677-.01.187-.015.5-.111.57.159.168.048.292-.073.445-.1a2.882,2.882,0,0,1,.489-.008c.158,0,.309-.038.45-.04a.791.791,0,0,1,.139.013,2.067,2.067,0,0,1,.426-.088c.253-.04.207-.005.4.126a.721.721,0,0,0,.424.106,4.2,4.2,0,0,1,.94.068.834.834,0,0,0,.458-.033,2.015,2.015,0,0,1,.63.071c.3.043.638-.01.94.008a6.084,6.084,0,0,0,1.015-.05,1.033,1.033,0,0,1,.45.04.9.9,0,0,0,.572-.06c.273-.076.377.01.63.081a1.025,1.025,0,0,0,.487-.02,1.2,1.2,0,0,1,.424,0,1.53,1.53,0,0,0,.509-.03,1.445,1.445,0,0,1,.421.04,2.68,2.68,0,0,1,.365.156c.146.04.285-.073.462-.043s.287.133.448.156c.18.025.348-.053.526-.038s.258.118.411.156.363-.043.526.005c.075.023.144.116.226.141a2.006,2.006,0,0,0,.3.008c.156.023.224.151.343.186.075.023.163-.035.219-.023.168.035.107.086.226.189.139.121.183.111.375.113a.919.919,0,0,1,.489.156,3.332,3.332,0,0,1,.759.428.5.5,0,0,1,.146.421.722.722,0,0,1,.672.511c.022.055,0,.146.041.2.058.068.17.045.229.111.136.154.034.355.1.509s.295.136.409.272c.046.055.037.108.073.164s.112.088.151.154a1.1,1.1,0,0,1,.239,1c.38-.063.241.662.265.894.146.053.153.259.146.405,0,.086-.085.217-.034.3s.151,0,.212.076c.131.154,0,.456-.058.622-.058.184-.083.458-.158.625-.112.242-.35.317-.416.582-.034.144,0,.287-.046.428s-.163.28-.175.421c.253-.023.36.093.333.355-.015.139-.092.254-.117.39-.022.116.039.169-.041.3l-.061.015c-.061.282.129.65.107.965a1.422,1.422,0,0,1-.158.466c-.107.269.015.224.085.466a1.352,1.352,0,0,1-.265,1.088,1.375,1.375,0,0,1-.377.312c-.166.123-.127.131-.146.35a1.708,1.708,0,0,1-.528.97,3.7,3.7,0,0,1-.45.38.47.47,0,0,0-.19.358c-.085.408-.389.468-.609.771-.187.259-.073.6-.251.856.277.1.3.307.3.592a.49.49,0,0,1-.075.312c-.051.093-.129.128-.144.224.148.058.355.239.258.438a.239.239,0,0,1-.127.116.55.55,0,0,1,.09.5c-.041.209-.243.358-.273.514-.022.116-.01.262-.029.383a1.01,1.01,0,0,0-.039.348c.044.254.224.431.19.7-.024.2-.221.348-.372.463a.753.753,0,0,1-.071.665c-.095.121-.363.174-.414.317a.133.133,0,0,0-.007.053l-.051-.033c-.051.219.017.489-.107.67-.161.234-.38.358-.528.614a1.741,1.741,0,0,0-.214.748,2.152,2.152,0,0,1,0,.468c-.061.176-.127.146-.122.358,0,.257-.039.675-.406.567-.046-.015-.134-.141-.158-.141-.075-.005-.1.068-.17.083a.459.459,0,0,1-.414-.058c-.075-.053-.141-.207-.231-.227s-.309.133-.406.169a.723.723,0,0,1-.385.068c-.226-.038-.2-.093-.3-.269a.854.854,0,0,1,.178-1.216c.2-.2.148-.37.226-.652.073-.267.353-.37.424-.582.088-.257-.056-.519.083-.776.085-.156.141-.164.144-.353,0-.133-.073-.282-.041-.431.027-.126.122-.159.117-.31,0-.131-.063-.29-.075-.428a1.174,1.174,0,0,1,0-.393c0-.151.007-.3,0-.456a.5.5,0,0,1-.066-.2c-.4-.035-.616-.521-.579-.927a.818.818,0,0,1-.419-.7c-.2-.018-.351.023-.492-.159-.158-.2-.049-.325-.29-.431-.2-.088-.331-.086-.479-.272-.139-.171-.058-.342-.161-.5-.083-.133-.277-.159-.4-.242a1.081,1.081,0,0,1-.348-.458c-.129-.249-.212-.2-.45-.272-.146-.04-.377-.139-.421-.3-.139-.038-.275.043-.406.063a3.168,3.168,0,0,1-.489.008,2.8,2.8,0,0,1-.779-.073c-.192.269-.26.473-.611.5-.243.018-.2,0-.348.186a1.025,1.025,0,0,1-.321.252,1.764,1.764,0,0,1-.716.128c-.148.2-.416.136-.618.237-.248.126-.277.383-.591.4-.183.01-.224-.1-.365-.126-.163-.033-.265.073-.421.136a1.2,1.2,0,0,1-.489.068c-.2-.005-.229-.093-.382-.149-.292-.1-.63.091-.935.033-.117-.023-.214-.1-.336-.118a1.173,1.173,0,0,0-.45.081c-.36.063-.555-.219-.864-.234-.37-.02-.609.136-.949-.028-.27-.131-.531-.025-.815-.156a3.8,3.8,0,0,1-.521-.295l0,.005c-.295.254-.533.37-.859.131.024.393-.314.441-.6.468.056.413-.416.506-.706.5.158.3-.151.65-.421.71a4.406,4.406,0,0,0,.032.849c0,.081.012.214.019.35.041.189.122.385.161.544.068.274.11.584.158.856.1.589.212,1.221.346,1.826.127.577.248,1.148.414,1.7a1.012,1.012,0,0,1-.046.861c-.09.2-.207.39-.277.592l-.063.065a1.212,1.212,0,0,0-.353.549.9.9,0,0,0,.095.622,1.66,1.66,0,0,1,.092.282A14.594,14.594,0,0,1,21.233,51a2.74,2.74,0,0,1,.4-1.753,2.036,2.036,0,0,0,.526-1.66c-.1-.63-.453-1.153-.516-1.791a12.818,12.818,0,0,0-.38-1.785c-.061-.244-.134-.491-.207-.74a.107.107,0,0,1-.027-.008c-.007,0-.012-.005-.019-.005a1.386,1.386,0,0,1-.015-.33c-.411-.04-.9-.184-.864-.738-.487.048-.387-.416-.669-.63-.044-.033-.195-.156-.3-.229-.015-.05-.024-.1-.039-.154-.251.005-.4-.29-.492-.5-.037-.083-.058-.342-.129-.4-.11-.088-.239.04-.377-.005-.268-.086-.3-.461-.535-.536-.156-.05-.295.043-.443-.086a.673.673,0,0,1-.166-.413c-.445-.038-1.015-.04-1.015-.66a3.892,3.892,0,0,1-.64-.229,1.042,1.042,0,0,1-.333-.282c-.056-.091-.022-.317-.08-.38-.136-.151-.511.008-.7-.1-.27-.149-.066-.426-.207-.642-.17-.262-.431-.337-.368-.748.032-.2.124-.267,0-.438-.083-.116-.2-.141-.263-.3a1.357,1.357,0,0,1-.029-.894c.041-.244,0-.121-.131-.3-.1-.139-.068-.282-.1-.441-.046-.229-.019-.657-.19-.824-.11-.108-.246-.113-.341-.262a1.153,1.153,0,0,1-.141-.36c-.022-.126.049-.383-.017-.489s-.207-.086-.258-.239a4.257,4.257,0,0,1-.032-.793.222.222,0,0,1-.163-.013.709.709,0,0,1-.26-.587.544.544,0,0,1-.348-.552.432.432,0,0,1-.348-.164c-.175-.209-.09-.242-.385-.264-.436-.033-.509-.3-.565-.7a1.691,1.691,0,0,0-.148-.468c-.066-.154-.046-.325-.1-.473a1.873,1.873,0,0,1-.2-.458,3.727,3.727,0,0,0-.119-.536,1.868,1.868,0,0,1-.443-.086,1.764,1.764,0,0,1-.482-.086c-.365-.154-.4-.451-.428-.8-.633-.212-.5-.949-.226-1.415Z" transform="translate(-6.729 -17.07)" fill="#cdb98e"/>
  <path id="Path_32621" data-name="Path 32621" d="M140.948,48.385a2.014,2.014,0,0,1,.41-.422,2.99,2.99,0,0,1,.832-.44c.264-.084.356-.025.575.123l1.943,1.173a1.939,1.939,0,0,0,.052.235c.01.116-.035.151-.052.252-.03.188.1.346-.064.506-.081.079-.1,0-.165.148-.027.062-.054.165-.079.235-.079.232.111.291.1.5-.007.183-.1.267.069.435.03.03.1.04.116.079s-.025.094-.01.121a.173.173,0,0,0,.2.116.54.54,0,0,0,.257-.116c.064-.04.217-.084.257-.119.156-.133.074-.4.089-.593a.485.485,0,0,1,.19.02c.089-.244.077-.417.373-.43.015-.148,0-.365.2-.4s.21.207.346.257a.613.613,0,0,0,.143-.2c.025-.077-.022-.18,0-.259.054-.22.207-.161.368-.146.017-.2-.057-.375.175-.425.1-.02.163.032.23-.057.027-.035.012-.21.027-.259.059-.225.178-.237.351-.336a.285.285,0,0,0,.141-.375.52.52,0,0,1,.19.568c-.047.153-.165.111-.244.207s-.03.254-.042.363a.7.7,0,0,1-.136.373c-.1.123-.17.1-.2.257-.052.294-.062.491-.4.578a.889.889,0,0,1-.17.6c-.062.054-.188.057-.232.114s-.01.235-.032.309c-.072.242-.333.3-.373.514-.044.242-.052.422-.338.491a.868.868,0,0,1-.138.489c-.094.133-.232.38-.432.368a1.206,1.206,0,0,1-.143.282c-.052.1-.037.237-.119.336a.518.518,0,0,1-.185.133,4.458,4.458,0,0,0,0-.514.233.233,0,0,1-.165-.012.685.685,0,0,1-.264-.575.533.533,0,0,1-.353-.541.444.444,0,0,1-.353-.161c-.178-.2-.091-.237-.39-.259-.442-.032-.516-.3-.573-.687a1.618,1.618,0,0,0-.151-.459c-.067-.151-.047-.319-.106-.464a1.806,1.806,0,0,1-.2-.449,3.549,3.549,0,0,0-.121-.526,1.953,1.953,0,0,1-.449-.084,1.846,1.846,0,0,1-.489-.084c-.37-.151-.4-.442-.435-.785a.267.267,0,0,1-.047-.02Z" transform="translate(-139.57 -39.803)" fill="#b9a780"/>
  <path id="Path_32622" data-name="Path 32622" d="M141.322,31.54a1.531,1.531,0,0,1,.257-.884c.136-.225.309-.385.457-.6a5.377,5.377,0,0,0,.284-.756c.116-.225.368-.393.479-.62a1.26,1.26,0,0,0,0-.684c.183.057.415.091.467-.03a.406.406,0,0,0,.425.215c.178-.03.269-.22.412-.3.089-.052.039-.067.136-.025.079.035.1.133.158.185a.346.346,0,0,0,.37.044c.079.3.338.365.625.365.121,0,.23-.057.338-.044.146.017.247.111.417.094a.542.542,0,0,0,.3-.116c.138-.121.067-.121.24-.062.225.077.573.084.645-.212.168,0,.447.437.63.252a1.551,1.551,0,0,0,.01.356c.059.156.207.1.291.175.156.136.057.637.291.721-.153.116-.348.311-.222.528a.592.592,0,0,0-.37.415c-.207-.067-.669.012-.714.274-.18.02-.385-.042-.538.077s-.133.242-.148.415a.747.747,0,0,0-.654.5,2,2,0,0,1-.054.269c-.042.086-.17.141-.244.22a.942.942,0,0,0-.2.64c-.01.2-.173.333-.22.541-.042.183.064.4-.032.536-.116.168-.316.121-.486.153-.368.069-.714.21-1.082.247a5.152,5.152,0,0,0-.59.022,1.557,1.557,0,0,0-.341.151c0-.015-.007-.027-.012-.042a1.954,1.954,0,0,1-.449-.084,1.846,1.846,0,0,1-.489-.084c-.37-.151-.4-.442-.435-.785-.642-.207-.511-.931-.23-1.388a1.178,1.178,0,0,0,.277-.677Z" transform="translate(-139.852 -25.174)" fill="#f1ebdd"/>
  <path id="Path_32623" data-name="Path 32623" d="M134.02,31.253s.368-1.82,1.916,0a1.162,1.162,0,0,1-1.916.615Z" transform="translate(-125.679 -27.142)" fill="#f1ebdd"/>
  <path id="Path_32624" data-name="Path 32624" d="M136.908,31.936a1.369,1.369,0,0,1-1.153.783,2.168,2.168,0,0,1-.444-.22v-.615a1.535,1.535,0,0,1,.19-.464c.319-.212.812-.284,1.408.519Z" transform="translate(-126.968 -27.771)" fill="#463432"/>
  <path id="Path_32625" data-name="Path 32625" d="M146.989,33.2s-.642-.743-1.129.03A1.147,1.147,0,0,0,146.989,33.2Z" transform="translate(-139.536 -28.974)" fill="#463432"/>
  <path id="Path_32626" data-name="Path 32626" d="M149.06,33.949a2.326,2.326,0,0,1,1.02-.919l-.106.225a3.7,3.7,0,0,0-.914.694Z" transform="translate(-143.417 -29.089)" fill="#463432"/>
  <g id="Group_52141" data-name="Group 52141" transform="translate(1.425 7.885)">
    <path id="Path_32627" data-name="Path 32627" d="M159.6,48.412v0Z" transform="translate(-156.965 -48.4)" fill="#463432"/>
    <path id="Path_32628" data-name="Path 32628" d="M162.235,48.45c-.074,1.017-1.9,1-2.6.946-.015-.084-.025-.173-.035-.264C162.013,49.317,162.218,48.551,162.235,48.45Z" transform="translate(-159.6 -48.438)" fill="#463432"/>
  </g>
  <path id="Path_32629" data-name="Path 32629" d="M163.68,44.457a.6.6,0,0,1,.5-.427s.178-.044.3-.328c0,0,.311-.23.311.153,0,0-.01.4-.612.4A.547.547,0,0,0,163.68,44.457Z" transform="translate(-161.744 -36.949)" fill="#463432"/>
  <path id="Path_32630" data-name="Path 32630" d="M105.22,127.653a1.954,1.954,0,0,0,.533-1.627c-.1-.617-.459-1.131-.524-1.756a12.206,12.206,0,0,0-.385-1.751c-.025-.1-.052-.193-.079-.291a.4.4,0,0,0,.462-.207c.044.247.121.548.393.64.242.081.449-.086.635-.22.012.235.116,1.235.553.793a.392.392,0,0,0,.079-.114c.1.548.2,1.129.333,1.689s.252,1.126.42,1.669a.962.962,0,0,1-.047.845c-.091.2-.21.383-.282.58l-.064.064a1.185,1.185,0,0,0-.358.538.853.853,0,0,0,.1.61,1.59,1.59,0,0,1,.094.277,15.32,15.32,0,0,1-2.26-.015,2.615,2.615,0,0,1,.4-1.719Z" transform="translate(-90.325 -95.444)" fill="#f1ebdd"/>
  <path id="Path_32631" data-name="Path 32631" d="M118.869,142.933a3.542,3.542,0,0,1,.654-1.383c.123.109.225.19.207.368.286-.049.514.279.538.524a1.775,1.775,0,0,1-.035.5h-1.368v0Z" transform="translate(-106.333 -110.151)" fill="#cdb98e"/>
  <path id="Path_32632" data-name="Path 32632" d="M110.732,148.23c.025,0,.049.007.077.015a2.188,2.188,0,0,0,.486.143,1.182,1.182,0,0,1,.457.109.73.73,0,0,1,.37.659c-.489.007-.983,0-1.442-.044a3.374,3.374,0,0,1,.049-.879Z" transform="translate(-96.184 -115.181)" fill="#cdb98e"/>
  <path id="Path_32633" data-name="Path 32633" d="M19,152.484a2.381,2.381,0,0,1,.138-.4,2.636,2.636,0,0,1,.146-.257.981.981,0,0,1,.138.153c.1.148.143.375.3.472s.348.114.479.257a.427.427,0,0,1,.1.19H18.93a2.1,2.1,0,0,1,.069-.42Z" transform="translate(17.917 -117.892)" fill="#cdb98e"/>
  <path id="Path_32634" data-name="Path 32634" d="M38.482,156.621a7.146,7.146,0,0,1,.815-1.361.572.572,0,0,1,.247.331c.17-.116.546.138.706.21a.72.72,0,0,1,.452.563c.017.069.035.161.054.257H38.48Z" transform="translate(-7.237 -120.475)" fill="#cdb98e"/>
  <path id="Path_32635" data-name="Path 32635" d="M46.839,96.017a.51.51,0,0,0,.089-.615c.173-.165.136-.316.089-.524-.042-.188.025-.558-.2-.662.062-.151.2-.659-.052-.709.225-.015.375.284.42.457.025.106,0,.244.027.343.04.119.17.22.225.341s.017.284.067.4.2.183.247.314c.017.054-.015.121,0,.17.022.067.086.111.123.17a3.132,3.132,0,0,1,.141.309c.173.047.331-.232.511-.254.089-.01.114.027.212-.02.079-.035.156-.163.22-.04.067-.044.106-.116.2-.148s.131.015.2.01c.094-.007.165-.049.259-.059.114-.01.161.044.257.059s.178-.025.257,0a.775.775,0,0,1,.109.027c.027.012.027.1.069.111.089.02.247-.1.361-.081a.274.274,0,0,1,.269.257.712.712,0,0,1,.622-.062,2.6,2.6,0,0,0,.459.01,2.523,2.523,0,0,0,.452.01c.222-.049.4-.319.642-.131.158-.064.351-.126.5-.2.114-.054.561-.516.578-.227.173,0,.321-.249.538-.225.081.01.131.084.2.089.094,0,.153-.1.227-.148a.463.463,0,0,1,.323-.079c.168.049.072.1.244.054.116-.035.41-.254.469,0,.109-.035.4-.23.43,0,.185-.052.151-.032.309.084.116.084.237.017.351.084.069.042.059.126.136.156.04.015.247-.035.309-.032.141.007.437.025.469.2-.022-.111.645.057.669.049.084-.03.119-.138.19-.19a.4.4,0,0,1,.447,0,.669.669,0,0,1,.321-.519c.2-.106.294-.035.422-.249s.277-.24.472-.37c.143-.1.277-.215.417-.311a1.677,1.677,0,0,1-.222.6,2.324,2.324,0,0,0-.2.316c-.052.094-.17.156-.222.257a1.673,1.673,0,0,0-.086.316.4.4,0,0,0-.035.17c.007.062.079.126.081.17,0,.119-.091.21-.081.343a1.044,1.044,0,0,0,.121.309.318.318,0,0,1,.346.351c-.01.067-.054.146-.064.227,0,.04-.01.079-.012.116-.025-.044-.049-.089-.074-.136-.131-.244-.215-.2-.457-.267-.148-.04-.383-.136-.427-.3-.141-.037-.279.042-.412.062a3.326,3.326,0,0,1-.5.007,2.936,2.936,0,0,1-.79-.072c-.2.264-.264.464-.62.489-.247.017-.2,0-.353.183a1.036,1.036,0,0,1-.326.247,1.844,1.844,0,0,1-.726.126c-.151.2-.422.133-.627.232-.252.123-.282.375-.6.393-.185.01-.227-.1-.37-.123-.165-.032-.269.072-.427.133a1.253,1.253,0,0,1-.5.067c-.2,0-.232-.091-.388-.146-.3-.1-.64.089-.948.032-.119-.022-.217-.1-.341-.116a1.227,1.227,0,0,0-.457.079c-.365.062-.563-.215-.877-.23-.375-.02-.617.133-.963-.027-.274-.128-.538-.025-.827-.153a3.887,3.887,0,0,1-.528-.289l0,0c-.277.23-.5.341-.8.173,0-.03,0-.057-.007-.086-.022-.272,0-.682-.338-.778,0-.21.119-.494-.23-.516Z" transform="translate(-29.56 -74.229)" fill="#b9a780"/>
  <path id="Path_32636" data-name="Path 32636" d="M128.568,94.12c-.153-.23-.378-.314-.38-.61a1.158,1.158,0,0,0,.353.086c.22.022.252.2.457.286.153.059.388.119.491-.047a.339.339,0,0,0,.338.133c.1-.012.235-.148.314-.146s.2.165.314.175.232,0,.257-.133c.165.343.269.358.63.326.121-.01.072-.079.193.035.079.074.074.175.207.2.17.035.282-.116.422-.141a.38.38,0,0,0,.543.284,4.461,4.461,0,0,0,.072.766c.059.215-.049.348-.037.578a1.4,1.4,0,0,0,.052.227,1.232,1.232,0,0,1,.007.286,1.227,1.227,0,0,0,.03.286c.01.044-.015.094,0,.136s.106.072.133.121a.829.829,0,0,1,.047.388.659.659,0,0,1-.272.025c-.272-.084-.309-.452-.543-.526-.158-.049-.3.042-.449-.084a.648.648,0,0,1-.168-.4c-.452-.037-1.03-.04-1.03-.647a4.04,4.04,0,0,1-.649-.225,1.05,1.05,0,0,1-.338-.277c-.057-.089-.022-.311-.081-.373-.138-.148-.519.007-.709-.094-.274-.146-.067-.417-.21-.63Z" transform="translate(-121.305 -74.24)" fill="#b9a780"/>
</svg>
