<svg xmlns="http://www.w3.org/2000/svg" width="38" height="38" viewBox="0 0 38 38">
  <g id="Group_56528" data-name="Group 56528" transform="translate(-319 -223)">
    <circle id="Ellipse_816" data-name="Ellipse 816" cx="19" cy="19" r="19" transform="translate(319 223)" fill="#f1f1f1"/>
    <path id="star-svgrepo-com_1_" data-name="star-svgrepo-com (1)" d="M11.075,3.256a1,1,0,0,1,1.85,0l1.724,4.2a1,1,0,0,0,.85.618l4.531.341a1,1,0,0,1,.572,1.76l-3.465,2.939a1,1,0,0,0-.325,1l1.076,4.414a1,1,0,0,1-1.5,1.088L12.526,17.23a1,1,0,0,0-1.051,0L7.609,19.618a1,1,0,0,1-1.5-1.088l1.076-4.414a1,1,0,0,0-.325-1L3.4,10.178a1,1,0,0,1,.572-1.76L8.5,8.077a1,1,0,0,0,.85-.618Z" transform="translate(325.957 230.365)" fill="#fbca4b"/>
  </g>
</svg>
