<svg xmlns="http://www.w3.org/2000/svg" width="19.954" height="19.166" viewBox="0 0 19.954 19.166">
  <path id="star-svgrepo-com_1_" data-name="star-svgrepo-com (1)" d="M11.075,3.256a1,1,0,0,1,1.85,0l1.724,4.2a1,1,0,0,0,.85.618l4.531.341a1,1,0,0,1,.572,1.76l-3.465,2.939a1,1,0,0,0-.325,1l1.076,4.414a1,1,0,0,1-1.5,1.088L12.526,17.23a1,1,0,0,0-1.051,0L7.609,19.618a1,1,0,0,1-1.5-1.088l1.076-4.414a1,1,0,0,0-.325-1L3.4,10.178a1,1,0,0,1,.572-1.76L8.5,8.077a1,1,0,0,0,.85-.618Z" transform="translate(-2.023 -1.635)" fill="none" stroke="#707070" stroke-width="2"/>
</svg>
