<svg xmlns="http://www.w3.org/2000/svg" width="306.585" height="242.797" viewBox="0 0 306.585 242.797">
  <g id="Group_57844" data-name="Group 57844" transform="translate(0 -0.001)">
    <g id="Group_57797" data-name="Group 57797" transform="translate(79.686 104.419)">
      <g id="Group_57794" data-name="Group 57794">
        <ellipse id="Ellipse_863" data-name="Ellipse 863" cx="69.19" cy="69.189" rx="69.19" ry="69.189" fill="#0e5f02"/>
      </g>
      <g id="Group_57796" data-name="Group 57796" transform="translate(39.77 39.963)">
        <g id="Group_57795" data-name="Group 57795">
          <path id="Path_41635" data-name="Path 41635" d="M312.374,205.524c.872.714-12.051,18.1-28.86,38.823-3.594,4.361-7.03,8.536-10.2,12.368l-1.4,1.691-1.507-1.533c-13.135-13.531-22.121-23.6-21.486-24.235s10.677,8.325,24.235,21.486l-2.881.159c3.119-3.885,6.475-8.113,10.016-12.5C297.125,221.038,311.5,204.811,312.374,205.524Z" transform="translate(-248.888 -205.501)" fill="#fff"/>
        </g>
      </g>
    </g>
    <g id="Group_57798" data-name="Group 57798" transform="translate(235.667 139.153)">
      <path id="Path_41636" data-name="Path 41636" d="M304.356,210.1c-2.061-7.268-11.5-6.554-11.5-6.554l.264,5.048c5.471-.951,8.854,5.471,8.854,5.471Z" transform="translate(-292.86 -203.523)" fill="#0e5f02"/>
    </g>
    <g id="Group_57799" data-name="Group 57799" transform="translate(35.234 154.402)">
      <path id="Path_41637" data-name="Path 41637" d="M228.516,215.866c-2.061-7.268-11.5-6.554-11.5-6.554l.264,5.048c5.471-.951,8.854,5.471,8.854,5.471Z" transform="translate(-217.02 -209.293)" fill="#e0e0e0"/>
    </g>
    <g id="Group_57800" data-name="Group 57800" transform="translate(154.056 47.281)">
      <path id="Path_41638" data-name="Path 41638" d="M265.046,181.895c10.968,3.33,17.786-9.329,17.786-9.329l-6.66-3.806c-3.251,7.744-14.192,6.845-14.192,6.845Z" transform="translate(-261.98 -168.76)" fill="#e0e0e0"/>
    </g>
    <g id="Group_57801" data-name="Group 57801" transform="translate(90.601 74.026)">
      <path id="Path_41639" data-name="Path 41639" d="M243.679,178.88c-5.1.529-5.709,6.951-5.709,6.951l3.409.4c0-3.753,4.678-5.312,4.678-5.312Z" transform="translate(-237.97 -178.88)" fill="#0e5f02"/>
    </g>
    <g id="Group_57802" data-name="Group 57802" transform="translate(299.968 113.616)">
      <path id="Path_41640" data-name="Path 41640" d="M323.744,201.1c.74-5.074-5.312-7.241-5.312-7.241l-1.242,3.2c3.647.925,3.991,5.841,3.991,5.841Z" transform="translate(-317.19 -193.86)" fill="#e0e0e0"/>
    </g>
    <g id="Group_57803" data-name="Group 57803" transform="translate(119.514 0.001)">
      <path id="Path_41641" data-name="Path 41641" d="M255.464,158.111c.74-5.074-5.312-7.241-5.312-7.241l-1.242,3.2c3.647.925,3.964,5.841,3.964,5.841Z" transform="translate(-248.91 -150.87)" fill="#0e5f02"/>
    </g>
    <g id="Group_57804" data-name="Group 57804" transform="translate(0 85.761)">
      <path id="Path_41642" data-name="Path 41642" d="M203.746,186.65c-.925,7.955,9.62,9.884,9.62,9.884l1.9-5.206c-6.316-.581-7.241-8.008-7.241-8.008Z" transform="translate(-203.688 -183.32)" fill="#0e5f02"/>
    </g>
    <g id="Group_57805" data-name="Group 57805" transform="translate(232.628 53.386)">
      <path id="Path_41643" data-name="Path 41643" d="M293.719,177.941c5.127.291,6.766-5.92,6.766-5.92l-3.3-.951c-.608,3.726-5.471,4.466-5.471,4.466Z" transform="translate(-291.71 -171.07)" fill="#0e5f02"/>
    </g>
    <g id="Group_57824" data-name="Group 57824" transform="translate(254.167 69.639)">
      <g id="Group_57810" data-name="Group 57810">
        <g id="Group_57807" data-name="Group 57807" transform="translate(0 11.073)">
          <g id="Group_57806" data-name="Group 57806">
            <path id="Path_41644" data-name="Path 41644" d="M308.317,181.833c0,.238-1.9.423-4.229.423s-4.229-.185-4.229-.423,1.9-.423,4.229-.423S308.317,181.595,308.317,181.833Z" transform="translate(-299.86 -181.41)" fill="#e0e0e0"/>
          </g>
        </g>
        <g id="Group_57809" data-name="Group 57809" transform="translate(12.527)">
          <g id="Group_57808" data-name="Group 57808">
            <path id="Path_41645" data-name="Path 41645" d="M305.023,177.22c.238,0,.423,1.929.423,4.281,0,2.379-.185,4.281-.423,4.281s-.423-1.929-.423-4.281C304.6,179.123,304.785,177.22,305.023,177.22Z" transform="translate(-304.6 -177.22)" fill="#e0e0e0"/>
          </g>
        </g>
      </g>
      <g id="Group_57815" data-name="Group 57815" transform="translate(12.818 10.783)">
        <g id="Group_57812" data-name="Group 57812" transform="translate(4.916)">
          <g id="Group_57811" data-name="Group 57811">
            <path id="Path_41646" data-name="Path 41646" d="M306.57,181.723c0-.238,1.9-.423,4.229-.423s4.229.185,4.229.423-1.9.423-4.229.423C308.446,182.146,306.57,181.961,306.57,181.723Z" transform="translate(-306.57 -181.3)" fill="#e0e0e0"/>
          </g>
        </g>
        <g id="Group_57814" data-name="Group 57814" transform="translate(0 3.383)">
          <g id="Group_57813" data-name="Group 57813">
            <path id="Path_41647" data-name="Path 41647" d="M305.133,191.143c-.238,0-.423-1.929-.423-4.281,0-2.379.185-4.281.423-4.281s.423,1.929.423,4.281C305.529,189.213,305.344,191.143,305.133,191.143Z" transform="translate(-304.71 -182.58)" fill="#e0e0e0"/>
          </g>
        </g>
      </g>
      <g id="Group_57817" data-name="Group 57817" transform="translate(17.018 14.169)">
        <g id="Group_57816" data-name="Group 57816">
          <path id="Path_41648" data-name="Path 41648" d="M309.34,186.2c-.185.159-.978-.529-1.824-1.533-.819-1-1.348-1.929-1.189-2.061.185-.159.978.529,1.824,1.533C309,185.115,309.525,186.04,309.34,186.2Z" transform="translate(-306.299 -182.581)" fill="#e0e0e0"/>
        </g>
      </g>
      <g id="Group_57819" data-name="Group 57819" transform="translate(16.517 4.705)">
        <g id="Group_57818" data-name="Group 57818">
          <path id="Path_41649" data-name="Path 41649" d="M309.255,179.026c.159.159-.4,1-1.269,1.876s-1.691,1.454-1.85,1.295.4-1,1.269-1.876S309.1,178.868,309.255,179.026Z" transform="translate(-306.11 -179)" fill="#e0e0e0"/>
        </g>
      </g>
      <g id="Group_57821" data-name="Group 57821" transform="translate(7.003 5.533)">
        <g id="Group_57820" data-name="Group 57820">
          <path id="Path_41650" data-name="Path 41650" d="M305.5,181.841c-.159.185-.925-.238-1.744-.925s-1.374-1.374-1.216-1.559.925.238,1.744.925C305.074,180.969,305.629,181.683,305.5,181.841Z" transform="translate(-302.51 -179.314)" fill="#e0e0e0"/>
        </g>
      </g>
      <g id="Group_57823" data-name="Group 57823" transform="translate(6.735 13.795)">
        <g id="Group_57822" data-name="Group 57822">
          <path id="Path_41651" data-name="Path 41651" d="M305.267,182.467c.158.159-.317.978-1.11,1.824s-1.559,1.427-1.718,1.268.317-.978,1.11-1.824C304.342,182.863,305.108,182.308,305.267,182.467Z" transform="translate(-302.409 -182.44)" fill="#e0e0e0"/>
        </g>
      </g>
    </g>
    <g id="Group_57843" data-name="Group 57843" transform="translate(23.922 46.065)">
      <g id="Group_57829" data-name="Group 57829">
        <g id="Group_57826" data-name="Group 57826" transform="translate(0 11.073)">
          <g id="Group_57825" data-name="Group 57825">
            <path id="Path_41652" data-name="Path 41652" d="M221.2,172.913c0,.238-1.9.423-4.228.423s-4.229-.185-4.229-.423,1.9-.423,4.229-.423C219.321,172.516,221.2,172.7,221.2,172.913Z" transform="translate(-212.74 -172.49)" fill="green"/>
          </g>
        </g>
        <g id="Group_57828" data-name="Group 57828" transform="translate(12.527)">
          <g id="Group_57827" data-name="Group 57827">
            <path id="Path_41653" data-name="Path 41653" d="M217.9,168.3c.238,0,.423,1.929.423,4.281,0,2.379-.185,4.281-.423,4.281s-.423-1.929-.423-4.281S217.665,168.3,217.9,168.3Z" transform="translate(-217.48 -168.3)" fill="green"/>
          </g>
        </g>
      </g>
      <g id="Group_57834" data-name="Group 57834" transform="translate(12.818 10.809)">
        <g id="Group_57831" data-name="Group 57831" transform="translate(4.916)">
          <g id="Group_57830" data-name="Group 57830">
            <path id="Path_41654" data-name="Path 41654" d="M219.45,172.813c0-.238,1.9-.423,4.229-.423s4.229.185,4.229.423-1.9.423-4.229.423S219.45,173.051,219.45,172.813Z" transform="translate(-219.45 -172.39)" fill="green"/>
          </g>
        </g>
        <g id="Group_57833" data-name="Group 57833" transform="translate(0 3.356)">
          <g id="Group_57832" data-name="Group 57832">
            <path id="Path_41655" data-name="Path 41655" d="M218.013,182.223c-.238,0-.423-1.929-.423-4.281,0-2.379.185-4.281.423-4.281s.423,1.929.423,4.281S218.251,182.223,218.013,182.223Z" transform="translate(-217.59 -173.66)" fill="green"/>
          </g>
        </g>
      </g>
      <g id="Group_57836" data-name="Group 57836" transform="translate(17.045 14.196)">
        <g id="Group_57835" data-name="Group 57835">
          <path id="Path_41656" data-name="Path 41656" d="M222.23,177.288c-.185.159-.978-.529-1.824-1.533-.819-1-1.348-1.929-1.189-2.061.185-.159.978.529,1.824,1.533C221.86,176.2,222.389,177.13,222.23,177.288Z" transform="translate(-219.189 -173.671)" fill="green"/>
        </g>
      </g>
      <g id="Group_57838" data-name="Group 57838" transform="translate(16.544 4.731)">
        <g id="Group_57837" data-name="Group 57837">
          <path id="Path_41657" data-name="Path 41657" d="M222.145,170.116c.159.159-.4,1-1.268,1.876s-1.691,1.454-1.85,1.3.4-1,1.269-1.876C221.141,170.539,221.987,169.958,222.145,170.116Z" transform="translate(-219 -170.09)" fill="green"/>
        </g>
      </g>
      <g id="Group_57840" data-name="Group 57840" transform="translate(7.003 5.559)">
        <g id="Group_57839" data-name="Group 57839">
          <path id="Path_41658" data-name="Path 41658" d="M218.377,172.931c-.159.185-.925-.238-1.744-.925s-1.374-1.374-1.216-1.559.925.238,1.744.925S218.535,172.746,218.377,172.931Z" transform="translate(-215.39 -170.404)" fill="green"/>
        </g>
      </g>
      <g id="Group_57842" data-name="Group 57842" transform="translate(6.762 13.796)">
        <g id="Group_57841" data-name="Group 57841">
          <path id="Path_41659" data-name="Path 41659" d="M218.157,173.546c.159.159-.317.978-1.11,1.824s-1.559,1.427-1.718,1.269.317-.978,1.11-1.824C217.205,173.969,217.972,173.388,218.157,173.546Z" transform="translate(-215.299 -173.52)" fill="green"/>
        </g>
      </g>
    </g>
  </g>
</svg>
