<svg xmlns="http://www.w3.org/2000/svg" width="34" height="34" viewBox="0 0 34 34">
  <g id="Group_56475" data-name="Group 56475" transform="translate(-32 -456)">
    <g id="Group_56435" data-name="Group 56435" transform="translate(2.68 294.68)">
      <circle id="Ellipse_814" data-name="Ellipse 814" cx="17" cy="17" r="17" transform="translate(29.32 161.32)" fill="#0e5f02"/>
    </g>
    <g id="Group_56438" data-name="Group 56438" transform="translate(1 0.641)">
      <g id="Group_51366" data-name="Group 51366" transform="translate(36 462.359)">
        <path id="Path_40529" data-name="Path 40529" d="M140.157,37v1.1a.311.311,0,0,1-.08.215,1.54,1.54,0,0,1-1.485.519c-.662-.2-.641,1.536-.538,2.557a.327.327,0,0,0,.137.236c.253.178.631.408.749.349a2.791,2.791,0,0,1,.887-.007.285.285,0,0,1,.129.043,1.394,1.394,0,0,1,.636,1.273,1.1,1.1,0,0,0,.825,1.121.294.294,0,0,0,.091.013h1.215a.314.314,0,0,1,.084.011c.347.1.844.351.844.862,0,.336-.176,2.375-.112,3.411a.3.3,0,0,0,.093.2c.415.393,2,.743,2-.2m0,.46c-.139-.209.375-1.544.433-1.952.058-.349.313-.995.869-.785a2.167,2.167,0,0,0,1.391,0,.9.9,0,0,0,.7-1.134,14.824,14.824,0,0,1,0-3.62" transform="translate(-125.324 -37)" fill="none" stroke="#fff" stroke-width="0.4"/>
        <path id="Path_40530" data-name="Path 40530" d="M130.54,51.749a10.18,10.18,0,0,0-15.861-12.177l.239.27a9.828,9.828,0,0,1,15.3,11.746Z" transform="translate(-106.058 -37)" fill="#fff"/>
        <line id="Line_158" data-name="Line 158" y2="2.618" transform="translate(8.677 0.349)" fill="none" stroke="#fff" stroke-width="0.5"/>
        <line id="Line_159" data-name="Line 159" x2="2.434" transform="translate(8.503 2.792)" fill="none" stroke="#fff" stroke-width="0.5"/>
        <path id="Path_40531" data-name="Path 40531" d="M175.056,132.128a10.177,10.177,0,0,0,4.484-3.4l-.288-.217a9.816,9.816,0,0,1-4.326,3.282Z" transform="translate(-155.829 -112.54)" fill="#fff"/>
        <line id="Line_160" data-name="Line 160" y1="2.618" transform="translate(23.631 15.88)" fill="none" stroke="#fff" stroke-width="0.5"/>
        <line id="Line_161" data-name="Line 161" x1="2.434" transform="translate(21.371 16.054)" fill="none" stroke="#fff" stroke-width="0.5"/>
        <path id="Path_40532" data-name="Path 40532" d="M128.879,100.563a.343.343,0,0,0-.283-.047.2.2,0,0,1,.023-.26l.236-.237a.215.215,0,0,1,.283,0l.047.047a1.958,1.958,0,0,1,.366-.142v-.106a.207.207,0,0,1,.2-.2h.33a.207.207,0,0,1,.2.2v.106a1.5,1.5,0,0,1,.472.2l.024-.024a.2.2,0,0,1,.283,0l.236.237a.194.194,0,0,1,0,.284l-.035.036a1.974,1.974,0,0,1,.142.367h.071a.207.207,0,0,1,.2.2v.331a.207.207,0,0,1-.2.2h-.106a1.961,1.961,0,0,1-.141.367l.035.036a.194.194,0,0,1,0,.284l-.236.237a.215.215,0,0,1-.283,0l-.023-.024a1.389,1.389,0,0,1-.472.2v.106a.207.207,0,0,1-.2.2h-.33a.207.207,0,0,1-.2-.2v-.106a.685.685,0,0,1-.165-.059,1.794,1.794,0,0,0,.023-.248.825.825,0,0,0,.224.071.2.2,0,0,1,.153.2v.118h.259v-.095a.2.2,0,0,1,.153-.2,1.194,1.194,0,0,0,.436-.189.2.2,0,0,1,.259.024l.012.012.177-.178-.035-.035a.235.235,0,0,1-.035-.248,1.586,1.586,0,0,0,.141-.355.2.2,0,0,1,.2-.154h.118v-.26h-.094a.2.2,0,0,1-.2-.154,1.118,1.118,0,0,0-.142-.355.2.2,0,0,1,.035-.248l.035-.035-.177-.177-.012.012a.2.2,0,0,1-.259.024,1.193,1.193,0,0,0-.436-.189.2.2,0,0,1-.153-.2v-.071h-.259v.095a.2.2,0,0,1-.153.2.953.953,0,0,0-.342.142.2.2,0,0,1-.248-.035l-.035-.036-.177.178.012.012A.163.163,0,0,1,128.879,100.563Z" transform="translate(-117.524 -88.69)" fill="#fff"/>
        <path id="Path_40533" data-name="Path 40533" d="M84.833,101.011a.578.578,0,1,1,.578.58A.58.58,0,0,1,84.833,101.011Zm.92,0a.342.342,0,1,0-.342.343A.343.343,0,0,0,85.753,101.011Z" transform="translate(-81.402 -89.362)" fill="#fff"/>
        <path id="Path_40534" data-name="Path 40534" d="M134,106.945a.613.613,0,1,1-.613-.615A.61.61,0,0,1,134,106.945Zm-.99,0a.377.377,0,1,0,.377-.379A.373.373,0,0,0,133.014,106.945Z" transform="translate(-121.01 -94.232)" fill="#fff"/>
        <path id="Path_40535" data-name="Path 40535" d="M80.9,97.708a1.262,1.262,0,1,1,1.262,1.278A1.268,1.268,0,0,1,80.9,97.708Zm2.288,0a1.026,1.026,0,1,0-1.026,1.041A1.039,1.039,0,0,0,83.188,97.708Z" transform="translate(-78.153 -86.059)" fill="#fff"/>
        <g id="Group_56436" data-name="Group 56436" transform="translate(0 19.695)">
          <path id="Path_40536" data-name="Path 40536" d="M65.1,149.983a.112.112,0,0,1,.118-.118H80.076a.118.118,0,0,1,0,.237H65.218A.112.112,0,0,1,65.1,149.983Z" transform="translate(-65.1 -149.865)" fill="#fff"/>
        </g>
        <path id="Path_40537" data-name="Path 40537" d="M95.068,110.275H90.351a.126.126,0,0,1-.071-.024c-.012.012-.024.012-.047.024h-.047c-.012,0-.024.012-.035.012a.108.108,0,0,1-.083-.035.115.115,0,0,1,0-.166,5.212,5.212,0,0,0-1.875-2.852.738.738,0,0,1-.4.343.665.665,0,0,1-.212.036,1.216,1.216,0,0,1-.472-.118.136.136,0,0,1-.059-.142.5.5,0,0,0,.024-.059,1.065,1.065,0,0,1-.472-.13.13.13,0,0,1-.047-.154V107h-.024a1.305,1.305,0,0,1-.46-.106.128.128,0,0,1-.059-.142.4.4,0,0,1-.118.012,1.129,1.129,0,0,1-.448-.106.128.128,0,0,1-.059-.142.4.4,0,0,1-.118.012,1.02,1.02,0,0,1-.507-.154.13.13,0,0,1-.047-.154.843.843,0,0,1,.13-.213h-.012a.671.671,0,0,1-.259-.047.944.944,0,0,1-.46-.533.1.1,0,0,1,.059-.142.876.876,0,0,1,.7-.047l.071.036v-.154a.126.126,0,0,1,.118-.106,1.038,1.038,0,0,1,.6.225.128.128,0,0,1,.13-.095.961.961,0,0,1,.6.331.089.089,0,0,0,.012-.047.11.11,0,0,1,.142-.071,1.075,1.075,0,0,1,.531.343.112.112,0,0,1,.13-.047.975.975,0,0,1,.519.379.167.167,0,0,1,.035-.059.112.112,0,0,1,.153-.036,1,1,0,0,1,.46.521.809.809,0,0,1-.071.58,5.426,5.426,0,0,1,1.875,2.651,5.153,5.153,0,0,0-.318-3.124.758.758,0,0,1-.389.118.328.328,0,0,1-.106-.012.936.936,0,0,1-.554-.414.112.112,0,0,1,.024-.154s.035-.024.083-.059a1.2,1.2,0,0,1-.366-.367.128.128,0,0,1,.012-.13,1.212,1.212,0,0,1-.436-.32.111.111,0,0,1,.012-.154l.047-.047a1.035,1.035,0,0,1-.424-.414.175.175,0,0,1-.012-.083,1.04,1.04,0,0,1-.5-.367.124.124,0,0,1,.012-.154,1.042,1.042,0,0,1,.259-.166.733.733,0,0,1-.342-.177.915.915,0,0,1-.236-.663.125.125,0,0,1,.106-.118.948.948,0,0,1,.672.213.817.817,0,0,1,.177.284,1.051,1.051,0,0,1,.142-.308.128.128,0,0,1,.153-.036,1,1,0,0,1,.436.533v.012l.047-.047a.111.111,0,0,1,.153-.012,1.052,1.052,0,0,1,.318.521.106.106,0,0,1,.13.012,1.074,1.074,0,0,1,.307.509H89.6a.11.11,0,0,1,.153.012,1.023,1.023,0,0,1,.271.674v.047a.7.7,0,0,1,.094-.059.116.116,0,0,1,.153.047.976.976,0,0,1,.142.686.78.78,0,0,1-.354.461,5.44,5.44,0,0,1,.354,3.266,5.047,5.047,0,0,0,1.167-2.6.82.82,0,0,1-.507-.2,1.024,1.024,0,0,1-.236-.651.126.126,0,0,1,.106-.118h.094a.958.958,0,0,1-.094-.521c0-.059.047-.095.106-.106a1.242,1.242,0,0,1-.118-.556.1.1,0,0,1,.035-.071,1.075,1.075,0,0,1-.224-.544.138.138,0,0,1,.094-.13,1.049,1.049,0,0,1-.236-.556.128.128,0,0,1,.094-.13.92.92,0,0,1,.307-.012.617.617,0,0,1-.142-.26.989.989,0,0,1,.118-.7.129.129,0,0,1,.153-.047.952.952,0,0,1,.472.521.777.777,0,0,1,.024.284,1.126,1.126,0,0,1,.295-.166.11.11,0,0,1,.142.071.983.983,0,0,1,.047.663.091.091,0,0,1,.035-.012.128.128,0,0,1,.142.083,1.108,1.108,0,0,1-.012.639.126.126,0,0,1,.106.083,1.066,1.066,0,0,1-.024.675h.012a.117.117,0,0,1,.13.095,1.039,1.039,0,0,1-.094.675h.071a.109.109,0,0,1,.106.118,1.025,1.025,0,0,1-.224.663.813.813,0,0,1-.531.225,5.466,5.466,0,0,1-1.415,2.97h4.658a.112.112,0,0,1,.118.118C95.186,110.263,95.139,110.275,95.068,110.275Zm-7.358-2.935a.564.564,0,0,0,.271-.248.617.617,0,0,0-.389-.024l-.071.036c-.035.024-.071.059-.106.083a.871.871,0,0,0-.106.13A.66.66,0,0,0,87.71,107.341Zm-.507-.308.071-.036a.644.644,0,0,1,.106-.083.829.829,0,0,0,.094-.118.609.609,0,0,0-.389-.035A.57.57,0,0,0,86.8,107,.766.766,0,0,0,87.2,107.033Zm-.531-.3a.621.621,0,0,0,.271-.248c-.012,0-.012-.012-.024-.012a.55.55,0,0,0-.365-.012.621.621,0,0,0-.271.248A.611.611,0,0,0,86.672,106.737Zm-.637-.248a.621.621,0,0,0,.271-.248.547.547,0,0,0-.389-.012.622.622,0,0,0-.271.249A.717.717,0,0,0,86.035,106.489Zm-.672-.237a.551.551,0,0,0,.283-.225c-.012-.012-.035-.012-.059-.024s-.083-.024-.13-.035h-.012a.344.344,0,0,0-.189.012.205.205,0,1,0,.106.272Zm-.59-.816a.622.622,0,0,0-.389,0,.552.552,0,0,0,.283.284.621.621,0,0,0,.389,0A.652.652,0,0,0,84.774,105.435Zm.4-.177a.552.552,0,0,0,.13.355.557.557,0,0,0,.224.142c.047.012.083.024.13.035a.552.552,0,0,0-.13-.355A.536.536,0,0,0,85.174,105.258Zm1.038.343a.638.638,0,0,0-.33-.213.617.617,0,0,0,.083.367.64.64,0,0,0,.33.213A.618.618,0,0,0,86.212,105.6Zm.707.26a.667.667,0,0,0-.307-.248.59.59,0,0,0,.047.367.5.5,0,0,0,.212.2c.035.012.059.024.094.036A.572.572,0,0,0,86.92,105.861Zm.637.308a.674.674,0,0,0-.295-.26.57.57,0,0,0,.024.367.457.457,0,0,0,.177.189c.047.024.083.047.13.071A.684.684,0,0,0,87.556,106.169Zm.6.331a.549.549,0,0,0-.248-.308.625.625,0,0,0-.035.367.549.549,0,0,0,.248.308A.6.6,0,0,0,88.158,106.5Zm1.25-.095a.564.564,0,0,0,.354-.083.6.6,0,0,0-.33-.213.565.565,0,0,0-.354.083A.6.6,0,0,0,89.408,106.406Zm-.271-.544a.494.494,0,0,0,.354-.059c-.012-.012-.012-.024-.024-.035a.577.577,0,0,0-.295-.2.5.5,0,0,0-.354.059A.666.666,0,0,0,89.136,105.861Zm-.389-.544a.588.588,0,0,0,.342-.106.7.7,0,0,0-.342-.189.588.588,0,0,0-.342.106A.606.606,0,0,0,88.747,105.317Zm-.389-.521a.494.494,0,0,0,.354-.059.666.666,0,0,0-.318-.237.493.493,0,0,0-.354.059A.666.666,0,0,0,88.358,104.8Zm-.5-.521a.614.614,0,0,0,.342-.095.312.312,0,0,1-.059-.071.531.531,0,0,0-.271-.13.626.626,0,0,0-.354.095A.593.593,0,0,0,87.863,104.276Zm-.307-1.041a.6.6,0,0,0-.366-.142.609.609,0,0,0,.165.367.594.594,0,0,0,.366.142A.728.728,0,0,0,87.556,103.234Zm.849.379a.671.671,0,0,0-.236-.32.621.621,0,0,0-.059.367.668.668,0,0,0,.236.32A.544.544,0,0,0,88.405,103.613Zm.366.166a.558.558,0,0,0-.118.355.665.665,0,0,0,.165.355.557.557,0,0,0,.118-.355A.664.664,0,0,0,88.771,103.779Zm.448.533a.636.636,0,0,0-.13.343.623.623,0,0,0,.165.367.521.521,0,0,0,.047-.083c.012-.024.023-.059.035-.083a.491.491,0,0,0,.035-.189A.579.579,0,0,0,89.219,104.311Zm.448.509a.73.73,0,0,0-.106.142c-.012.024-.023.059-.035.083-.012.047-.024.083-.035.13a.575.575,0,0,0,.082.308c.024.036.035.059.059.095a.634.634,0,0,0,.177-.355A.717.717,0,0,0,89.667,104.82Zm.472.674a.51.51,0,0,0-.212.3.6.6,0,0,0,.059.391.51.51,0,0,0,.212-.3A.625.625,0,0,0,90.139,105.495Zm1.368-.284a.528.528,0,0,0-.33-.154.7.7,0,0,0,.13.379.529.529,0,0,0,.33.154A.613.613,0,0,0,91.507,105.211Zm-.318.509a.7.7,0,0,0,.13.379.528.528,0,0,0,.33.154.7.7,0,0,0-.13-.379A.527.527,0,0,0,91.188,105.719Zm.012-.982a.559.559,0,0,0,.342.095.044.044,0,0,0-.012-.036.567.567,0,0,0-.189-.32.573.573,0,0,0-.354-.095A.842.842,0,0,0,91.2,104.737Zm.613-.4a.663.663,0,0,0-.059.3.3.3,0,0,1,.012.095.493.493,0,0,0,.271-.225.692.692,0,0,0,.047-.4A.511.511,0,0,0,91.813,104.335Zm.377.485a.491.491,0,0,0-.283.237.724.724,0,0,0-.059.213c.012.059.012.118.024.177a.494.494,0,0,0,.271-.225A.7.7,0,0,0,92.191,104.82Zm.094.745a.537.537,0,0,0-.307.2.521.521,0,0,0-.083.225v.166a.534.534,0,0,0,.295-.2A.62.62,0,0,0,92.285,105.566Zm-1.026,1.148a.5.5,0,0,0,.342.13.7.7,0,0,0-.153-.367.5.5,0,0,0-.342-.13A.62.62,0,0,0,91.259,106.713Zm-.4-3.006a.579.579,0,0,0,.2.343.572.572,0,0,0,.354.095.58.58,0,0,0-.2-.343A.505.505,0,0,0,90.858,103.708Zm.519-.651a.666.666,0,0,0-.248-.308.747.747,0,0,0-.047.4.666.666,0,0,0,.248.308A.567.567,0,0,0,91.377,103.057Zm.519.331a.507.507,0,0,0-.259.26.665.665,0,0,0-.035.26c.012.047.024.095.035.13a.559.559,0,0,0,.248-.248A.675.675,0,0,0,91.9,103.388Zm.307,3.3a.7.7,0,0,0,.153-.367.484.484,0,0,0-.472.473v.036A.579.579,0,0,0,92.2,106.69Z" transform="translate(-80.8 -91.053)" fill="#fff"/>
        <path id="Path_40538" data-name="Path 40538" d="M68.491,141.847a.112.112,0,0,1,.118-.118h5.424a.118.118,0,0,1,0,.237H68.609A.112.112,0,0,1,68.491,141.847Z" transform="translate(-67.901 -123.454)" fill="#fff"/>
        <path id="Path_40539" data-name="Path 40539" d="M105.7,146.034h-.472a.118.118,0,0,1,0-.237h.472a.118.118,0,0,1,0,.237Z" transform="translate(-98.152 -126.812)" fill="#fff"/>
        <path id="Path_40540" data-name="Path 40540" d="M98.917,145.8a.118.118,0,0,1,0,.237h-.472a.118.118,0,0,1,0-.237Z" transform="translate(-92.55 -126.812)" fill="#fff"/>
        <path id="Path_40541" data-name="Path 40541" d="M106.466,141.847a.112.112,0,0,1,.118-.118h.708a.118.118,0,0,1,0,.237h-.708A.112.112,0,0,1,106.466,141.847Z" transform="translate(-99.273 -123.454)" fill="#fff"/>
        <path id="Path_40542" data-name="Path 40542" d="M73.349,92.148a2.488,2.488,0,0,1-.507-.237c-.012-.012-.024,0-.035.012l-.153.154a.263.263,0,0,1-.377,0l-.425-.426a.265.265,0,0,1,0-.379L72,91.119a.043.043,0,0,0,.012-.035,2.391,2.391,0,0,1-.295-.722c0-.012-.012-.024-.035-.024h-.212a.267.267,0,0,1-.271-.272v-.6a.267.267,0,0,1,.271-.272h.2c.012,0,.024-.012.035-.024A2.582,2.582,0,0,1,72,88.445c.012-.012,0-.024-.012-.035l-.153-.154a.265.265,0,0,1,0-.379l.424-.426a.263.263,0,0,1,.377,0l.153.154a.043.043,0,0,0,.035.012,2.371,2.371,0,0,1,.719-.3c.012,0,.024-.012.024-.036v-.213a.267.267,0,0,1,.271-.272h.6a.267.267,0,0,1,.271.272v.2c0,.012.012.024.024.035a2.563,2.563,0,0,1,.719.3c.012.012.024,0,.035-.012l.153-.154a.263.263,0,0,1,.377,0l.425.426a.28.28,0,0,1,.082.189.236.236,0,0,1-.082.189L76.3,88.4a.043.043,0,0,0-.012.035,2.39,2.39,0,0,1,.295.722c0,.012.012.024.035.024h.212a.267.267,0,0,1,.271.272v.391a1.032,1.032,0,0,0-.236-.107v-.272a.038.038,0,0,0-.035-.036h-.2a.256.256,0,0,1-.259-.2,2.311,2.311,0,0,0-.271-.663.287.287,0,0,1,.035-.331l.153-.154c.012-.012.012-.012.012-.024s0-.012-.012-.024l-.424-.426a.036.036,0,0,0-.047,0l-.153.154a.266.266,0,0,1-.33.036,2.163,2.163,0,0,0-.66-.272.257.257,0,0,1-.2-.26v-.213a.038.038,0,0,0-.035-.036h-.6a.038.038,0,0,0-.035.036v.225a.257.257,0,0,1-.2.26,2.292,2.292,0,0,0-.66.272.285.285,0,0,1-.33-.036l-.153-.154a.036.036,0,0,0-.047,0l-.425.426a.036.036,0,0,0,0,.047l.153.154a.268.268,0,0,1,.035.331,2.18,2.18,0,0,0-.271.663.256.256,0,0,1-.259.2h-.212a.038.038,0,0,0-.035.035v.6a.038.038,0,0,0,.035.035h.248a.256.256,0,0,1,.259.2,2.311,2.311,0,0,0,.271.663.287.287,0,0,1-.035.331l-.153.154a.036.036,0,0,0,0,.047l.424.426a.036.036,0,0,0,.047,0l.153-.154a.266.266,0,0,1,.33-.036,2.163,2.163,0,0,0,.66.272.574.574,0,0,1,.083.036,1.359,1.359,0,0,0-.295.095C73.385,92.125,73.373,92.137,73.349,92.148Z" transform="translate(-70.142 -78.11)" fill="#fff"/>
        <path id="Path_40543" data-name="Path 40543" d="M115.2,110.036h-.884c-.059-.071-.118-.13-.13-.142a.314.314,0,0,0-.118-.071c0-.012-.012-.024-.012-.036h1.073C115.158,109.859,115.169,109.942,115.2,110.036Z" transform="translate(-105.547 -97.086)" fill="#fff"/>
        <g id="Group_56437" data-name="Group 56437" transform="translate(0.495 5.022)">
          <path id="Path_40544" data-name="Path 40544" d="M81.722,71.955h-.047a.107.107,0,0,1-.083-.035,2.363,2.363,0,0,0-1.651-.651,2.413,2.413,0,0,0-1.828.84,1.76,1.76,0,0,0-.2-.13,2.643,2.643,0,0,1,3.679-.367V70.63H79.823a.118.118,0,0,1,0-.237H81.6v-.237H79.835a.118.118,0,0,1,0-.237H81.6v-.237H80.425a.473.473,0,0,1,0-.947h1.132a1.035,1.035,0,0,0-.991-.71H77.984l-1.1,1.112v1.254a.112.112,0,0,1-.118.118H75.5a.146.146,0,0,1-.094-.047l-.047-.059a4.556,4.556,0,0,0-7.087-.994.344.344,0,0,0,0,.5l.094.095.012-.012a2.268,2.268,0,0,1,.165-.178,4.059,4.059,0,0,1,3.125-1.183,4.01,4.01,0,0,1,3.773,3.55,4.605,4.605,0,0,1,0,.8h-.012a.877.877,0,0,0-.2-.248,3.83,3.83,0,0,0-.012-.521,3.77,3.77,0,0,0-3.549-3.337,3.853,3.853,0,0,0-2.936,1.112,2.115,2.115,0,0,0-.153.166c-.012.012-.012.024-.024.024l-.083.083a.114.114,0,0,1-.165,0l-.177-.166a.573.573,0,0,1,0-.828,4.707,4.707,0,0,1,2.771-1.3v-1.8a.36.36,0,0,1,.366-.39h.153a.4.4,0,0,1,.4.39v1.5h2.158a.473.473,0,0,1,0,.947h-.035a4.622,4.622,0,0,1,1.615,1.657h1.1V69.092a.107.107,0,0,1,.035-.083l.531-.544-.519-.533-.307.308a.127.127,0,0,1-.083.036.107.107,0,0,1-.083-.036.115.115,0,0,1,0-.166l.708-.71a.117.117,0,0,1,.165.166l-.236.237.519.533.46-.473a.107.107,0,0,1,.082-.036h2.63a1.28,1.28,0,0,1,1.25.994.1.1,0,0,1,.035.071v2.994A.109.109,0,0,1,81.722,71.955Zm-10.294-5.94h-.153a.159.159,0,0,0-.165.154v1.74h.472v-1.74A.156.156,0,0,0,71.427,66.015Zm2.547,2.367a.237.237,0,0,0,0-.473H71.864v.024a4.82,4.82,0,0,1,1.639.45Zm6.45.592a.237.237,0,0,0,0,.473H81.6v-.473Z" transform="translate(-67.949 -65.778)" fill="#fff"/>
        </g>
        <path id="Path_40545" data-name="Path 40545" d="M93.711,109.516a.4.4,0,0,0,.059.166,1.331,1.331,0,0,0,.118.142.252.252,0,0,1-.083.177l-.424.426a.263.263,0,0,1-.377,0l-.153-.154a.044.044,0,0,0-.035-.012.875.875,0,0,0-.142.083,1.029,1.029,0,0,0-.153-.035.334.334,0,0,0-.189.024c-.035-.024-.071-.036-.106-.059a3.374,3.374,0,0,0,.472-.213.312.312,0,0,1,.142-.036.234.234,0,0,1,.189.083l.153.154a.036.036,0,0,0,.047,0l.425-.426c.012-.012.012-.012.012-.024s0-.012-.012-.024l-.153-.154a.268.268,0,0,1-.035-.331,1.8,1.8,0,0,0,.13-.26.617.617,0,0,0,.142.166c.012.012.023.012.035.024-.035.059-.071.13-.106.189-.012.012,0,.024.012.035Z" transform="translate(-87.509 -96.471)" fill="#fff"/>
      </g>
    </g>
  </g>
</svg>
