<svg xmlns="http://www.w3.org/2000/svg" width="48.295" height="48.365" viewBox="0 0 48.295 48.365">
  <g id="upload-svgrepo-com_1_" data-name="upload-svgrepo-com (1)" transform="translate(-3.248 -3.25)">
    <path id="Path_29958" data-name="Path 29958" d="M44.627,32.214H10.246a7.3,7.3,0,0,1-6.992-7.6V16.323a2.073,2.073,0,0,1,4.146,0v8.291a3.206,3.206,0,0,0,2.764,3.455H44.627a3.206,3.206,0,0,0,2.764-3.455V16.323a2.073,2.073,0,0,1,4.146,0v8.291a7.3,7.3,0,0,1-6.909,7.6Z" transform="translate(0 19.401)" fill="#141414"/>
    <path id="Path_29959" data-name="Path 29959" d="M31.4,18.449a2.045,2.045,0,0,1-1.465-.608l-9.59-9.59-9.59,9.59a2.073,2.073,0,0,1-2.93-2.93L18.88,3.857a2.073,2.073,0,0,1,2.93,0L32.864,14.912a2.073,2.073,0,0,1,0,2.93,2.045,2.045,0,0,1-1.465.608Z" transform="translate(7.092 0.001)" fill="#141414"/>
    <path id="Path_29960" data-name="Path 29960" d="M13.323,37.8a2.1,2.1,0,0,1-2.073-2.073V5.323a2.073,2.073,0,0,1,4.146,0v30.4A2.1,2.1,0,0,1,13.323,37.8Z" transform="translate(14.114)" fill="#141414"/>
  </g>
</svg>
