<svg xmlns="http://www.w3.org/2000/svg" width="61.697" height="61.696" viewBox="0 0 61.697 61.696">
  <g id="silo-svgrepo-com" transform="translate(0 -0.001)">
    <g id="Group_56295" data-name="Group 56295" transform="translate(0 0.001)">
      <g id="Group_56294" data-name="Group 56294" transform="translate(0)">
        <path id="Path_40375" data-name="Path 40375" d="M34.961,182.4v24.253a1.028,1.028,0,0,0,2.056,0v-22.2l.3.3a1.028,1.028,0,1,0,1.454-1.454l-2.056-2.057h0l-5.868-5.868V171.7a1.028,1.028,0,0,0-2.056,0v3.085H9.255a1.026,1.026,0,0,0-.727.3l-6.17,6.169h0L.3,183.308a1.028,1.028,0,0,0,1.454,1.454l.3-.3v22.2a1.028,1.028,0,0,0,2.056,0V182.4l5.567-5.567H29.394Z" transform="translate(0 -150.102)" fill="#fff"/>
        <path id="Path_40376" data-name="Path 40376" d="M7.2,494.934H1.03a1.028,1.028,0,0,0,0,2.056H7.2a1.028,1.028,0,0,0,0-2.056Z" transform="translate(-0.002 -435.294)" fill="#fff"/>
        <path id="Path_40377" data-name="Path 40377" d="M419.548,49.366a1.028,1.028,0,1,0-1.12,1.724,10.392,10.392,0,0,1,3.983,4.87,1.03,1.03,0,0,0,.957.652,1.012,1.012,0,0,0,.376-.072,1.028,1.028,0,0,0,.58-1.334A12.3,12.3,0,0,0,419.548,49.366Z" transform="translate(-367.595 -43.271)" fill="#fff"/>
        <path id="Path_40378" data-name="Path 40378" d="M103.207,324.345a1.015,1.015,0,0,0-.389-.077H86.36a1.027,1.027,0,0,0-1.025,1.025v16.455a1.028,1.028,0,0,0,1.755.727l7.5-7.5,7.5,7.5a1.028,1.028,0,0,0,1.755-.727V325.293a1.015,1.015,0,0,0-.077-.389,1.034,1.034,0,0,0-.559-.559ZM87.392,339.266V327.779l5.744,5.744Zm1.454-12.942h11.488l-5.744,5.744Zm12.942,12.942-5.744-5.744,5.744-5.744Z" transform="translate(-75.052 -285.194)" fill="#fff"/>
        <path id="Path_40379" data-name="Path 40379" d="M255.388,0a16.471,16.471,0,0,0-16.452,16.452v1.028a1.029,1.029,0,0,0,1.028,1.028h17.481V56.556a1.028,1.028,0,1,0,2.056,0V55.528h6.17v1.028a1.028,1.028,0,0,0,2.056,0V17.482a1.029,1.029,0,0,0-1.028-1.028H240.992a14.4,14.4,0,1,1,28.792,0v40.1a1.028,1.028,0,0,0,2.056,0v-40.1A16.472,16.472,0,0,0,255.388,0ZM259.5,18.51h6.17v4.113H259.5Zm0,6.17h6.17v4.113H259.5Zm0,6.17h6.17v4.113H259.5Zm0,6.17h6.17v4.113H259.5Zm0,6.17h6.17V47.3H259.5Zm0,6.17h6.17v4.113H259.5Z" transform="translate(-210.144 -0.001)" fill="#fff"/>
        <path id="Path_40380" data-name="Path 40380" d="M480.954,494.934H478.9a1.028,1.028,0,0,0,0,2.056h2.057a1.028,1.028,0,1,0,0-2.056Z" transform="translate(-420.285 -435.294)" fill="#fff"/>
        <path id="Path_40381" data-name="Path 40381" d="M129.552,494.934H86.364a1.028,1.028,0,0,0,0,2.056h43.187a1.028,1.028,0,0,0,0-2.056Z" transform="translate(-75.053 -435.294)" fill="#fff"/>
      </g>
    </g>
  </g>
</svg>
