<svg xmlns="http://www.w3.org/2000/svg" width="22.501" height="22.501" viewBox="0 0 22.501 22.501">
  <g id="Group_56637" data-name="Group 56637" transform="translate(-3748.5 -18.5)">
    <g id="ticked-circle-svgrepo-com_2_" data-name="ticked-circle-svgrepo-com (2)" transform="translate(3748.997 18.999)">
      <path id="Path_40638" data-name="Path 40638" d="M18.359,3.146a10.756,10.756,0,1,0,0,15.211A10.767,10.767,0,0,0,18.359,3.146Z" transform="translate(0)" fill="#fff" stroke="#0e5f02" stroke-width="1"/>
    </g>
    <path id="Path_40638-2" data-name="Path 40638" d="M10.638,13.528a.439.439,0,0,1-.621,0l-3.57-3.57a.445.445,0,0,1-.129-.31.439.439,0,0,1,.749-.31l3.259,3.26,7.066-6.265a.439.439,0,0,1,.622.621Z" transform="translate(3747.682 19.797)" fill="#0e5f02"/>
  </g>
</svg>
